<mxfile host="Electron" modified="2024-07-14T14:45:55.670Z" agent="Mozilla/5.0 (Windows NT 10.0; Win64; x64) AppleWebKit/537.36 (KHTML, like Gecko) draw.io/24.6.4 Chrome/124.0.6367.207 Electron/30.0.6 Safari/537.36" etag="9NmQtIhqTxWhA1IXhI1x" version="24.6.4" type="device">
  <diagram name="Page-1" id="8pAI0nM3s42UnxAgNiih">
    <mxGraphModel dx="1050" dy="621" grid="1" gridSize="10" guides="1" tooltips="1" connect="1" arrows="1" fold="1" page="1" pageScale="1" pageWidth="1169" pageHeight="827" math="0" shadow="0">
      <root>
        <mxCell id="0" />
        <mxCell id="1" parent="0" />
        <mxCell id="Q_m5-7QkY2CdEUIhsvCV-32" value="" style="rounded=0;whiteSpace=wrap;html=1;fillColor=none;dashed=1;strokeColor=#007FFF;" vertex="1" parent="1">
          <mxGeometry y="20" width="720" height="540" as="geometry" />
        </mxCell>
        <mxCell id="Q_m5-7QkY2CdEUIhsvCV-3" value="" style="rounded=0;whiteSpace=wrap;html=1;fillColor=none;dashed=1;strokeColor=#007FFF;" vertex="1" parent="1">
          <mxGeometry x="40" y="80" width="290" height="440" as="geometry" />
        </mxCell>
        <mxCell id="Q_m5-7QkY2CdEUIhsvCV-4" value="" style="shape=image;verticalLabelPosition=bottom;labelBackgroundColor=default;verticalAlign=top;aspect=fixed;imageAspect=0;image=data:image/png,iVBORw0KGgoAAAANSUhEUgAAAIAAAACACAYAAADDPmHLAAAABGdBTUEAALGPC/xhBQAAACBjSFJNAAB6JgAAgIQAAPoAAACA6AAAdTAAAOpgAAA6mAAAF3CculE8AAAABmJLR0QA/wD/AP+gvaeTAAAACXBIWXMAADsOAAA7DgHMtqGDAAAAB3RJTUUH5AYMCjAFJiz+hgAANs1JREFUeNrtnXl8HNWV779VvalbvWmXLdmWZLDwincwi8HsWwIhJGSAED7MCzBZIExe8vJCJpNHEj4J7yXBxIFgJpkwgYQxS0IwxGAWQ8BgsLzhfZNlW4u1t1q9d9V9f5yqtmy8yWoZJ/D7fNqSXF23bt177tnuOefCJ/gEn+ATfIKPKbSPugN/x9AAF+C2fjoAHTABA0hbn8xH3dGjvcTHDTr7J85h/Z8JZAd8zIPucQNFQAUwEqgCxlmfcqDAalOz7s0AcaAFWA9sB3YDe4EOIPFRD4KNj4IANMALlCKDVwaEgQDgQwY7A8SsTy/QA3RbP/uAJKCO8XleYAQwBhgLTEQmrghwWv0xgBTQBTQBO5DJ6wJGA5cC06z+Bqw+DmbsDIQgOhGC+DPwvvWc+EcwBwdMxolCAKgHzgKuBE5FJsGHTIR+iHvslZkG+hECaAL+BqwFdgKtQIQDCUIHqq1nXQ9MRwjOO4h3tp/rweIUTqeTQCBAOBymqKiIcDhMMBiksLAQl8uFw+HAMAxSqRTRaJSenh66u7vp6uoiEomQSqUGvlcnsBz4LfCO9fcJx4kggBLgfOA2YBay2jVN0/D5fASDQQKBAIWFhbjdbnRdxzRNUqkUiUSCWCxGLBYjHo8PHECsyekGGoGXgGXAVoQdfw64FagDXJqmUVhYSGlpKWVlZRQXF+P3+/F4PCilSKVSxONxIpFIbtIikQjZbJaSkhJqamoYP348Z599NtOnT6esrIxAIIDX68XpdOJwONC0/UNpmmaOEGKxGF1dXWzcuJGXX36Z1atXs2PHDnp7e1FKgXCzBuABYClCzP8QBOAGzgO+C8wBPC6Xi6qqKiZMmMCcOXM455xzGDlyJIFAAI/Hg9PpRNc1TFORyWRIp9MkEgl6e3vZvXs3K1asYPPmzezatYvW1la6u7vJZDIgqz8O7EFkcS2gB4NBxo8fz9y5c7nyyiupqakhHA5TUFCQexbKmjCL6GKxGN3d3WzevJmmpibmzZtHbW0tgUAAXT+QSRmmSSZrkskaGKatNmg4HToup47L6UA/iDAikQibNm3iiSeeYOnSpTQ2NpLNZm1CWAr8GFiJiI2/WwIoBu4E7gLCBQUFTJ06lZtuuokrrriCkSNH4vF4DnmjOkqnspkMkb4+2traeO+993jppZdYv349TU1N9Pf3AxAKhbjgggv4yle+wqxZswgGg7kVqoBs1iRjyKRpgK7rMmkO/YCVfDAyWYNtzZ00tfXQ3NVHY2s37T39JDNZslkThULTNFwOB36vm1HlYU6tKqWqLMiI4iBl4UIKC9wAmKbB3r3NPPHEEzz22GNs27YNU4ioFbgfEQ19wzQ/OQwHAYwCfgZcq2mao76+nm984xt8/vOfp6ioCADDVPT2J+jo7aejN0Z3NE5XX5xILIlhmLicDkL+Aor8XoK+AooCXsJ+L6HCAvxeNy6nI/ewbDZLV1cXa9eu5cknn6S5uZmvf/3rXHTRRRQUFADQn0jT2tVHU3sv25s72ba3k55ogqwhq9bp0An4PIwqC1E3soQRJQEqiwOUhQopLPBg00TWMFm+YRePL13Nup2tJFIZ4SJoBwyksv7V0NB1DbfTQbCwgNHlYS6YNpYZ46oZXRHG43KilGLXrl384he/4A9/+ANdXV0g4u0p4H8jXO3vhgCqgEeAK10uF5/+9Ke57777GDduHADReIrNezpYtmYH72/eQ2ckTjyVJmuYmEodqMZpoGsaDl3H7XLg87gI+73UVBYxq76aupElVJUGKQ74cgRhGAbJZBKfzwdodET6WbFxN4vf3cSOlm6i8RQZw0B9yH5Q1iP3T1jA56G6LMTcKXXMrK+mprIot3qjiRSvr97BH15ZzfaWLpRSR+QcAEopTAUOXaPI72X2+FF89tzJTKipoMDtJJvNsnTpUu655x7WrFmDEgXhdeCrwOa/BwIIA78EbnK73Xz5y1/mRz/6EeFwmHTWoGHLXn6/dBUf7GwjlkqDAk3T0I6hB0pGEJtGHLqG1+OiJOhj/JhyLp9dz1kTa3A6REbHUxmWrdnB719exc7WLjJZE03jqJN08IQpBbquEfB5mFRTybXnTmL6uCpChcJZWrv6+N1LDfz1vS30J1IHyPtjaTvg83D+1LF88eLpjB1ZjKZpbN++nW9961s8//zzGIYBYiH8D2BjHucqB8fQm8i181XgLofD4bj11lu5//77CYVC9PYn+M2L7/PLP73NzpZusqaJrmnHPPkgVKpZ99iDnDFMevuT7Gnv5ZSqUqaOHYmmabR2R3nw2bf47V9Xsq9HdAL73sFg4D2ptMHu9l7eWLeTtTtaCfu9VBQFKAp4OXP8aEaVhdm6p5NILHlMz7HbTmcMtuzt4J0NTQS8HmoqiigvK+Wiiy6is7OTDz74ANM0RwGTgTcRMzivyBcBnAE8CAQvvPBCFixYQHFxMZ2RGD99chl/fmsD6UwWXdfyxnI0wKnrXD9vKv98xSycDp3G1m7u/f0rvLFmJ4ZSx7wij/osi3uYpqK5s4831zXS0tlH7YhiioM+TqkqYUrdCHa2dLGvJ3rMxGa3G4kneXfTbqKJNBNrKigOBznvvPPo6Ohg7dq1KKXGII6sV8izFzEfBOAHfgrMrqqq4pFHHqG+vp5oIsXPn3qTl97fNmj2eywwleKsiWP45ufnUljgZm9HhHv/6xVWbW3JK6EdDE3TyGRNtu7tYOWWvVQUB6guC1FRFGBGfTVN+3rY0x45Zu5mt5k1FBub2mjrjjL1lJEUhQKcddZZNDY2snHjRhDHGYi/41i9oEdFPgjgLOB7mqZ5brvtNr70pS8B8PQbH/CHV1fnr6cDYCrFiOIA99x0IdVlISKxJP/3yTdYvrHJ0sqHFzZBd0XjvLuxCY/LxbhRpRQHfEw/tYrd7b3s3tczKKK3v7qjpYv2nn5mjqumKBxk1qxZLF++nObmZh1xbL0KtOXrXYZKAG7E0XNmbW0tDzzwAKWlpWxv7uKnTy4jGk/lfeUDOHSdGy6cxqUz61EoFr2+jqfeWJf35xwNmqaRTGdZtbWZjGEyubaSooCX08eOYNveTpo7+47r/Xe2dhFLpZl12ihKS4qpqKjgL3/5C5lMJoDsWbyUr3fQh3h/DXAJwAUXXEBdXR2GafLc2xto7+kflsk3TUXdyBI+c+4kNA02NbXzxKurB3jiTiw0TSOVMXh86SoWvrCCZDrLyJIg37r+fE6tKhXzdtDvCM8v38TSldsAOOussxg/frx9+RxkDyUvGCoBnA5UBgIBbrzxRhwOB3s7Iry2Zke++vchOJ06V555GmWhQpLpLH94dTWdkdiwENuxQtMgkzV58rW1PPHKarKGySlVJdz9uXMpCfhsn/+g2oun0jy3fCPxVIbS0lIuv/xy+3I1siWdFwyFAJzAZYBzzJgxTJw4EYD1jW3DNiGmUlSVhrh4huhDm3e38/b6XQyfynfs0DRIZ7L818sNLG2QlTv7tFHcctlMnI7BS1pd02juiNAViQEwbdo0nE4nQBDhvHnBUAigCJgNUF9fT3FxMemswbK1O8lkh48dz6qvprzIT8Ywef6dTfTFU4PSuIcTmqYRTaR46LnlrG9sQ9c0Pn3WBM6eNGbwokDT6E+m6ekXq6+8vNzeP/EA4wfX2OExFAIotz7MmDEDp9NJb3+C7c1dwzIhSkHQ5+Gy2fW51bF8w66TYO0fCOlbH7967h16+5MEfB7++YrZlIUKByUKNGTzqbc/CUBhYaFNABrics9Pf4dwbzkQ8Pl8nHHGGQB098WJ9CeGhSUrpaguDTF2ZAkAH+xspSsS/0hl/+Gg6xoNW/eyaNlalFKMH1POZ+dOHrRjSilFIpUGyAWcWPDmra9DuLcccPv9fsrLywHojiZIpLPDwwGA+tFlBH0FJNNZXl21PbebdzIia5j8+a0NbNnTga5pXDVnPGMqiwYtCuwYhIO4R95GeCgEUAI47KgegN7+xLBNitft5OxJNWgadEZibGvuPGlk/6Ggaxpt3VF+v3QV6azByJIgnztvCk792Idc1zUCXombyGQyduAIiC8gP/0cwr0VAF6vNxfcEY2n7KCGvEIpRaiwIMf+93ZE6OlPnJTsfyA0Dd7ZuJv1O8Vxd+6UWqrKQsfEBZQiF1gCkEgk7OgnyGP84PESgI7ljLBDuQD64qlhcf0qBSWhQooCPkDcpan0CYmYGhI0TaM3mmDRG+vIWFzg0lnjjpFwFR6XE58VgxCJREin0yDBqrvz1cfjJQANCb5E1/WcnEpnssfZ3NGGQlEeLsTncZHJGqzZ3nLYVaTU/v32jwKmUhimwrDiDA2laNiyl8Y22ck9Z1INQZ/nqP1TgK/AleMAnZ2dNgdIA7vy1V/nEO49gfxXo7I4iNOh09ufYG9HJPdwibSR8CuP24nH5cTp0DFMk2Q6SyqdzUUXDRcU4qL2up0UB32UBH0EfB6JVFKQzho0tnYzrrqUUeVhRpWFWd/fdkROoBSE/d5cFNK2bdtsRTBGHkXA8RKAQqJYMQzDjlyhwO0algF2OXXGjiwGIJZM0xdPYiqFjkZZ2M+YijDjRpUxdexIRhQHcLkcGIZJS1eUt9c3snJLM3s7I8NCsUopvB4X006t4qozxzOptpJQYQEe1/5QcdNUueUS8HmYXFfJ+sa2ozVMRZEfr9tFMpGgoaHBvhJBwuHzguMlABPJ2CGZTOa001BhwbD4AFwOB6PKw4DoGRnDZPyYcs4/fSwXzziFEaVBvIcgvtNGl3P+1Dr2tPeycPEKljZsk8nIE5RSlIYKuePTZ3LZ7PpcH5RSZAzTWhgaDl3LhavpmoSYHW2YdF2jbkQxuq4R6eujqanJvtROHqOFhyICWgHi8TjxuGQ3hQoLcDi0PA8yuJ37tWGv28VXr57DuVNqKQr40KwB74un6OqL0Wv5IjwuB+VhP5XFAcZUFPGdf5qH0+HghXc35a1ffp+Huz93LpfOqkdDzNP1jftYs6OFbXs7iacyOHQNv9fN6WNHcsOFU/G4nKQzR1ZgFeD1uJl6iuz5tLe309HRYV9uIo/pZEMhgHbA6O/vd/T29gJQHPTidjpIpvOpDCqcTh2PS7o6pqKIMZVFaEjwZ2NrNys27eaNtTtp7Y4SS4jnTNc1/AVuLp1Vzy2XzSTsL+DLV85mfWMbjW3dQ9YJFIrzptRx4bRT0IBV25p58Nm36YnGKQv58Ra4SKYzbG/uIpXJ0tuf5Przp6CcirgVFHs4LqCUoshfwKiyMAC7du0iEonIY/OcNDJUAkjF43Hf7t27mT59OmG/F6/HRSKVyauN7rASN0Bs62Q6y5rtLfz3srWs2d5CXyyFqRRup4MJNeWMKgtjmCatXVFeWrmFZDrDNz8/l+qyEFefPYEHn317SP2x9yWuOWciLqeD5s4I9z3xGoUFbn7xlU8xsjSEy6nT0tnHnb/8Cztbu3L5DFnDpKM3dkRzWSlFRXGAcEA8vitXrrRNwD4kSjhvGAoBdALRVCrle//997nmmmsIFRYQ9BXQ1RfPuyZg6xZdfXF+9eflLG3YRiyRzoVn6QgHOm9KHadWl1IU8LJuZxstnRGWb2hiR0sXp40uZ8a4agJez5B2ERUi+0dbeknD1mZ2tnYzZ8JoigI+CtxOMobJmh2tdPbJ1nhxwIfT6SCWSNHRGzvqu46rLsXncdHX18err75qX9qHiIC8YSgE0GV9KrZu3YphGPi9HiqK/Oxs7c6rkWiaKudi3tTUzosrNpPJGgfE/2maRm9/ksa2bgq9biqLA4woDrC3vZfuaIK31zdx2uhyKor8FAe9ROLJ41ZY7Zh+n8eNqRQf7GxDKVi5pZlvPfICc6fUsrO1m9dX7yCezOBw6IwqD6MBsWSGvnjysMRn2//nTqkFoKWlhZ07d9qXd5JHCwCGRgB9SNrShL179xKLxQgGg0yuG8G7m/LmqAI0sqbk8oGYhLp26Dj/dMbglYbt9PYn6YrE6e1P8Nb6XXT3xdm8ux3DNAn4PIwsDbGztWcIRKpw6HoukTWaENe8YZqs2tbMqm3NByS+uJ0OxlWXyqDFk/Qn0od9tFKKspCfuhHi9t68eTOdnTmz/y0s8ztfGAoBJBB5dKmdqRsMBhlXXYrL4chfjJ4GhmGSzgoBuF1OdF1HYXxoEDUNkpksb32wixWbdmOYCtM00TSNfT39xJMZscNrK3l7/a4hdSqdMcgaBh6Xk+KAN9eXnHJp/VAKCtxOKor8AET6kyTSh9eRlFLUjZR8A8MwWLJkie0B7CaPwaA2hhoT+AGQ7enpobm5GYDK4gBejytvrlgNWVkDEzkdRwj9liwi2Y61c/Y0DXr6E/RbK3VMRdGgduU+9AwN+hMpEinZ+h47suQI4egKj9tFobWrF4klyR4hYsrjcjJ3Si0uh05bWxvLli2zLzUhtRDyiqESwG4gGo1GeecdUU7LQoWE/QWoPG4LKSVcANjP/gfRvIZGLJEiEhPuWRL0HZBhPFhoCCvv6RdzfHR5GI/70MxUISLAYz0vlkwfljualmNpxrhqALZs2cKePbnk4PcYhtSwoRJAK9CplOK9997DMAxC/gJGlYfzuhmjUDkdQNePPafQhi0auqMSX+f3efC4ncfdR03TiMZTrG/cB0BVWYiSgO+wG1QOh5bjEDZnOuR7KsWpVaWUF/lRymTJkiW2k60feIYPF68aMoZKAN3ANoCdO3fS19eHx+Vk5rhq8p2gk9PYj3PSslmTlk7xoPo8LmtFHj+VprOG6BmGSVmokCljRxy2OWWSI7bDKbAgeykXzTgFt9NBS0srixcvti/tAoYl82WoBJBActhpaWmhvb0dgHGjSg/LEo+rk5rk7AMYSg06zh5Ej+iwQqzdTgcup2NIQkrTNLbt7aSzL47L6eDiGace9p3TWSPHwbwe1yG9kKZSjCgJMKt+FADr1q1j165d9uW3kfJyecdQCQCEMpN2lQ6AqpIQocKC45qog6GQmANbZmezBoahBm3CmUoRT4qb2KHrOBxDe3XdSkVfvV2U3/Fjyqk+RLSPhsRJxJMSzRPweQ79bAVTx46kNFxIOp1m0aJFJBIJkN2/PzIM7B/yQwC7gK50Os0rr7wCQHHQx8iSIHnZE1IKl0OqhACkMtlcbZ/BIjc5Wn78VMl0hiXvbSGVyVIe9nO5FbJ+ADSNZCabs0ACPg9up+MA/UMpCBYWcNWc8eiaRmNjY24skeogw5b4mA8CaMOKUNm4cSPRaBS/183s00blTQ9wOx14PbLVKlr04ClL07Tcdq1pquNq40ODp2ls3NUunk/g/NPrKAsfGP9vx/e3dkcB8HvdFLidDFQYTKU4tbqU+lFlALz22mu0tLRgfekFhkH7z71DHtroA14D2bVqa5NAhyl1I/KiB8jWqCtHAH2x1HE5mRy6TmlIYgozWYNM1hgyF9A0ja6+GM+9tQFTKcZUFnPJzHEf+l4ma9BkhYQVetziJxlw3eNycPnsegoL3HR2dvK73/3ODq7dCywa8iAeAfkgABCPYLKjoyMXuVJdHiLs9w5ZD7D33b0WMTV3Ro4r49bt3B9UEkumSWay5EMQKODtDU3sae/FoWtcecZplByUBWSaivZeKVfjdjmFmNX+a6PLw8y1fP/vv/8+69evt29dzjA4fwYiXwSwHehMp9MsWbIEpUxKQ4XUjSjOgx6g8Be4cTudZA2TvZ2RQdvvSil8BS4qiwMA9EQTJNOZvOQV6JpGa1cff35rA0opxo4s4dKZ4ziAuDQhOtNUuJ06BW5njgPousYF006hNFRIPB7nN7/5jW379wG/QYJAhw35IoBWYAvA+vXr6enpxet2MXdK3RHdtscKl9OBZm28RPoHUydaoBSUBAspCYoI2NPee9SonMHAVIpXVm2naV8vDofONedMpKLIfwAXyGQNiWPUdStbWOWyna+aI7me69at4/XXX7dvWQWsyFsnD4N8EUA/sBhED2hsFK41YUw5fq97yF7BnF9fFyfOYFm3QlZm0FdAOmOwYvOevIat6ZpGS2cfi5atwzQVtSOKufrsCYd0+Ej8gv27xvlT66gqDZHJpHnsscfo7u4Gyfx5jBNQKTRfBADiq+7r6uripZdk06qqNMSI4uAQ9QCNWDJNJmvgcjioHVkyKNatAJ/HzYXTx6LrGh2RGFv2tOc9qF2heH3NdrY1d+ZyAWsqinIFMGUXU8MwFNmsialgZEmQa61KJ+vXb+DZZ5+1m9uAaP/DjnwSwE6ssqbLli0jkUgQDng5c8LoIQ22ponMjsbFjq63tpuPFcpUjCoPM3WsBFhu3t1OZ28s73kCurXl/PjSVWSyBlWlIb5w4VRcDh002YDSNY1UJkssmcahaVw4/RRGlxeRzWZ47LHHbE9qBln9w+L5+1C/89hWB1LCjM2bN9Pc3IwGnDlh9CFDto8VmqbRE42zp70XgLqRJbLbeIxcRdc15k6ppTjoI5nO8uKKzaTyKP8P6Cvw9vom1mxvAcQvMG5UGW6nk9PHjgDsXcQEoyvCXDd3MpoG69Z9wB//+Ee7mY0Ms+l3wPjksS0D+CuQbGtr44033gCgdkQxlcWB4zLd7EHtT6Z5bfUOFFBdGmJW/ahj0itMpagsDnDlmacBklO4envLsGUVS1hagsdfWU0ilaE0VMh1c6dQUeRn/GhJoW/tipJIZvjUnPFUl4VIpVIsXLjQXv1Z4L/IYxm4oyGfBAAiu1ozmQzPPfccqVSK0lAhcyaOGVqrCt7fsof2nn7cLgefO38KRYFj8DEomDmuWnz0puLllVulgMUwpolpmsbq7S2strjAGeNHcdWc8dYWL7y7aTejK8Jcc84kQOz+p556yr59LfD4sHXuEMg3ATQDb4CYNM3NzeiaxnlTavEd5P0aVCd1jd3tvby4QopmT6qt4PPnn26Fhh0aSkGg0MNVc8bj0HX2dkZ4ddX2YcleHghNkzT5p95YRzKdpaIowM2XzMDjctLW3cd7m3Zzw4VTKQn6iEaj/OIXv7A1/yTwayTc/oQh3wSQAf4EpJqbm1m6dCkgIVOjy8OoIZheWcPkT39bz9a9nTh0nX+68HQumzXOygz68PdNpaipKGKc5V9ftbWZ9p7+YU0SzQ2qptGwtZl3NjShaVi+f3hjXSPVZSHmTTsFgKVLl7JkyRL7thVI0McJRb6KRQ9EArjGNM3iVCrFZz/7WYJ+H33xFCu37D3uRu2iyvt6+jlz/GjCfi/TT60iGk/R2NYjvv0Bk6trGp+aM4FzJtfQn0jzq+fekaziE0AAmgapdJbmzghnTRyD3+shlkzz8sptfO68KVSVhmhpaeFrX/uanfPXC3wTibEcCJ39h1Yp8lgj2MZwEEA/UtP2jFgsxuWXX05lZSVej4vXVu8YUtaQpmns7eiltz/J6WNHEPZ7OWP8aEaWBGnriRKNp0hnDUxTEQ54+do1Z1EaKmR7SyePL11FKpM9YVVFNE2jMxIjlsxwxvjR+DwuTj9lBFUlIZRSPPTQQzzxxBO2HvMq4vYNIsfUTQLmAbcgZfi/AExAFO19iLKYFwwHASiEC1wXi8XcoVCIiy++mIDPw+bdHexs6R7SJCil2NHSTVmokEm1lTgdOqeOKuOCaadIJJLLSaHXzfjR5Vx55mm4XU6WNmzjtTU7xJtI/iuXH76vYnmECguYVFuBx+VE0zRWrFjB3XffTTQatb/qAz4L3A58GZn4a5Ey/KdYn3Ot74SRCKG8nEg6HAQAwgUuAEZFo1E+85nPEA4F8RW4WLZmJ9njDOgAQNM4d3INX7p0Jr4CN/F4nHQqRShQyNiRJZw/dSyXzarn3Cm1+L0esobJrrYe6iqLKQkWEk9l6E8MTxHrQ3SV6rIQ1eUhJteOwOnQyWazPPzww7zxxhsDiz4FkZpLRU6ns9Dv97sqKiq0U089lcmTJ1NTU0MmkyEajXqQMxD3IQdPDr2Pw/j+twEPeTwex8KFC7n55puJxJJ88+HFrNrafFxl3ZVSzDptFD/40sVUFgeIRCJ8//vfZ9euXdx6661MmTKF8vJyvF7vh454A1Ekd7R0seBPy3lnY15T7D4EXdO4ZNY4vnL1HEYUBw4guM7OTlatWsWbb75JS0sLhmHgcrkoKyvjtNNOo76+noqKCoqKivB6JUG0oaGBG2+80Y4TfBcp0zvkMwaHkwBOAV4Gas877zz+8pe/EAwGeen9rfz7714edDk5Uykmjqng3lsvobaymFgsxg9/+EN+9rOfkc1m8Xg8VFZWUlNTw4QJE7jllluYPXs2INnEsWSasL8Ah67T2hXlnt8sYc2OlmGxCkxTMaO+mp/edgXFAS/prMHufb309ic4bXR5rtbBfhw6VzwXwaZJmbibb76ZJ598EiRJ5DzykCg6XCIARLOtAM7p7u5m+vTp1NfXUxLysWZ7C61dx360iqkUNZVFfP/mixhXXUYqleKBBx7gJz/5Sa50mmEYRCIRmpqacLvd3HLLLdaZRUkefPZtFi5eQSyZYWJNBWG/l+KgjzfX7iRjDEEcHQYet5OvXj2HSbWVxJJpfv2Xd3ngmb/xwrub2by7XSKSlcIwFJmsQSpjkEhniMYlc7hpXy8fNLaxp72XiuIALqeDSCTCQw89xN69e0Eys38LRIfW06HlBh513oAngVui0WjlggULmDdvHkWBADddPJ3NuztIZrJHHXxTKcrDfr51/XlMrKnAMAx+97vf8eMf/9jOmT8A9fX1zJ8/n9GjR5NIZXj0hRU8+7cPMEyT3/z1PSqK/Vx15ngmjqmgqjTEtr2daHlMYjCVojjgY1JNJQCrtzWzaNm6nAXy5tpG3t24m4DPg9/rocDllFgHwySZyRJLpFHAjHFV3H7Vmfg8LgzDYNGiRaxevdp+zEYkM3vIyLcj6GDkNjaWL1/Oiy++CMAZp43m3Cm1R3XlKqUIeD185eo5zJkwBqUUzz77LPfccw+x2P4ce03TCIVCzJs3j//4j/9g5syZGKbiz29v4Nk311tHzenEkxleWbmNrCFZwqPLw/k3rK3iEYUWm9/W3EUqnZWEEMSrmTVMuvviNLX1sHlPOxt37WPT7nZau6KUF/n56jVz+PebL6JuZDHpdJrHH3+c733ve/bZyd3AQ+QpS3g4OQCIqfIfwLWxWKz6Zz/7GXPnzmXEiBH88+Wz2NS0jz0dkUPKYaUkEuimi6ZxxRmymbNs2TLuvvtuurq6CIfDVFZWMmbMGKZNm8ZVV13FpEmTCIUkNv+11dt5dPEK0tn9tr+mQYEVXKppGm5X/l9fAU6HI6fkmqachJrOGjkzFIQQ5EBMN0UBORBz3tSxnD2phiKrMkhbWxu/+tWvmD9/vm0yphF38Wv56u9wEwDIBtFC4AcNDQ36ggULuPfeezm1upR/+fQc7vvD68QOMsskGQQ+fdYEvnjJDJwOnXXr1nHnnXfi8Xj49re/zbXXXsuYMWMoKio64BziSCzJKw3b+PXz7x5wjp9pxQXcdNE0nA7digwejsKWyspgFub6mXMmUV0WZsOufUTjSUyr6FVpyEfdiBJGlYcoDRUSKizIJb/09/ezbNky7rvvPlasWGFHCCeAh4H7yJMPAE4MAZjA74BPm6Y589FHH+Wcc87h8ssv56IZp9LZF2fh8+8STaTRNQ2FnPd34fRT+crVcyhwO9mzZw933nknxcXFPP3004wbt7/catYw6Ykm2NcTZf2ufaJoNe0jPcA1bJqKypIA3/zcXCbVVlrThFVz4GjHVQ8efp9HAkGQJJlLZ43j0lnjjnhPJpOhubmN1atX8+ijj/Lqq68OFHPNwP9FjuU9aQpEDAZ7gP8D/L6joyP87W9/m6qqKqZMmcIX5p1OccDL40tX0dYdxVfgZt7Usdx6xSzCfi/d3d185zvfoaGhgWeeeYb6+noMU7GjuZONTftYtbWZLXs66IjEiMZTGIZpKXUSROrQNSbWVvD1z5ydy7sDchU88w5LB3A6HKTTadasWUMgECAUCuF2u9E0DcMwSKfT9PX10dnZSWNjI8uWLWP58uXs3r2bZDI3x3Ek9/JepDpY3tPDThQBgFS3eBD47vr165133HEHjzzyCJMnT+by2adx5vjRtPfG8Fv1fZwOnZ6eHn7wgx/w5JNPDjwxA1Mp1u1o4U9vbaC5s494cv8B1Lqm4dA0fF4XI0qCnH/6WK49dyJlYT/ZbJb29nYqKytRiBmWb9gFoTQNuru7ue2222hpaSEcDuP1euWQyGyWRCJBLBajv7+fRCJxcJX1KBIb8BDwPOJZHRacSALIAA8gDqJ/euedd7Qbb7yR++67j3nz5lEcLKTYCts2DIMNGzbwwx/+kKeffhrTNIlGozz44INMmDCBsrIyPjt3MhfNOJV9Pf00tnbT2NpNJJ7E43JSVRpi/OhySU4pLEDTNGKxGH/84x957733WLBgAWh6XpJXPzSgTp0xFWEAotEoHR0duc8RkEW8es3AaiQZ9F3y4Ok7an+H+wEHoQf4n0il8as/+OADxw033MAFF1zAddddx8iRI4nFYrz55pssWrSIPXv22JOUBlzPPfeclk6n+e53v8uUKVMI+wsJ+725nLpDIRaLsW7dOhYsWMBTTz3FJZdcgqZpwxYY4nY6cuXjIpGIneSRBNZj6bfIhCcQZ1kz4tdfa/3eTR4LQR4NJ5oAQJJIbrde9uZoNBp67rnnWLx4MS6XOD0GHIxgIivit8CXDcOYunjxYt5++23mzJnDNddcQ319PeXl5fj9fpxOp5yzk0jQ0dHBxo0beeaZZ1i+fDk9PZKbN5ybQEpJjf+QX8y4np4eW57vRrZ0OxDvq4FwxAx53No9HnwUBADiyvyfyF7BncBUwzCKDMOw02YTCIE8j+gNTcgW6E+A83t6egpefPFFlixZgtfrJRAI4PP5cLvdmKZJPB4nGo3S39+fq2RutaspOVCA4YgMtRNZbV9/V1eX7a2MIp67YU/0GCw+KgIAYeuLkVDyOmAqUIvUw/8AK8CU/exwLXA98GngS8AE0zRLY7GYe6BX8CAYiNix2/qsaZouMfy0/B80raCwwJ3LZG5tbbWVuxQf8Uo/HD5KArDRjxRAOJYiCH1I1OyfkCNUpyBn6Y5CAiXcyEKMIcGVK4E3ga3A2UiomtSw08nVH84XFIpgoQev24VpGGzalKtMnuYEyvXB4GQggONBDElG3QI8Zb2Hi/17G1lEvg60rTKAMgwjp4k5tPyrgmG/F5fTQSIRZ+vWrfZ/pximEi9Dxd8rARyMLEdnsRnAzGazKNNEc5IrPJVPlAYLcehidg4o8drPScoBhns38GRCFjCyWavGkKbjK3Dn9YQTl8NB7Qg52b2/v9+u8Q+iBJ6UOsDHiQDSQDabzWKaJrqm4SvwDLnRgXC7HNRUytlGPT09A335eTvkKd/4OBFACsim02myWanxW1hw9LN7jhVKKQrcrtxWbldXl+0EMoEdH/XLHw4fNwLIpFKpnKMpVFiQt8YVUFjgIugTrtLe3m4/J4lVTfVkxMeJANJAOpVK5cKx/T533jyDdq0/n0ecQNu3b7d9ADEkjPukxMeJAFJAPJlM2qFVeN0uHHnzCCqK/F4KPC5SqVSuairiiMpL/N5w4ONEAEmgP5VK5ZSzQq87r97AiiI/LodOLBYbWOe3hZPQBWzj40YALclkkv5+2V73F0jgRj7cQS6Hg/pRUgSit7eXrq7cot9KHs/5yzc+TgSQBj5IpVK0trYCEPBZZVvzUMyy0Otm/BghgLa2NqyzFFPAUoYhqzdf+DgRAMCmdDptrFsn2w5BX4GUsRtio3LQUyEjrEKUW7ZsscVMG1Lv76TFx40AdgH9GzduxDQMgoVyOmc+AoMm1VYSDnhJJpO88MILtgWwHtEBTlp83AigCWjZtm0bPb29FLidXDZ73JD2BJRSFAW8XHP2RHRNY9euXbz77rsg7H8ReY7izTc+bgTQDry8fft2Vq5cCcDM+lHUVBYdV+VQhUQYXTJzHBNqKgB48cUXbR1jM8NwzFu+8XEjAANYHI1G4wsXLiSZTFJR5OeLF08f9CFSdpbPeafX8T+unI3TobN582YefvhhTNPMIOXeTloHkI3hzA4+WZEArti3b1/F7NmzGTt2LNXlYbr6YmzZ05E7a/BQUEjlUaUk4ePqsydy17XnUBL0EYlEuOeee+xiz28D93ASm382Po4E0A/4E4nERY2Njdpll11GcVGY08eOJJXJsqcjQiKVwVQy0UopqW6mSbhXdVmI86fW8Y3rzuVTcyZQ6HUTiUS47777ePTRRzFNswX4OpIYe9LjxBTLOflQByzWNG38zTffzM9//nOKi4vJZA027NrHkve2sGtfD8l0FqdDJ1hYQG1lEWeOH03NiGKKA14cuo5pmmzZsoUf/ehHLFq0iGw22wv8L+BRTmLb/xMIbgJiDodDXX/99Wrr1q3KNE2llFKmqVQynVX9iZSKp9IqaxhqIJLJpNqyZYu6//77VW1trdI0TSHy/iv840RZ/cPDC/wUSGmapurr69WCBQvUxo0bVW9vr8pk0so0TZXNZlU8Hlf79u1Ta9asUU8++aS64YYbVFVVldJ1XSGhZu8hNXv+7pTqj6sIsOFHWPZXgSKHw0FZWRljxoyhrq6OkpISkskkTU1NtLS0sG/fPnp7e+3t5BRyVM5TSPp760f9Mp/g+OACrgBeQdKyTPZX5Rz4MZBUrs3As4gIqeTvfBEN7LwDKEFWhReJsQfxZNl72nkrTHASIgBMBC5HKnWGEXmeQGL61gJvYR2UyREOc5px+wMAOmgV7M9ZUMg4tqDYBxgNC+864L5Zt/+SNBmcOAtAVQEjgEKE23RosEdH9Sng/Ue+ccDzJrc+xQcjPl9kPSuuxOmlVj1yF0fCQAKYgOTgVSPJm/YpD2nrhV+zrq/mowtx1jgx2rXT+ujsz+M7alz/jNsXIMG/WhjJXroNGIOMJwgxtQA/V4bnEU1P07DwTuve+aDhQjEbEUnnIQvSZfWhD1gD/ApJqYs1WJM78475nDMzwd/e934H+AZybsNtQKbhKAQwUGnxAfUIW2tEMmreQFheCLgD+DNwHSeW7bmQkqn/YvXvRCCLcL44g0rqMAAtCPw/4GfIYlqJ7Ak8g6S8hQGf5khh0/KM2+cDeFF8DRnj661nL0E8is8jiaXnA08gymuRdR8A3XEvyDxVAGUc4xwdbLJoCJu6A6E2HREFpyAVPq4GfoxscZ6oQMcypJDyKcCnEII86TDjjvn2fF4J3IzoE18F7QVQSVAaSvOhMQZLYWxYeJc1+coB2peR+j8m8EvgF0CL4VAZh6E5kYn9uvX5F4Tavj3j9vkpgJKS4+v3oWxWhVC/wX72txb4FjAZGAt8Brj/BI2tjugkJ4r9Hx+kZwXI6nUBSxX8CVR2gByOIlvEAMz88nzrNm0m8F1ksf0c+B6QGsC+szNun9+s4N81mZt/Q0TMUqzj+o4Xg3FaNCHyvw44HZmYgazRb12rRmrc9yCiZC+H1xn8wDigCpngduT0MTuPfhRQYw2MhsjTcVa/e/iw6VViXS9HWPdO6+Oy7k0iufqm1f9RCHHttq7VAqchcnr1gHYd1nuNRdhszHq3Rg7M+PEgihtAl47KmurwrgG5pDyg3Y6s8AZEfKQOlt0Nj9yFtdp/jVgtsxDH02tKHf+ew2AIwOYMcKB80YHZwP9GSpoXDri2F6kTuJAPR8bWIizvcmsSQAjlXeCfrN+fQJRTvzUJP0c4khM5Ws0eJQdwIfB9YJrVnoEQ0oOIo+Y/EU72BUS+uq3BPhO4ESGanyJE/Fvgn622g9bvX0P0I2U9vwOp2vUg0GeNSBLFHms8piu0ck1T7ePvfpRNv/jyYYZVGwVcZP3xjIJ9R/EmtVnvMgvJjq5G4g6PC4PxXBUj5hGI/LdX/6WIknMFsAnREf4VeBpZLT8C5lu/2wgiMu4LVuf/HSGg5xEuELMmehVSPsVWxDYgpthbiBPGxqcQZelMqw8LrPY3I6Lr28BIhJDsfpsIZyhHStv/3OrjGsTUA1GM/w9CGHGkWtcXrL/TVr/vAZzrHvseKFJI+nocmIMQx2RfIu4aqLAdhDqrD93ASxqw8jCa+wCusBLxSZQhHOu4cawcwAd8EbGTW5H8fJBVfD/CSn9rDbS90n+NHHrwKCIXVyOaMcB45ESMvcCt7JeLLoSDxJCVdidygsZriJi4FwmycA6YyDqEk1QAv7cm3N6H9yNm0b9Z92TZr0fYlUhcyApvBu5GdvFsG/8qROHaYE38Fuv/F1t9eho53OG/M4moHfv3EqLEfc1673NRPAv8cebt89eaGjGHgnTMfk1GIqJjL8d+YFQ7UkAqbM3JX46XAA7FATzAWchqOhsx+34L/BBZlQvZf7bNFQhX2GJdH8jmDeA5hI07Ec+ZXc3JjyhMaWsSbGQQyrYnyTxo0uzfM+zXKy5FCGoLsiIHBmH0I2x6zYD2bCirPc3qy7eAd6yBTSDc4KvWGN0/YPJtLEeOdy0HPge5FZqw+nE7slKLEWL4q4L/1BTTDIXmKMwljoatn7bJeSxIDRi34qEY5QcTgELY88NIgcJXEfZ+LcIW/xdSp8dAVuo11n3vYx0bexDSiP2bQJS50db/70Yovs5qbybCZY6Gg1/Vh5imIHL+UPXzO4G/DXi/g98XRFSsPujaaGR1dVj9HWO9g/2pZL/snYTlOW145C40SDmU+gOi39yMOGYUQiiLNI0LND1XNzh3kjzH7l/R2c+9Y0OxjQ4lApIIG7PZYDtSx2c5wv7tx/kRtgyiXB1O029BVlWJ9f0GRH7bsvU6RIF7DSmM+DbHvhL8iBIEIvsP5bBRHL2ufhsfDt4sR4g8hBDxodq2iTbIgOAaS4arGbfN70RXT6G0xcAlCCcZB/wEU7vSctd2W7cFOFCBPhKC1vcNhuiPOZQjKIrYoRvY7wo93L22u/hIlSxtdq0N+L5CRMMOREafgxyIdDGijP2EYyMCx4A2E8fw/cMhy4cnuMBqP4ZwlxQfXqF2oeG1HKIAhO3rn3H7/AQiDk2kCORExFp5CeGccWSBnIqYlofEGbc+YD+kFihCxOWGIbz3Ya2AgTtgh0OK/TFvdUf4XghZKUkOPBPXQFb7TcjqeAwx3+5GFMTD9evgPtjEN/Yw92jIahksYsiE7UMUwesP8fmC9fPHHGGjbID2vgrhol72a+87EAW0ELgBcB7OYsi6dFCaG3HEuRFOOqRjY4YSwBBhv3I16wiDPBuh1nYOrSekEKXyXxEfQAgpBWfDnnSND8cwRqx7QPSIokO0H0b2EgaLVkSpHYHsQZjs944e/DnWAlAuhHMaWKxfk8n/b+v6pYj5yMFEMOP2+SgUaGoOopNlgf9W0DOUBOehhC9lkCNhrkMG/1MIexu4SusRTRpEqbSzZGzCGzhwMUThOhj2xowLYZEDY+0NREm9EWGptyK7ZbY8dwGft/o3WOxGNsS+gBS13MgRTvWedtsDaJqma6KTdGmmiimnRsPDtr9fc4C6FNGD9iG6EErG4D8Rk3MqYirfhqmtnXHbfNWw8C5m3DYfpKzRNMR5VYJsFD12mLk/ZrVwqPFrf0MiYr5kdcyHWA5pZPL/DdGQ1yL17m05OQVh+68jK01DvIhzEZb+1wHPiCIWyAREo16PrPy9CMGsQDaL7kL8BJMRu9hAwrSuQrT8qYN8t4Q1GWdY7TyGOHa2I8TvRSa7GHg2vq8x5a+sK0LORogqXfsjJo0zbp+fBIKgLmG/WbkIW3nTAJOdaNyNmNizgKfR1YPA8hm3z+8HAmicjWwE1SBK+TeAbl075GxXIYSfPYQ4yVjj3t3wyF2HVAIHg37gO9Z91yLmY4dFAGXICnwDsbEH2tFnIM6bBMJmHdb304jj6JUB341bA3OmNTgvImLjX5GVk7QmPm0RyBcRvSKNiJ2fI/J1Kgf6FA5+30O9+0pkZ/SniKUyDyG+LCKDg4gYXJqKdKT8lXVBRISdh3DEhDXgHkSp7EIsnXsZsFc/4/b5YDqWoRs3WNfORSqrx6z3cyMiNop4Oe8DtU/TdN7/9Z3MvGM++8sRAMINf3+YOetFlO1uOFCmuqzPaotCjrVGfT/Clt+z/jatjtqevx9xoNsWZNXvtgYyZQ3MW8APkNV8sEm2A2HBbmQTaJtFJDut6ymEXT9vTcgaxDX8Y6tvlyGWRgPivbOJIIAQ7Jt82A9gYyfCUXZak9lv9Xeb9bwHgB0Oj88M10yOIqx5g0UovVb7W5F9/ntA/RdosYGbPa0NSxgx8zJ03WwB7TlEOY5bnwxi7vrY7yhzguYH3CNnXp7F1FIXXgSbNuG3nvs+QrwHfxqseXodiLQ2LMl7YIeD/Tt3aY5eG8+OvMH6/tGUKfv79jb1scBvDf6FiIfu3iG838D+HrI45Rlf/RWZdBrd4dCVUnb1UgNTywCq4dE7j/qQ6bc9CNa5VqB8iBPqSkRsjkfEjl0H+T4NHjSBo4V/HQp/1wGNA6Bz+OPVL0L0FBNxXa/4qDs7WMy44wGr1LnmRzyU5yJcrRrRC97tzxSw5be3D7rtfxQCuBTxsL3J/uPVvYjO8ENEgXwS2fQ56fP1joTpX3kQX08/iWChpYOoCJBpGBAk+nGDC9Eb7KjbrYhfoQnRDVKIrK75qDt6MuIfITlUIQpaHBEFBYgeEkU8b/8PsTjajvcB/8j4RxEB9rsUICafg/0ae3oojX6CT/APjf8PQIxFEUA3h3MAAAAldEVYdGRhdGU6Y3JlYXRlADIwMjAtMDYtMTJUMTA6NDg6MDUrMDA6MDD9f35mAAAAJXRFWHRkYXRlOm1vZGlmeQAyMDIwLTA2LTEyVDEwOjQ4OjA1KzAwOjAwjCLG2gAAACB0RVh0c29mdHdhcmUAaHR0cHM6Ly9pbWFnZW1hZ2ljay5vcme8zx2dAAAAGHRFWHRUaHVtYjo6RG9jdW1lbnQ6OlBhZ2VzADGn/7svAAAAGHRFWHRUaHVtYjo6SW1hZ2U6OkhlaWdodAA1MTKPjVOBAAAAF3RFWHRUaHVtYjo6SW1hZ2U6OldpZHRoADUxMhx8A9wAAAAZdEVYdFRodW1iOjpNaW1ldHlwZQBpbWFnZS9wbmc/slZOAAAAF3RFWHRUaHVtYjo6TVRpbWUAMTU5MTk1ODg4NR5BilEAAAATdEVYdFRodW1iOjpTaXplADQ4NDM2QkJIyry9AAAAXXRFWHRUaHVtYjo6VVJJAGZpbGU6Ly8uL3VwbG9hZHMvNTYvTnZ2Vm9RNS8yNDE1L3Bvc3RncmVzcWxfb3JpZ2luYWxfd29yZG1hcmtfbG9nb19pY29uXzE0NjM5Mi5wbmeXYX6TAAAAAElFTkSuQmCC;" vertex="1" parent="1">
          <mxGeometry x="40" y="80" width="60" height="60" as="geometry" />
        </mxCell>
        <mxCell id="Q_m5-7QkY2CdEUIhsvCV-5" value="&lt;b&gt;&lt;font color=&quot;#007fff&quot;&gt;Pagila &lt;/font&gt;&lt;/b&gt;Sample Database" style="text;html=1;align=center;verticalAlign=middle;whiteSpace=wrap;rounded=0;" vertex="1" parent="1">
          <mxGeometry x="100" y="80" width="160" height="30" as="geometry" />
        </mxCell>
        <mxCell id="Q_m5-7QkY2CdEUIhsvCV-6" value="payment" style="swimlane;fontStyle=0;childLayout=stackLayout;horizontal=1;startSize=30;horizontalStack=0;resizeParent=1;resizeParentMax=0;resizeLast=0;collapsible=1;marginBottom=0;whiteSpace=wrap;html=1;" vertex="1" collapsed="1" parent="1">
          <mxGeometry x="140" y="160" width="90" height="30" as="geometry">
            <mxRectangle x="470" y="260" width="140" height="120" as="alternateBounds" />
          </mxGeometry>
        </mxCell>
        <mxCell id="Q_m5-7QkY2CdEUIhsvCV-7" value="Item 1" style="text;strokeColor=none;fillColor=none;align=left;verticalAlign=middle;spacingLeft=4;spacingRight=4;overflow=hidden;points=[[0,0.5],[1,0.5]];portConstraint=eastwest;rotatable=0;whiteSpace=wrap;html=1;" vertex="1" parent="Q_m5-7QkY2CdEUIhsvCV-6">
          <mxGeometry y="30" width="140" height="30" as="geometry" />
        </mxCell>
        <mxCell id="Q_m5-7QkY2CdEUIhsvCV-8" value="Item 2" style="text;strokeColor=none;fillColor=none;align=left;verticalAlign=middle;spacingLeft=4;spacingRight=4;overflow=hidden;points=[[0,0.5],[1,0.5]];portConstraint=eastwest;rotatable=0;whiteSpace=wrap;html=1;" vertex="1" parent="Q_m5-7QkY2CdEUIhsvCV-6">
          <mxGeometry y="60" width="140" height="30" as="geometry" />
        </mxCell>
        <mxCell id="Q_m5-7QkY2CdEUIhsvCV-9" value="Item 3" style="text;strokeColor=none;fillColor=none;align=left;verticalAlign=middle;spacingLeft=4;spacingRight=4;overflow=hidden;points=[[0,0.5],[1,0.5]];portConstraint=eastwest;rotatable=0;whiteSpace=wrap;html=1;" vertex="1" parent="Q_m5-7QkY2CdEUIhsvCV-6">
          <mxGeometry y="90" width="140" height="30" as="geometry" />
        </mxCell>
        <mxCell id="Q_m5-7QkY2CdEUIhsvCV-14" value="rental" style="swimlane;fontStyle=0;childLayout=stackLayout;horizontal=1;startSize=30;horizontalStack=0;resizeParent=1;resizeParentMax=0;resizeLast=0;collapsible=1;marginBottom=0;whiteSpace=wrap;html=1;" vertex="1" collapsed="1" parent="1">
          <mxGeometry x="140" y="200" width="90" height="30" as="geometry">
            <mxRectangle x="470" y="260" width="140" height="120" as="alternateBounds" />
          </mxGeometry>
        </mxCell>
        <mxCell id="Q_m5-7QkY2CdEUIhsvCV-15" value="Item 1" style="text;strokeColor=none;fillColor=none;align=left;verticalAlign=middle;spacingLeft=4;spacingRight=4;overflow=hidden;points=[[0,0.5],[1,0.5]];portConstraint=eastwest;rotatable=0;whiteSpace=wrap;html=1;" vertex="1" parent="Q_m5-7QkY2CdEUIhsvCV-14">
          <mxGeometry y="30" width="140" height="30" as="geometry" />
        </mxCell>
        <mxCell id="Q_m5-7QkY2CdEUIhsvCV-16" value="Item 2" style="text;strokeColor=none;fillColor=none;align=left;verticalAlign=middle;spacingLeft=4;spacingRight=4;overflow=hidden;points=[[0,0.5],[1,0.5]];portConstraint=eastwest;rotatable=0;whiteSpace=wrap;html=1;" vertex="1" parent="Q_m5-7QkY2CdEUIhsvCV-14">
          <mxGeometry y="60" width="140" height="30" as="geometry" />
        </mxCell>
        <mxCell id="Q_m5-7QkY2CdEUIhsvCV-17" value="Item 3" style="text;strokeColor=none;fillColor=none;align=left;verticalAlign=middle;spacingLeft=4;spacingRight=4;overflow=hidden;points=[[0,0.5],[1,0.5]];portConstraint=eastwest;rotatable=0;whiteSpace=wrap;html=1;" vertex="1" parent="Q_m5-7QkY2CdEUIhsvCV-14">
          <mxGeometry y="90" width="140" height="30" as="geometry" />
        </mxCell>
        <mxCell id="Q_m5-7QkY2CdEUIhsvCV-18" value="inventory" style="swimlane;fontStyle=0;childLayout=stackLayout;horizontal=1;startSize=30;horizontalStack=0;resizeParent=1;resizeParentMax=0;resizeLast=0;collapsible=1;marginBottom=0;whiteSpace=wrap;html=1;" vertex="1" collapsed="1" parent="1">
          <mxGeometry x="140" y="240" width="90" height="30" as="geometry">
            <mxRectangle x="470" y="260" width="140" height="120" as="alternateBounds" />
          </mxGeometry>
        </mxCell>
        <mxCell id="Q_m5-7QkY2CdEUIhsvCV-19" value="Item 1" style="text;strokeColor=none;fillColor=none;align=left;verticalAlign=middle;spacingLeft=4;spacingRight=4;overflow=hidden;points=[[0,0.5],[1,0.5]];portConstraint=eastwest;rotatable=0;whiteSpace=wrap;html=1;" vertex="1" parent="Q_m5-7QkY2CdEUIhsvCV-18">
          <mxGeometry y="30" width="140" height="30" as="geometry" />
        </mxCell>
        <mxCell id="Q_m5-7QkY2CdEUIhsvCV-20" value="Item 2" style="text;strokeColor=none;fillColor=none;align=left;verticalAlign=middle;spacingLeft=4;spacingRight=4;overflow=hidden;points=[[0,0.5],[1,0.5]];portConstraint=eastwest;rotatable=0;whiteSpace=wrap;html=1;" vertex="1" parent="Q_m5-7QkY2CdEUIhsvCV-18">
          <mxGeometry y="60" width="140" height="30" as="geometry" />
        </mxCell>
        <mxCell id="Q_m5-7QkY2CdEUIhsvCV-21" value="Item 3" style="text;strokeColor=none;fillColor=none;align=left;verticalAlign=middle;spacingLeft=4;spacingRight=4;overflow=hidden;points=[[0,0.5],[1,0.5]];portConstraint=eastwest;rotatable=0;whiteSpace=wrap;html=1;" vertex="1" parent="Q_m5-7QkY2CdEUIhsvCV-18">
          <mxGeometry y="90" width="140" height="30" as="geometry" />
        </mxCell>
        <mxCell id="Q_m5-7QkY2CdEUIhsvCV-42" style="edgeStyle=orthogonalEdgeStyle;rounded=0;orthogonalLoop=1;jettySize=auto;html=1;" edge="1" parent="1" source="Q_m5-7QkY2CdEUIhsvCV-23" target="Q_m5-7QkY2CdEUIhsvCV-40">
          <mxGeometry relative="1" as="geometry" />
        </mxCell>
        <mxCell id="Q_m5-7QkY2CdEUIhsvCV-23" value="film" style="swimlane;fontStyle=0;childLayout=stackLayout;horizontal=1;startSize=30;horizontalStack=0;resizeParent=1;resizeParentMax=0;resizeLast=0;collapsible=1;marginBottom=0;whiteSpace=wrap;html=1;" vertex="1" collapsed="1" parent="1">
          <mxGeometry x="140" y="340" width="90" height="30" as="geometry">
            <mxRectangle x="470" y="260" width="140" height="120" as="alternateBounds" />
          </mxGeometry>
        </mxCell>
        <mxCell id="Q_m5-7QkY2CdEUIhsvCV-24" value="Item 1" style="text;strokeColor=none;fillColor=none;align=left;verticalAlign=middle;spacingLeft=4;spacingRight=4;overflow=hidden;points=[[0,0.5],[1,0.5]];portConstraint=eastwest;rotatable=0;whiteSpace=wrap;html=1;" vertex="1" parent="Q_m5-7QkY2CdEUIhsvCV-23">
          <mxGeometry y="30" width="140" height="30" as="geometry" />
        </mxCell>
        <mxCell id="Q_m5-7QkY2CdEUIhsvCV-25" value="Item 2" style="text;strokeColor=none;fillColor=none;align=left;verticalAlign=middle;spacingLeft=4;spacingRight=4;overflow=hidden;points=[[0,0.5],[1,0.5]];portConstraint=eastwest;rotatable=0;whiteSpace=wrap;html=1;" vertex="1" parent="Q_m5-7QkY2CdEUIhsvCV-23">
          <mxGeometry y="60" width="140" height="30" as="geometry" />
        </mxCell>
        <mxCell id="Q_m5-7QkY2CdEUIhsvCV-26" value="Item 3" style="text;strokeColor=none;fillColor=none;align=left;verticalAlign=middle;spacingLeft=4;spacingRight=4;overflow=hidden;points=[[0,0.5],[1,0.5]];portConstraint=eastwest;rotatable=0;whiteSpace=wrap;html=1;" vertex="1" parent="Q_m5-7QkY2CdEUIhsvCV-23">
          <mxGeometry y="90" width="140" height="30" as="geometry" />
        </mxCell>
        <mxCell id="Q_m5-7QkY2CdEUIhsvCV-27" value="customer" style="swimlane;fontStyle=0;childLayout=stackLayout;horizontal=1;startSize=30;horizontalStack=0;resizeParent=1;resizeParentMax=0;resizeLast=0;collapsible=1;marginBottom=0;whiteSpace=wrap;html=1;" vertex="1" collapsed="1" parent="1">
          <mxGeometry x="140" y="420" width="90" height="30" as="geometry">
            <mxRectangle x="470" y="260" width="140" height="120" as="alternateBounds" />
          </mxGeometry>
        </mxCell>
        <mxCell id="Q_m5-7QkY2CdEUIhsvCV-28" value="Item 1" style="text;strokeColor=none;fillColor=none;align=left;verticalAlign=middle;spacingLeft=4;spacingRight=4;overflow=hidden;points=[[0,0.5],[1,0.5]];portConstraint=eastwest;rotatable=0;whiteSpace=wrap;html=1;" vertex="1" parent="Q_m5-7QkY2CdEUIhsvCV-27">
          <mxGeometry y="30" width="140" height="30" as="geometry" />
        </mxCell>
        <mxCell id="Q_m5-7QkY2CdEUIhsvCV-29" value="Item 2" style="text;strokeColor=none;fillColor=none;align=left;verticalAlign=middle;spacingLeft=4;spacingRight=4;overflow=hidden;points=[[0,0.5],[1,0.5]];portConstraint=eastwest;rotatable=0;whiteSpace=wrap;html=1;" vertex="1" parent="Q_m5-7QkY2CdEUIhsvCV-27">
          <mxGeometry y="60" width="140" height="30" as="geometry" />
        </mxCell>
        <mxCell id="Q_m5-7QkY2CdEUIhsvCV-30" value="Item 3" style="text;strokeColor=none;fillColor=none;align=left;verticalAlign=middle;spacingLeft=4;spacingRight=4;overflow=hidden;points=[[0,0.5],[1,0.5]];portConstraint=eastwest;rotatable=0;whiteSpace=wrap;html=1;" vertex="1" parent="Q_m5-7QkY2CdEUIhsvCV-27">
          <mxGeometry y="90" width="140" height="30" as="geometry" />
        </mxCell>
        <mxCell id="Q_m5-7QkY2CdEUIhsvCV-31" value="" style="rounded=0;whiteSpace=wrap;html=1;fillColor=none;dashed=1;strokeColor=#007FFF;" vertex="1" parent="1">
          <mxGeometry x="130" y="140" width="110" height="150" as="geometry" />
        </mxCell>
        <mxCell id="Q_m5-7QkY2CdEUIhsvCV-35" value="" style="shape=image;verticalLabelPosition=bottom;labelBackgroundColor=default;verticalAlign=top;aspect=fixed;imageAspect=0;image=data:image/png,iVBORw0KGgoAAAANSUhEUgAAAJYAAACWCAYAAAA8AXHiAAAgAElEQVR4nO29ebRlV1kv+ptz9Xuv3Tdnn76pNpWGWIlJCI0RMRcZqEgUAb2KeCOgog+Ux+DlRR8jg8HN8CHyaOKTVvTdwRWMgtwICBhCSEJRhKRSqVRz+naf3fd7tXO+P9be++zT1WmqT85vjFPnq3XmmnOutb45v/l1cwJ72MMe9rCHPexhD3vYwx72sIc97GEPFxXkSnfgakTPyNgdvkDwBoDQ7d/FWaNaObk8PfnUpevZtQPxSnfgakQk2XtPOJl6HyHbZyzOOStl0n+9x1ge9hhrQ3AAAFP9YIpvy9LUbIA0a5e6U9cU9hhrE3BCUb/5LjSvv8OTiJwBnANUAJjrlRFEEOZCe/4p+J965Ar3+OrCHmNtBgJwRYMydw6u5gdt1kDNOuxoClIhDQCwkoOQygVwRdtbra7BHmNtAaFeBiMcQq0MapThahqEah4AQIMR0HoFXJKucC+vPuxA69nDHraPPcbawyXBHmPt4ZJgj7H2cEmwx1h7uCTYY6w9XBLsMdYeLgn27FhbgLcNn4QAIOCEgLesoRxkzzC6Ca5NxiJEHLvp6K8QkPDFr5xDlJQjbdZp3PAKgAqwmAvCOJgkwxm8EQDAZAVOvwXthR9d/G7sEIRSHzg3OOfsSvcFuEYZixDii/UOfJAQcuTi185BKJXBOdVOPQUpPb3lHWIhDcKuzPckhCDaOzDWMzTyYDmffXDh3JnjbSf6lcS1yligoqBSQn3bFkect2/eRlkAYBCzCxCzCxfQ00sPfzCsJ4dG7w/GE78uqdqAY9v3Lk9PnLzS/bomGasNTgiee+MfgylaZw1EOAMnFBwAZS44pQDnGPrh1+ATJZR++Z0AOMCYF6kADrguIIoA4wBzIdSKiPzzJ7B08Cjyh26F55FmIAA4pZ3ZiVEBhDPEzhxH/9PfuyLvIDky9pZANPo2cAZN1+/oHd3/L2az/l9Ky+nJK9KhFq5NxuJdU71jIbQ4DibKcBUNWnEZVjgJR1IRWByHGe8DIwScUIBQyAtnQUwDYm4Rdt8YiOtAXDgDc9/LIFZKELIzMG54NQCAEYLwzAtoqj6oRgOibaAeisNfyQEcqEZ64KuVwXYSaHoREYon+0Lx5L1UEOXmTa+BvHAGKlnYP3DgyKdUn/7u9NT49BXpGK5Vc0OXOKPMhVIrQ25UITfrUCpFKM0aZKsJrZyF0qxDMuor5RtVCPUyxGIatFEFbVQh5mdBm2UItQLE/OyqppRGBWKzBqVegVorQTRqUKolKLUSRLMJpVG5bI+9FrG+gbskSTriBhOo3/4rqL7qzWD+EPyh8N2Rnt73C6K4dZTiJcK1yVibgmyDPt99ZIOyV69JQfXpv0ZlVTdueBUgy3D6DqD6C78LKBoNRmJvH7n+5ndcqb5dm4zFr7zWc6VBBUFXdf0upvphDRz29A1CYPcfQuPm14LIii+USH4gkuoduSL9uxKNXjC2o9m9yOEPRY5Iihp1AzG44eSKhYESGDfeBat3PxRVG+gZ3vdeWdXUy92/a5Ox9oBoqu9mSkCd1Ci4KHXGGucA1/xo3P7LYJof/lD4t3v3HTx6uft3bTLWS1wUEkpFxe/fxwmFG+4BWuYV74/e5OUkBmGO/QwkWYn6/IHfIpReVgvAtclYL3FRSKkgKqovBSqA+UKebtG2/7ZoLspo3ngXQAX4w+G7g7HEyGXt4+VsbA8XB6IkibKqRkEomOoH53yVKCQtRdaJ9cMevA5UEAaSQ6OvuZx9vOYZi4OACQK4IIBTCi6KYFQApwRMlLy/0ZXH5FTwfkQZXBA867ske78FAVySV9XPKAUnApgggAmid68gej+UglHhcj8yeMvLAELAVV9H/AFYR5vD14PKqipK0qsuZx+vGsu74vOnRElOASuj7jzwcZephApwFB/y+17WYZhqvBdMVsGpgIY/BEf1AZxDnz8HEMAaOgwwF9bAQTCfDnAOq2cIbiACO2mCDB0BKG2ZtAhyw0fgCgIargvKXDiygma0DwBgKxqMSArh2dMAAMZZ0h+K3Lyd5+WMObbZnLYta8cp1KRb7hHiuZo4Oia3btruGQVTNEiKcie87+3stL3d4KphrOEjN7073j/4F9tdmHPOwTnHyI+/BS5K5zdicg5/dgEipQg++tUt6yZmE7RZR2LiOQRayanng1LKgoDTWKr/d+K9A7+znf47tlWYP3f6nsXxM49up/wqtF8R5yCWsWogrqVZOAWu+KDpgSFRlvtcx8mpPj0ZiEb79HAsrGg+1bYMq1YqVCr53GKjWpkH5xaACwrXuGoYi3PmcsbgChKYuHW3iOtAsG0EM9Mt0XB+UMsCwCFOPostTemcgzg21GoecrO8dd2OA4DAluVtbFDDIdgWGGOM71K7ZcxlrusYUoux2uKPAOtpUYQbiEEopOngwes/oEeiY7LmGwN4mFKqEkJFzhkLJ3oaOICKZRqTtWLhW0aj/mhufvaUZTSN3fTxqmGsNjKHfxb5A0dbczpWeGDV2+KITp1E74nHULznT8F8wa4aVm4i4OAgIIwh8J9fhtmoYe7lv7xSlHiNEN5et3i0XCti+Idfg3XjK9G46VXr6l0L34nHIT/3A0y/4ldh6ZFOPwnnrQhUsspEMvjkN+Bric/dwHUcZjUbOVUPgDYqK/VvIApBCLgvBEJAU6P7/hCct6z0tLP29DRJphPGkqKs7PcFQq81m81FfzD85ezC7KdKy0vTO+3jVcdYtqJBy86hGYrDn18CCIERiELPLcAORNEMRhFcGIcjq977lBQoUye9dZXqh5idgxvvA1P8kKdOwOkd88KJZRXMsiBU85AtE0opi1pyAKLrwp+dQ3ngALRaGXIp01qzUTBNhzx3Fq5Ph9CogZpN2NEeSIVlAICVHIBYzoNpfnAqwPIFEJo5BdcXhKEHEZo/ByucRFMPQV+cghlOwJIVuOKFpeQzxiyjXjsXjMUhlDIr8q9bJWzRnBAwSQHnHEYwhlpiCI3YABqhJAw9DE4FEM4hN6vQqnnoy1MIZKapQrIDMW3gz/Vw5I2FeOIjsy+c/EfOmLXdPl51jAUAcqMKy6dDqZUBSuHKKrRqAVSU4ah+qLUijHDSm0NcF0IlD6r44DIXQjEDrukAB8T8Algwtko8iUYdsmlAreRhBiKQXRe+UgbNRD+URhVaKYNCV1/EWhGcM2/vhmYJripBKHuMRfUAhFqxo0kSAGqtCIcQMEmEr5QBkTU4kgS1kgNXNDC2snbetZmXc1YtFs4mB0eYmJujhLmAsPIpV7nfOWD5Q8je/kaU+g/C0gJggrROO7L0CGqJIeSHboDUrCCycBap5x+DQsj+5MDIR/NL80/XCoVnttvFq5KxPKyNKlgvhkj35e4X1aHpygheW89G5QnZQB0l69voDobYKBpiXT+6abJRyR2juLx4nLGbHbGwKNNGBW4gCrKiL67QhCB93Z0oO27numdB5a0yvKs8BxNEmHoM6UN3ANzF4NPfgmUahXqpfHYn/bvm7VgvVTiWlamVi0/QRgXSwpnWVd7FrB5dty1UXQbSxeTboSlniE6fBGzTatYqn+HMbeykf9c0Y13rHsML7D+zTfPfuGVYyvjTIK3N4IAVvcdhDEXLAAP3rpB2Otv5acIZotPPQc/PwXGcyUJ68eGddu6aZqxr3WN4of0vphe/6bruojz3AsT0FHhL/LV/SmYTtuuCcOJpitxbc21Fa+UM+k58F9x1WTmb+Yfcwtz4Tvt2TTPWSx25hdnT5Vzmf8Cxmf7EVyFUcy3TAUfNtlC1V5S47YpCtZrH6JMPQ6vk0CiXvlnJZ/4Ou8hVvKYZ6yUuChGMJXTO+ILLXEtcnoF28jGAMVjMRdkyvIX5NsUfwKCWsxh98mH48/OwTGN+eXbqvtz8bG43fbuKtcKt8RIWhdQfjh4eOHjd+/2h8BtFQVTdYBxW/yEwAhSaTTjMXRVKs6ItrqcJZ4jMnUL/s9+Br5SBbVvpzNzMn2Zmp7ZtXliLq5Kx2t573vbgE+KlcMEbZXyt24RQ7x5CPQdyKymiXa5bV1pV31oaXsrXRn1pmyK8NDKyUm/3l2qVX1cvIWBo93F37EQFgcqqL5UYGLwjEI3fowWCb5BkJQgqwBy9CbVX/gYcPYKS2UTTsbHaDO+JOc6x4glgLqRmFYHcHJKnn0QgOwPCORq16tOZ2ek/W5o8++iuOtrCJWcsWdVUKghqW5Z7sUOr6daiUQMAwjlKg4fgKCpc1Q8QwJUUWHoETJLhSiqcA0cRyM55jCCraF53O9AKmbET/eCKD1wQ4fqDYL4ACOdQpk8BnKOeHITBGGqJAdiqD03OUY8kYPlDaAYTEHqG0PHhcQbjwM+AixIcxwaYA6ZocJMjAFr7wMcHoUw8C8BzimcPHAUXJbiSDEvV4coaHEmGpQXhyipcShGfeh4EoJxxXdMDG+0/QRWf3+cPhlVfKBw0G/WbNT3wck0P3Cyp6n5BEIMQROrE+tG88S5YYzeByT7UHQsVy/R4irnw5RY8g7zgWfqJ60BsVKDVivAXFqAVFqHUiqCOxVzHrdQrpe8UlhbuLyzN78hmtREuOWMNHDry28Fo/De2OuWBUDoGAKGFc14e4NqR3b0gIYCvkAZhHP5j3wLkLXIFOIeUmQexLaReOLa67g0WOqLZgGAaUCZOgNYr69yVa0WJlJ6GYBlIPf8knM0OHOiqRCtnQUVJ7x3d95e9o/tK6/sLMO5GCaFhUZKjtCflo1SQvSxvwEmNwth/C6wDPwvmC4ITAtNxUDIMsNagkJo1jD35MNRqYbW/lXMQzgDughAK13GMSjH/mFGvf2b27KlvO6ZxURIlL/ky5bqXv/qhUCzxrm2LgJ14/Nv+sUtR/lLXva1yFKACmOaHG+6B3TMG88CtcEMJL1QI3gzvMIalZs0zLRACzjmis89j3w++DO5YFnc9Hx/n3GHMNVzbzhBCzhYzy0/mFma+U6+UT4HzixqndclnLAIEIYjIj7wMRiiJ9riXKIVflnHtL8EvHZgvAOYPww3GwFUdXFI7a772W3M4R95swmZuV7QGQ3j+NAhzUUgv/j+2af47OCD7fQXuukYps1wrZdIFx7YsfpEZqo1LzViUc65zSlEYvgHFges6f/BLMqD5ul7RHtZjZQYknYV3iwYAzlG2DNQdu2M14PC2BQhkpsCY6yxNjX+mVixc8Jppp7gcM1aYUQmOrHW5SAGAgXQlAWyGVkTV1UO3FQ54YgiXiQbaTmOPBoCyZaBimavXfYQgtHgWcqOCarHwaK1Y2LHV/GLg0htICemsZr21o+dP56zlV28rYJxvSHfPaFcD3R4J3ePhctMcQN22UTKNFUZrGzw5Q3TmJLhlGrZp/AsuMMR4t7hAxiJUkKTotkuv+b3uPxvQ3XPc1UC3P2w72ORK0IbrIG80wDhf5eMDAKVaQCAzDc5ZJr+4sK1NuyRZDkryVqr1znBhjEUg9u87/P7U2IFbt31La8QzcPCuT9bxWXV56T1cXPbgAKSFs1BfeHL1F9lmPZyvD03xKA4xMwvtue97qvwGZS4GbTg2cvUKXL7+3RHmInHuGIjroJLPPVJcXtxSDKp+PZoaPfBAKJlKblV2J7igNZai+fRoX/9d4Px1lNJ3F5eXnm5WK6vDVzk3vJfSFn3euoFxvqKdtyzExGpCe/Z7sPoOwuk/AC+16SKJMw6Au5CWJqE//lUI1QKYJMMauQloq+67FYWMQVyehP6DfwKtl8FlFebYzSCi3FUHLojmACzXQS0zi9TZY8jtOwojmAAnrbmMAHKthMjcC3Bsu2SZxv88r8ZHCO0dO3Awmuq7X1a1u4rL6c/l5mdnNy2/Q1xQtuXggSO/Gowl3i6r2oimB14ryjKtl4qnmes0W0VIfGD41xQ9eLA4eB3MYNy72MqF02UZlFLPIpyegv7EP0M99UNIy5NwQwm4oTjaeXPAioFyJ7RHcAi1IrSTP4D/iX+GUM6AOhbkudMgnMGJ9q0KLz5fnas8OISAODaUc8ehP/4VSIUlUNuENH8aQiUPN5wEU/1oh0YTkBXNboe0zRiqmTkMPPFVRKdOILg8BVsNwPQFPcs6B+JTzyI+9SzMeu2x9PTkp416rf0dVoFQqvYfOPxriYHhv/YFQ68VREm3zWalkF78AThfKzJ2hV3p+qrfryeHxt6QGBx+SFaUcFtn4pyzZq06Xa+UvmzUa9/PLcyeHr3x6IPBnv63TN55DwrDN4Bwb4SJRh39VgNabhbK5DMQl6e8WaVlaOQEMPfdAvPALXB6RsF8odboJC1NaQOtjXvilXCA2AZoOQMxMwtl5nlIi2dBjbqX8dyVfMc5AwvEYBx5BczhG+BGegFR9GokG9UPEM4glLOQ5k9DPfNjiEtnASJ0jJNeLxk4FWD37oc1cAh2/0G4oSS4pq/UfT5NkHNPa7ZN0Mw0yLmfIDB+HIJlePUTgDMXZjiFUv9B1BLD6H/mP6CWlzHz/HO/uTR1biU4jxBRlCQ93j90UA9H71A07Z5ANHYHQKn3ujmY6zZK2eVPTz330w/bprHeG7BDbJuxRFkWA5F4VI9EjgYisd/1h8J3C5IUJZyAk7Y65z0wc13HdZwK5zxDRSEuSHK83DMGI5SA1KxBNmoQjRpkswFqG4DrtBim1dhKdeCSCuYPwY32wYn1e1Znxd9yNneVdy1Qow5ayUMopSEWl0EM71RUOI5X9Ua2jZY85lQA0wJgwRjs3n1wo71gqt7aANdrg5h1CKVliJkZiIUl0EYZcOzWLEbWJ422U62o4CVSaJ7B04kPwg1EwX0BcGnN6aycgzgmaCkLsbAEobAIoZoHMZueK6blW11dPwUTRC+/kbusmEl/27Gsac64I0pSUPH5U7KmpQiQoqIYpNTz3a5ObuXgjFmNWuWxaiH/9/Vy6fHC0sKi69jbzszpxtaMRYgcjMZvSwyN/KLq89+paL6bJVkJYgcLf0qp2LXUbLW6w8mSc4C7AHPBJXUNY3EQ1/J2Qm5tYrt14uimDXn1cBdclLsYi4PYRqtuYWMm3fZzMO8H3HuWVb5LBmKbO3wOb3bzzDjMAkBXM+vOuui6TsNqNMabjdqjxeX0fxaW5h9nrrujWWyLt0OorKojgiT2ESKAEI+ZNkvp9i501cyB5Mi+uxL9gx+sxofVxeGfWV29KICol32zuWsC3HEA0wL4FlzBOWLZSSQXT8Fs1J8Zf/b4B5jtGKsWg7umCTgYc2yrZjWbO4rN2kIr5MwympMwsOs9w13bkjljDcoctRrsWc2FlILovtWzz0sdnAOOA94wAWVr26ZsVOGvZsCYa1QKuYeq+fx3WtPhFcUl/6LF5aV5ADVfowTKmSdS0JoqGQNcb2N+b1GP9TT4VUZ395NfXJpzwLLBGwbAPJdX2yq6Mc0Ry0zCX8vDMoxnGpXyN64GpgIuA2PVSoV5xty04JhQG6VVMxYBAMfp+g/W07uy+lxCmnf/JheP5hzcMIGm4TFOu+WuptfS/loePYvPg7uuk5md/vDS5LlFXCW45IzFGTNqpeIJcCBQzXZMAt6A4+C201rQdq0ldrkLy2VBt0HrYtDg4JyBNw1w01qJXiXoOtJuA5oxpOZPQDbrrF4ufTszO/nti/aMFwGXY3HjWM3GTzhnjr+yDIEzdNvTCWPgLsPms8Xl9ARuh+6+vMlg2AHNGQMaTXDTQsuAvq0cwFBpAdHcFFzHzpSy6b9yLGtXZoFLhcuyaqai+IRjmSW9koFgr2y31PEPmtYqv+HFFIUSAF2iUMiF1dPBRRKFHAC3bPBaA7CdNfl9OC+tNCsYnPgR4LpOOZv51PzZFx7DVYbLkqVTWFpYDERiJxWzdpdWL8BSfGivK0DgGTBdBogrNqML3RmZc6DPJ+L3xyIYUjnKXMQ/TpbwTLG56iPuGGTN713QnDPPlGDZAGMtj4JXpuM+2oSmzEZq/jlozRKMeu2JSj77RVyh0Jjz4bLMWOVcptSsVZ8groNwcaEz5QPwxCLngNVts7lwUahRgnfuj0A9ewzf/tLncZ3YxP95Sx/8IsXqnfQuryj0RJ/hzdKs5f45j8hbS0dzM4hlJ8Ac28rOz3xoeWbyqlmwd+OyMBZzXWdx8uxXmOtaofwsFNM7jWvVzGHZ4K2tdi6GKDwQVBApLuAbX/s35DPLqJQrCDTKeE1SX9O7yyMKOefglg1U6x2FZSuR101zAFqjiKGJJ0Etwyikl/77wviZ710tR/WuxWWzTFYL+ZONavm4YtURLM63FMEuDREADLMVPXrhWmFKFWFVinAdB7VqFZ/+5Kfx3e98Fwnfhe2mt2PtDxzcdYGGAd40OuL/vBrfBrRi1DA8/gRE22CNauU7haWFhy7sQS4tLp/Jm3PHMoyvwDat+PI5tJcFHQ2Rc++kU8tee+Ou6KzpQNKDIC1fX7PRgM/vR9lYG6J0CUVhe5aqN8Et2/PnbVPkddOCa6N/9mkES0uwms3x3OL8hwrpha23c76CuKy73zuWlQkne1+vuWa8HkjC0IIr0Y/tOd9xAEEAoe1U9p2JqnbMZc1ycedoLwb9IirlMm686Ubc9PO/iE+Ol2Ay3iWGdyEKCVbE3IY0wF0XvGGAmNaqWjrPuw26/f/ByWNIpM+A2VYtPT3+jsWJs49jU26/OnBZGctqNst6NJpQffqrRNcm5eggeGvvzFWKYEtDbMcsrSuwhm5vxy3YFrRaAWq9iLoawGTdwc8eOYRbbr0Fvv1H8PnpOqZq1sqHO0+dm9NAh4nQ+lubRssuZVqAYXouK6CrzM5oyhkSy+fQN/dTwLZqlXz2wZlTJ77E2br47asOF6bT7wIDh44cTA6O/Jvk0w9OHP55FBKjrbm/PeJbtEBB/L7WzNW6mXetOzi8gDvOIDUqCOTnEMpMw19aBmEunvuF34cjSpAFgqQkoOQw1JzWlokdPR47pzcBZxywbY+pXBcXbi7hiGWnMHzucQh206nksn87/fyz9zVr1St3VvAOcNl3m1k8d2ZSltWPJ4dHP9U/fRyEuXBEGRC9LF/WfT5NowyqyhDAAMZArSYEx/DOfjZqUBolqKUMZMM7NYRxDtcfQrHvEFxRAiEENuNYMFsbu65ZVK+aebZLt39z7xpvOY47Nim+ftOTndIcQHz5HIYmn4LomChmlj+/PDNx/7XCVMAVmLEAQNODwQO33PZdXyB0KxNEeOYcT+xxIqw6+IgQgLp2xwbEmQvKOWRKIIgCVFWDHgohmerBLUd/Bt83ffinPDo7rOxO3G1D/DIG2I43S7lrGAq7S4jlAAhzEctNY2j8hxAsw6kV89+YO/PCvZV8ZlcboF0pXJH9sZq1SqWczXxY9emfE0CiyWQclHiGy1qttmZ/CgIt4IckSQgEA9B8foRCQcRiUcTjCfSkehCLxxAMeooAXa7hG0/Noc5afpNuQ9BFoLnrtkSe3YpYXaN8ACDYJc05EsvnMDD1Y4i2iVqp+EhmfvY91xpTAVdw47XZF577hqL5/jaS6vvfY/G4+Kv33AO/3wfG1tv7CKUghEBTFeg+H2R59dFv3fb6G2M+3J7w4bvL9dY336XIa9O8tX5ynY4R19s74cJFXpsGIaCOjcGZp5FcfB7UdVg5l/n84sTZD5Zz1x5TAZdZK1wDJsryuKL5XlarN8YYYxjbtw+qqkGUpFU/giBAFEVwzmHZNhzmLcLX+vwIIZAogSRQfHeh0hWCss0ZqR1xAHizkeN6i/Euv1476YN0ZQpdEA1AMaoYmv4xEukzgGM1KoXcl7JzMx8oLi/lL+0nuHS4koyFerlU5oz/1BcM/Xomk/UTQjC6bwwA6cw2a5c5AOA4LizLhuU4Xpo5WW0HGvTLOLZcw5LRFTVwPqZqVd5ZN5mW57u0bE/D62iFqzNbLjSZlgPQK1mMTDyBSH4W3LEa5Vz2b2aeP/EXlUL2glOwriSuKGMBQL1SysiqOqlo/p+bnp7RBUHAwNCgl8hK2hMJWUcDgOty2LYNw7RgWCYs24btuOCMIaUKeDJdQ9NxW1k3rBMKDdf1ZiPbBrcsLxbKML3fjuNZyDsmqK5jRMjK7wsVf6JroWfxNEbPPQa1UYZlGvPp6ck/nHvh5P9rGc0dnQJxNeKKMxYANKqVc6pPr6s+/ysW5udVgKN/YACiJKGt4pOOFX493U4UZYzBZQy24yAkAsVaE2cyNc/p2/mxvd+OA7guCGMgrXVdO0O7Leraqetr6XbZnYs/gDAGvZbH4OSPkEifBnUsq1mrfj87N/2/LY2f/ZbrOmt9WtckrgrGYo7DLMt8noAYqh547cz0DDGaTew7cKAzcwFbWwLayyRCAIEAQ7qM5/MNZA0H7Zxa7wasMX62b27R2JzerSjkAETbRM/SCxieeBL+ahZwHaewvPTQ8vTEBzIzU89erZEKu8FVwVgAYDUbdimz9JSsqkXV5799cWFRW5ibR19/H/x64LxicTPaLwu4PqLhiaUaGo6L9tqtW7TtlO5c24HGJzgW4pkJjJ57HLHMOKhjOc1a9Vh6ZuI9Myef+USzVr2m11Mb4aphrBa4a9vPCpK0KCnq0XK5HJqemobP50M0HocgCNhKLK4SkSAIKQISqoiThSaaDuss9DcTc9uhga1EIUA4h2SbCBfmMDT9YyQXT0E268xx7OVKLvO3+cW5/2N5euIYXkSzVDeuNsaCZTSdSj57klLhaUlR7zRMM3b2hdOwLAvJnh6omoqNtMXz0YMBBZpIcSrfgNUKSdlK5O1WFHIA1DERLcxhcOoYehafh9oogbuuUS3m/z07N/PnM8+f+GKtVMyvCWV9UYFsXeTKwR8MDwwdufE+PRx5G6FCMBKN4Y5XvBy33H4bdF1vzR4t2xMnIGRz2uXA8aUa/uqnaRStFd9ht6lru3S3KPRchhwCc6DVi4jkphDLTUNulAFC4NhWyazXn5g7e+rBWrHwlGNfXWdkeu8AAB0TSURBVNk0lwpX3YzVDds0Ksx1f+BY1hlF1Q7ajhOZnpoWzp0+A8e2ISsqVFXzIiDQFlMbi0VKCPp0GcO6jJmqibLldO7ZiShsT1cEHO0k3ER2En2zP0Vq4SRCpUUIlsFc112u5LNfL2Uz/1d+YfYTxeWl04y5V324y8XCVT1jdSMYS+xPje7/PX8w9HbF5+9jACKRCA5ddxjX33gDhkZGoCgyvAMw2rPVerHIOTBTMfGFU1k8nvaiIlYbUbGKbgUxgBOAMheyY0OpFxAuzkGvZKE2yxCtOggIGOfMqFenzUbjXwvLS/+SX5g97jrOSr7bSwjXDGO1IWu+vsFD178zEIm+QdF8NxBKZcYY9EAAY/v3oa9/AL39vYhEY/D7fdB8PghC67CmLhHpMOCRqSK+NlnEdL1lOmpxkeCYEB0bsm1AtOpQG2X4mmVo9TzUehECczqxCYwxx2w2zprN5lOF9MK/Z+emv81c95oJb7lUuOYYCwAkRZUjyVSfLxS+Qw9HfktWtSOCKKUIFXyiKEKURPj9fqiaBlFREA2H4NcDUFUVoixD9/tACFCvN3EuW8aPluvgRh2iY0F0DFDHhuDaEB0T1HVAuGdIBeeMMddgjFVs0xxv1ionHNP6z0ox90ytmE8bjUbtYiSCvBhwTTJWN0RRVMM9vYcD0ditqj/wKlGSb/UFgwcpFcS2/GsrX7wt11ahZf/q/He17OSMsWa9Om8ZxlnO2QmzXn+uWa+dzS3MnXYss3B5nvLawzXPWGtACSE+QZKigWj8pmiq76Dq8/dzzlIgNEwFIUrWPDIHwBmzOHMLACqEkJLrOMuVfHaxUshNGrXqpOu4Fc6ZAeAlodFdDLzYGGs9CBElWVElWZYVn0/2ol46m4ODgMCxHWY1G5bjOI7r2FZru8U97GEPe9jDHvawh2sNFJczvX8Plx2XffHev//wnYFY/J3g3KkUcg8tjp85frn7cKkQTfWN9YzsezcAVs5lvvJierad4rJm6UiKEkwOjzyg+PyvAQdkVYunp8bfylz3mg/F1fSg3rf/0H16OPp2ABBE6c7F8TM/D+CSHI17teOyiiNF8w+IkryftPLkVb9+WJCk8OXsw6WCFggERVG6mRBCCSHUFwzdQQVx22c5vthwWRmLUEHkHNTLyQMATgl5cZweQCmlHBDbVv5WcIV8/rtevLgiH7WzMceLCl2Rpbz7yksTV2a24C9Cvup6orUpiy9FXBHGWhGFLz68iKONd4Q9UXjRsCcKu3ExzQ3dRk+G8+09fmGicPvtXJw22tjCbLBaFPJLJ+4p1r+Dq86kcUGMpQWC4UhP752hWPIVjLObqCCkKCGq4ziLlNLxZrX64+zCzDcb5VKmOxlzp6JQ0wPxeP/gXXo4+grO+UEqCCnOucUZKxBBOF0vFn5USC8+USsV5nf7LIQQGu7pPRjrHXitKMk/L0jiQUKIDADMZTUOdqJeKv17fmn+0XqpmNmsnu68ws0wcPC6V+rh6Fs548tzZ5//dKNS3mpHGRrt7T8Y7x96vSCKv6Ro/iOiJOmMuY7ZbEwyx32ikF74WjmXOW7UaxcUvaoFgvFQPHk0lEgeFQRxkHMu26b5/NRzP/0717G3bW/cFWMFojE1FE/eEenpu0/1+28WRClKyKqjQG/gnN8diMRq4WTPyXIu+7lidumrblcCw3YiLfVIVI8PDN0djMTfo/j9RwVB1NvttMPTOeevD4QjlWhv/9lyNvNQtVR4ODc/s+0EUEIIwsneeKyv/13BWOKtkqyMUUFQ2zGBXTxyNBCOvSmc6DleyqQ/Nn/uhW8y1+2aKbYWhaIs08TAyM3JodEvyKo2xjlnVBS1cz956i83yt4hhMAfioRTo/t+JxiN3yup6kFKBbk7ll/RfFHO+a16OPKWZq3yeDmX/dTixJnHXMfZ0SwWSfWHA5Ho3eFk6o8UTTtCBTFMKRUBwHVdyzbN0uzp577EN9pnagPsmLEEUfQlh0b/MJJM/ZmkqKnuBATvoO928iYgCKKu+vU7ZFW7Qda0l8+fef5zrYJbiglKqdo7euBD4WTPOwRRCq9lxvah3IQQCIIY1PTArZKifkLV9dvr5eJ9zWplW/tKRXv7x3qGxx4MRGNvpISKnSycDTIxBFEM+oKh10iKepNt229dmjjznZWathaFiYHhscTg8EOK5tvvlSNU9ftvlTVNd2xrXTRqpKd3qGdk3wPBaPwtlFK507c1HEsIgSjLST0Se5Pi018pKvL9i+fOfMlsNraVyOELhpM9w2MPBCKRt4mSvPaEBQiCIAci0Z+jlH7ZZWxbde6IsaggqAeO3v6xUKLn7ZRS2eOp7n9Jl5hrncROAEEU9UhP7ztESbqNUBLcShT2DI8lIz19H4v0pN7WzioGAE7IyinvG9CiJPlCscR/23fzrWPjTx97q1GvnZe5escO3pAYHP6CPxi6FUAng3mz+j1GBmRVjcdSvW/NzEw8vjYLZzNRGOnp64v1DT7kD4Zu6y7DHCfn2OsP9E6NHrgpOTTyOX8wdCvvYvKtUvtlVU0mBoY/ISvavqnnn33AatRr53sHoXhyYOi6G/+nPxS+gxBCN6vfsa0S59tfz26bsSKpPjXWN/AnoXjy7ZRSGWhNVK2YctdxagCvAWAA8QmiGCSE0PYW1gRAIBK7wbtlc1EYSvTo0VTffcFY4te9p0MnIwacM2elHbTaCXuM3d4phlI9FH7N6I1H78/MTN6XX5rf8MWGk6lovH/w475A8Gjnu7XaYo7bAHgBhFjgnHLOg4IohIl3+nerabLm3W0uClW/rqZGxh7wh0Kv7i7jOk5teWbqM45prlq7hBOpeGJg6FO+QPBod3lCvDBql7EcodQA5xSch2nrXXc2RBFEORRPvGvkyI1LZ48/9TebfdPEwFAqOTz2UX8ofAdap5qv9J+DMdfijBuObc7mFuf+njN325G122YsPRR5dTje834qCHK3+LNNs9SsVR6pFvL/Vi3lpxnjTA+GUqFEzy+qPv3NsqYlCV+5wWOQzUVhNNX35kA0/nZKhRbzem/LbDQyzXr1q9VC7j+rpeIsIYA/GO4LxZP3aIHQ62VFia6Up1QPR97erMa+n1+af3htG5Kqqcmh0ff6Q+HXkE6nAHDG6pXyM41q5aH84twxxzZrlAiyHomOBWOJ3wpEY78iSLLOXdepFvM/ZqtCmDcWhaIkyX1jB94RjCV+h1Kh874Zc41SZumv09Pjj6JLs5UUVU0Oj73XHwq/cvXMx1mjWp1tViufyC/NP242GzlCqBiKJw4HIrHf0CPRN4mS7GuXFkQpGIjE79PD0W/USoXxte+AECJGUv1/qocib1y1PuYcVrOZbtarjziW+WOjXi+VcsvHq/ncujrOh20xlh6KJGO9Ax+SFCXeLfjqldIT6amJP8vMTj3VXb6cSWNh/MzX/aHwx8duPPpxXyh8NyEQ14rItfAFQ6lwMvUhQRSDnPN2EqjTKBcfmzzx9Dvr5dKqhystp7Fw7vS/JgZH7ugd3fegPxR5dZdYDEZSvfcVM0vHytnMKm2xb9/B2wLR2B92b+Dhum6jnM9+curE0x+2jOYqzapSyJ1enDj7SCievDmcSL3abNbn09MT/4oNTB2rRCHndPDITW+O9g58hLQWwq0yrFEpf3nyxE8eXFtH3/5DtwWi0Xd1X3Mdp1bJZz87e/rkRxqV8iqNtFrInQXw9dTIvs/0jOx7UNMDdwBoi8X48JGb7p86+cwfNSqlVTP34KHrXxdKJP+ACoLc2S6AM1bOZf8xPTX+QHF5aUeMtBbbMpD2jO57naxpnhiDNxKbteqpzOzU7+WX5o9tdl+9XBpfnpt+d71U/FdwztqDeiMDqSBJYu/Ygd9WNN9AuwznHM1a9dH01MS9a5mqG4Wl+WOZ2enfq5VLT4Fz1j72RFa0I4nBkTd1lyWCIPsDod+VZG+Ga82erJLPfTYzO/XgWqbqRjmXeWbmhROfTE9PPIx1TLVeFMb6Bl8ZSfbeL8lysPt6o1J+LDc/82HXcVaJQEGUVD0UvleSlWib6RljTnF56a/S0xMfWstU3ViemXx8eWbynUat+lR3W6rff3fP8Oj+1V0lYiAW/yOhFX1BCAFzXaucy35x/uwL7y1l0hfEVMD2GIvKqvabVBA62oLrOoVievG+9NTEWde2z7ugy8xMzmYXZu83mo0T7Q00NhKFoXgyqoejv4quMrZpzBeWFu7Lzs9Mnq8N13FYenpiMr8w+17bNGfbEwYVBFXz67/b/ZyRZGq/LxR+zcp2RECzVj09/fwzHyqmF7eTJ7jJ864WhYRQOnDg8IdlVT3Yfd1sNtJLU+f+ND09se7jxfoHD/sCobu6ZjxWKxe/PXni6f+7lEmf14TCOWdms5F2HafUbgsABFGKMtcd6S4bivfcoAdX3gEANKrlx5Ymxz9YLeQKF8MttSVjyYqaCkSir+0sQzhHvVj8+uyZ5x/ZbiPL0xOn01Pj7+ecOSDdmuMKoj19B2VFPUpaG29wcJSyy59anDj79HbbWZw4+1Qxs/QR1/UWmRyALxi6KRRL3touE+8bvI1SmmoPadexa+V85gGjXrsoyacrYTOEKj7/SLeGZVtmOrcwe292bubERveGEz2vpYKQbJd3bXuxsLjwl9sxTIaTqb6+fQcf8ocjd3czhuvYBSoInYFJBUFMDY/eQwShE9JjGc3Fci7zwVJmadMZcafYkrEivf23UUHs2Hcc2yo167W/32nuXWZ26rFGuXwM2FgUMsZupaKotq87llnKzs38I3N3Zuirl0vftI3mSQAtAycVY/0Dd7YXqIIk3k4FQW6LS9u0TuXmZr+3kzY2xgZaYRfNXLdWzi5/JD09sdlp81SUpJ9rf3BCCBq1ylPLM5Mnt2o5muqL9u47+FE9HH1DK9AQnHtitF4ufb57vaT6dV0LBI92981o1L+dW5w/tdsn3/BhzvtXQqg/GB7zzAbeJde2TxSXF7d82LVgrmtZRvPfmOtaG4hCKsrSda1gOQBAo1p5vJLP7thFk1uYTZuNxuNAywhBCHzB8MuoIMoAKAE56L18AJyjVsp/r1YqXIRN+teHzXTTxUz6s5nZqc9bzeZmA1JUNN9t7VsZY06jUv4P5p5/t5pQIhlMDA4/EIrG39w2AwGeZaZWKjw88dPjHyll0p0ZLxCJBzkw0u4b5xyFpYVvNcqlixoefl7GIoSIsqqOtsyTAIBmrfZMJZ/dlT/KMoxnGHMb60QhIbKkqANtbZG5rmVb5vd304Zr21Y5n/kR563j5jiHrKopWVVVABAkaai91nNd17At64e4iI7sbjHEvb3jWSWf/fr4T499sJzLbmqsFCQpKataJ5SZuY4lyvJ5B3AgEo327Tv0sUiy913oMhl4C/HM3577yY/utW1zVZuxvn5dFKW+dj8ZY05mbubRHT/oFjgvY1FKqSTLetsQCgCm0Zha7SPbPsq5TI5zNNaKQgJQUZL19nXOmUNAdu1QruZz87ylhXIQcMZUKogiAEqooHZddzR/4CId1r1eFAKA0ag/lVuY/QDfwhUiKWoSLSMnADDXNQRR3HTB7g+Gff0Hj3w4EI2/hVDaEX+cM1YrFr6Um599YCMNVxBFSuiKuHRMo+Ju4E66UJzXjkVa6g2AlY3IvL2fdjXCbcuyALD1onAl5JID4ByMd6zru2nHs2S3javdTXRf5+BMlKWLtE/DelHIXNcqLi99Ynlm6vRWd7fXgO17XddtNKvVDfum+HVf34FD7wvFk39AaVfOAGesVi5+Z+LET95v1GtbOuIJARzP5HHRQ4/OO2Nx7p3H1y0KqSAEt7pvMyiapgIQ12uFHJ4Lu318CShA1N20AQCKTw8ToCMKAdBVNuzOdUJNw/BtWMku0S0KqSDI4UTPe+IDw2Nb3cfc1e4SSgVV9evrBr7q1/Xh6268P9LTe3+3xZwzzmql4sNTz/30v26HqS51pOt5GYQxxmzTzHWLQknVBqkg7CrcJpRI9hFCOiKPEOow1zE4545tmoWu6yIh3gJzpyCEIBRPjKGlcHAQEEobruNYAJjr2AXPyEtAKZWtZmNoN+1s0HKn/W6tUNMDtyUHRx7UAsF1UQPdsE1jnjPmtO8VRNHnuk68u4ykqPLQdTd+IJRI/qEgiPKK+OOsXil9Izs/+4F6ubQtk8FakX2xcf4ZizHHtswF7z/eNZ8/cET16bsa5aIs30SF9hoHcBy70ooOcBzbXmw3QwRBFkTplt20IYiSqkdjP9vekJYQwHXskm1ZDgDGXHca8MYJFQRZlORdtbMem2iFlIrBWOxNAwcO/4mkqJvOwsx1K0ajNt8xbAqCyhznaPvvkqLIg4euf0c4kfxzUZSC3e02qpVn5s6ees/yzMR5DclrsZNgy51iK5HGSun0Cc4Z64hCUbitZ3j04Bb3rQOhgk/R/G+llHZEYa1YONla1DLbMJ5ljDmkFQnhCwRfp/j15E7b6RnZNyQr6l3AisirlUvPtQPpmOv+mDHmoOUfC8USr/cFQ6mdtrMZ1mqFgGeFD/f03jd03Y3vWBMQ2Q3HNozHuo7Co4Fo/B5JVoKiJKkjN9z8J7G+gY9SQewwJ+ccjWrle9Mnn/mN0vLS7G77eSmw5VqpUsw9bZtmqSMKFTWs+P3/VdZ8214DSapKh6674dc1PXAQaPmmGHds0/gRWvHaVKDHXduqtAe+pKjhocPX/zd/MLztpE8qCKI/FH6LrGojADwnIOesks8eR+vYVqNeO85ct9Y2kAqytL9v36E3bVrptnF+A6koSr5Isuf9/QcOv3qzGizL/A/murX2vYrmu2ng0PVvGL3plj8IJ3o+KEqSr0v8oVmrPlFYWnhvJZ/d0Uy1tm+XAlsylmOZhUa18r1uV4Uejr65Z3h00xe0Fon+obFIMvXeTnyW5wfMccafaJfJLc5P25b1TNvGREAQjCbeHe7pvW277fQMjx0NRGK/1w6pJQSwmo1MfmGu005mZupp5jodf6JARV8wGn+/FgiObLedjbE2bIbDsaxGt7gRZWUk3j/0MUlW4htUgOzM1OOu63TMLFQQwpFkzwPhRM+HRUnuStfnMOq1yaXJs+9cOPfChu6h7eBKikIAQL1S+oLrOAXAe32SrCTj/UOf6R07cAelwnnriPb290VT/R/T/PrN3X5Ay2g+sjhxpjPSyrlMqZhe+AKwUkZW1YHk4PBnescO3rlVH8OJnqHk0OgXJFUdaQ9FxpjTrFa+2J4FAKBZr+bKucxX2rHbnACKpo0cOHr7/9czPHbTNl7Hlpq095s5M6dOvNsymtPt663F/M2HbnvF53qGx9aJ+UohN1/OpP+BM8ba5RWff0wQRb2rAZiN+jPpqfHfzMxOn1wj0ra9PdSlFoXbOpnCajSXA/H4zbKiXtd2qoqSHFL1wCt9wWDFte05s9lodt+j+HQ5OTh8XXJo5G/0cPRuQqngrcwJXMepLZw99cfVYn6m6xZuNBqT4UTyDaKs9LTbESQp6gsEXy3K8iRnLGs1m6sMjaoeUFPD++7oGdn3175g6HZPJHkhxLZpTmZmp+6vl4vL3e3okWhO1nyvEyU56k00BJKi9Gt64DZZ8+Vty1xwbNtuv30qCNQfigR6Rvf9Umpk3/vCydT1jmWesprNzjP7guFgMBb/LVlRe1oRmGzimePvU/2BWUXzvVoQRa0d4Skp8iilgmw26k9YxioXD/eFwsuK5rtbkpV4u3x3BKnRaJzNLc7/8dLkuafAORdlRQwnU329Ywfe0rf/8AfjfQOvbNaqT9qmsaFBtmd4NClK8u8LoqhwDtiWWVmemfw4LrIta1tmg2a9WilnMx9XNN8rZUVNto2lqs9/WJKVT6l+/deK6aV/LmWWxhljjh6J9kVSfa/Qg5E3KT7/foKVUBnOmFMrFr6YnZ9dt3eU2ajXyrnsg4rme0gQpGArpJkqmu9gamTfPwQisW8WM8vfKqYXTrX8mMnEwNB/8QVDb5BVbaQT8kwIXNe1qoXcQ8uzU+vcIkuT4+Oy6vuCovk+vGJKIVTTA7f2DI1+To9EH2mUSk9Wi/l5s9koRHp6D4fiyV9UA4HXSZKsc87BXWbUS8VPMsZaXogNI0jZ8uzUP4FgNDEw/BftwUKpIAdi8T9IDA5PVIv5T3f3LT15blKSlU/0+Pyf6F7ot8WWZTQXXccei/X2RUVJkfVIdL8vGP4lnx64g7SMpc1a9YVGtfy3W2XUXEpRuG171OL46SdESbovMTjyKYFSuR1HKgiCHozG3xgIR39l4OB1FucclFKRCoLoTeetmFNvGLNGtfzI9KlnH9isnZlTJ74qa9qNkUTqfVQQ5JWIUDkajCffFozG3zJw4LAFAFSgIqWC2I4CBVY0wUou8/n09MRnscGxbbZpWBPPHv9rVdd/QQ9F7iKcU7QC60RJCodiibcFo/G39fAxhzPOqCCIBKDtwHhCCPzh8C1UEMQVxvKwNpmiVsw36qXCA5KsjIUSPW+hlIqccwiCqMf6Bj/aqFZPLU+PP9oWTY5tO1Mnn/k7RfO9vLt8u85ANHZXIBp7NeecEYC2malbtIV7en9hYfzMF23T2NSxvJ38xwvBti3oruM4i+Nn/rGSz37WZW7LZYIO2xNKqSAIqihJ6sriucsnyDmrlUvfzs7PfqBZrWye8MmYVVha+HitXPyyZxYAeJfLB4RSUZJUQZRUQlqG2q4y3HWNaiH3cGZ2+v7zOcs5Y0ZhceG9Rr1+jLfFQHdbICBEEAVRlAFCu6+33kdt9Tpl82QKzrmTX5q/v1mrPMo5Z+0yoiSpPUMj98qqutou2CrfqJS/wZjrrNU0vbdNRUIp7b7e1hatZnNx69nqCmuF3TCbDWP2hefuK2XSn3TawWddneOtuOW1kaKMMatSyH1j5tSJe9OT57b0m+XmZ9Pnnj723koh90+cM2vF3bfiCtqIdh3HKGWXPz939tS7C+mFLUNhFifOnEhPn3t3rVR4dDv1t+HYtpFfWviX7tSv1sTIgBUR0x2zlp2bmc7Nz37QajbOdpcRRCneCulZhezczPTy7OR7Ssvpz7quY3W3vxkNwtGsV8ez8zMPOba1idN75QZCvKXJxuUuDDs+Vs42TaOUWX60Was8rgUCIyAk3EqmJCt5ha14bccxjGb96ez8zP1Tz/30QzuJ0nQdu1lcWniEc3ZSlJUBSoUYoVQgrfmbE9LOhGaObdfNRv3YwrnT71kYP/1Qs1rddlhPrVRM5xfnHxZlpSyI0iClVKeUimvzCsEYcyyrajTqP0zPTLwvPXnu37vr4YyxSE/qVlnVXgZCUC8Vjy3PTH0SXUOvWswvms3Gj4Kx+OupIAYBoFLIfyUzP/0fnLF1R87Vy6VKfnH+f9mmeUzx+SMESFJBkDvvoCXOGGOOZTTny9nMp6ZOPP2uci4ztdnzSooia/7AL4mykgLnrFEpfS23MPcv231f28WFCFka6xuI6uHozaIk/Zys+vZTUYgSQkTXcQqOZc3bRvOHjXrt8dz8bG6nkaCdRgSRxvsHkpoevENS1FdIsjIgSGKSc86Y65Ysw5h0LPP7zVrleHZuJrfbA7tFUZJTYweGBFG8U/XrrxIkqY9SqnLGLdd1clazMek69vdr5fLJwtJ8bq2oIYQgMTiyP5xMfYAQgmox//eL42ceX9cQIXTw0JG79XDsXs7cWmZu+oOFpYXzhu4QQmikpy+sR6M3SLL6y4qm7aeCEAQHXNfJGPXas67rfj03NzPZqJbPG56j+Pxicmjk7kAk/m7G3Fwpk/5oemp8x4GbW+Firt5kKggqIYS2sk8u1bEhIhVFHR5jXarzbSil1AdKRXDutNrZ7sDo3gXmPA0IPg7u7OZ4FUKpSilVW4GEDc75burwcQ4HfO94lz3sYQ972MMe9rCHPexhD3vYwx72sIc97GEPe7io+P8B2zjm6YmnEaMAAAAASUVORK5CYII=;" vertex="1" parent="1">
          <mxGeometry y="20" width="50" height="50" as="geometry" />
        </mxCell>
        <mxCell id="Q_m5-7QkY2CdEUIhsvCV-36" value="" style="rounded=0;whiteSpace=wrap;html=1;fillColor=none;dashed=1;strokeColor=#FF3333;" vertex="1" parent="1">
          <mxGeometry x="410" y="80" width="290" height="440" as="geometry" />
        </mxCell>
        <mxCell id="Q_m5-7QkY2CdEUIhsvCV-38" value="" style="shape=image;verticalLabelPosition=bottom;labelBackgroundColor=default;verticalAlign=top;aspect=fixed;imageAspect=0;image=data:image/jpeg,/9j/4Qw8RXhpZgAATU0AKgAAAAgADwEAAAMAAAABAZAAAAEBAAMAAAABAPoAAAECAAMAAAADAAAAwgEGAAMAAAABAAIAAAESAAMAAAABAAEAAAEVAAMAAAABAAMAAAEaAAUAAAABAAAAyAEbAAUAAAABAAAA0AEoAAMAAAABAAIAAAExAAIAAAAeAAAA2AEyAAIAAAAUAAAA9lEQAAEAAAABAQAAAFERAAQAAAABAAAAAFESAAQAAAABAAAAAIdpAAQAAAABAAABDAAAAUQACAAIAAgADqYAAAAnEAAOpgAAACcQQWRvYmUgUGhvdG9zaG9wIENTNiAoV2luZG93cykAMjAxOTowMzoyNyAxNTozMDoxNAAAAAAEkAAABwAAAAQwMjIxoAEAAwAAAAH//wAAoAIABAAAAAEAAAGQoAMABAAAAAEAAAD6AAAAAAAAAAYBAwADAAAAAQAGAAABGgAFAAAAAQAAAZIBGwAFAAAAAQAAAZoBKAADAAAAAQACAAACAQAEAAAAAQAAAaICAgAEAAAAAQAACpIAAAAAAAAASAAAAAEAAABIAAAAAf/Y/+0ADEFkb2JlX0NNAAL/7gAOQWRvYmUAZIAAAAAB/9sAhAAMCAgICQgMCQkMEQsKCxEVDwwMDxUYExMVExMYEQwMDAwMDBEMDAwMDAwMDAwMDAwMDAwMDAwMDAwMDAwMDAwMAQ0LCw0ODRAODhAUDg4OFBQODg4OFBEMDAwMDBERDAwMDAwMEQwMDAwMDAwMDAwMDAwMDAwMDAwMDAwMDAwMDAz/wAARCABkAKADASIAAhEBAxEB/90ABAAK/8QBPwAAAQUBAQEBAQEAAAAAAAAAAwABAgQFBgcICQoLAQABBQEBAQEBAQAAAAAAAAABAAIDBAUGBwgJCgsQAAEEAQMCBAIFBwYIBQMMMwEAAhEDBCESMQVBUWETInGBMgYUkaGxQiMkFVLBYjM0coLRQwclklPw4fFjczUWorKDJkSTVGRFwqN0NhfSVeJl8rOEw9N14/NGJ5SkhbSVxNTk9KW1xdXl9VZmdoaWprbG1ub2N0dXZ3eHl6e3x9fn9xEAAgIBAgQEAwQFBgcHBgU1AQACEQMhMRIEQVFhcSITBTKBkRShsUIjwVLR8DMkYuFygpJDUxVjczTxJQYWorKDByY1wtJEk1SjF2RFVTZ0ZeLys4TD03Xj80aUpIW0lcTU5PSltcXV5fVWZnaGlqa2xtbm9ic3R1dnd4eXp7fH/9oADAMBAAIRAxEAPwD1VJJJJSkkkklKSSSSUpJJJJSkkkklKSSSSUpJJJJSkkkklKSSSSUpJJJJT//Q9VSSSSUpJJJJSkkkklKSSULbK6q322uDK62lz3HQBoG5zikpeyyuqt1lrhXWwS57iAAB3c4rCyfrv0Kh22t9mURyaWS3/tyw1Mf/AGHLkevdeyOtZEma8Jh/V8f8l14/Oud/4B/25ZZW6f0vqHU3PbgUm/049Q7mtDZnbJsc36W38xUMnOyMuHDG/GuIy/uxdnD8Kxxhx8zPh7xsQhD+/N7XH+vPQ7XbbPWxh+9bXI++k3bVu0X05FTbqLG21P1ZYwhzT/Vc1cH0n6pXXZ78Tqzn4ZbULam1uYXWidj3V2EWs20ez1W7PU/TU/26HT+qZPQepWnDtGRQy1zLWDSu9rXbPUaNWst2j9Ha3/wSlOjzWWAic0QIyNXtKP8AeityfD8GQyHLTJnACVH1Y5cW3DkfT0kHEyqMzGqysd2+m5oex3kfH+V+8jK6DeockggkEURoQpJJJJCkkkklKSSSSU//0fVUkkklKSSSSUpJJJJSlz/14yX09DNTdPtVrKXH+T7rn/57adi6Bc59e6X2dEba3jHvZY/4EPo/6q5Rcxfszr90tjkq+84b/fH+N+j/AM55Tp3Q8rJsw78qp9XTMq5tbsnTUOMMbDXesxuTZtx679mz9L/xav8A1j61ZT1d1PSiMNuHUMN1lQALgNtnohpbsZVjO9lOxu9n6f8AwaB076xZAbg9Nz3tHTKLa/UeGxZsrO/HbbY52z7PTc2j1f0e/wBCv+un+tfSL8TrF1tbXW1Zm7JbsBe5sbG5HqMYC5tbbXt/S/zf6b01Q0GAnDe8eM/p/wDort6y5mI5gR+WfsxGuKXq/S4v8rwL9K69bdlUYfWgzqWFbY1gGSxj3VPcfTruY9zfo7n7bfU/wf8AmWVvrL0yvpfV7MekRj2tF1Lf3WuLmuq/q12Vv9P/AIL01LoHQcvqebUX0uZhVva++2xpa1zWnd6DN+31fWj037PoVqH1jf053V7a+m01UY1AFJFLWsY6xpcbrNtYb9FzvQ/6ymy4jy95P3hwGXzeP+CujwDmuHEa9BOWEP5oHi9Ev6mR6X6gZTn4GTiOJIx7dzPJto37R/11tr11K5P/ABfY7m4mZkn6Ntra2+fpt9x/zrdq6xX+Vv2IX2/D9FxfiFfesvD3H+Nw+v8A5ykkklO1FJJJJKUkkkkp/9L1VJJJJSkkkklKSSSSUpCysanLxrcW9u6q5pY9viHDaUVV7M/BqzKcG2+tmXkBzqKHOAe8M1sNbPpP2NSOuiQSCCNCNQ+Z9W6TldIyzi5I3NMmi6PbawfnD/hG/wCGq/M/4v00XpXX+odKsL6dl81spAv3OLa69xrppeHt9Kpm93sXpGbg4mfQcfMqbdU7Xa4cH95p+kx/8ti5vJ/xf4jnTiZdlDT+ZY0Wgf1TNVn+e96z58plhLiwn6XUg7WL4lgy4+DmRR/SNcUJ+Pp9UWhifWbC6jmud9ZKqzjsYPs1YrdbS18n1X2VRa59z2+m2qz0/wBF+l+h636XDx8F/UupOxelVFrLHudSx/FVO72Pvd7trK2f+kfe9dTj/wCL7Ha6crNssb+7Uxtf/Scb10OJg9N6RiubjsZjUMBfbYTGgEusuusO521v59j0Ry+bLQzUBE3e+SS2fPctg4jy3FIyAiI6xwY+H9Lhkz6bgU9OwacKidlLY3HlxPussd/Kssc56soOJmYudjMysO5mRj2ia7a3BzXCdvtc3+UjK8AAABoA48pGRMpG5SNk+JUkkkihSSSSSlJJJJKf/9P1VJJJJSkkkklKULXmup7wJLGlwHEwJU0zmhzS1wkOEEeRSU8RX9durO/xbP8ArSaqP2g2QGbXel/SBibtm/1P5t3+l/nFldey+s5n1w+qmb0uvH/amTgOtY2/d6DTZVY67f6Z9b0667LNiI76hfXJnSLPqnRnYf8Azfsv9QZD2vOU2re270fTa0U/zjfW2b/e/wD7U11+xb3X/qp1E5XR+p/VyyirO6LW6iuvL3muylzPR2PfVL9zG7/zf8L/ADlfppKa+D9but14v1hw+r0Y7Os9Ax3ZLTTvNFrfSffS/a53qbfaz1P0lf8AO/4JC6n9d+rYf+L/AAvrJXVQ7OyDWHscHGr3Oe1xDGva/wB3p/6RW+jfVHqDz1rN+sd1Vmf16r7NcMPcK6qPTNGyh1w+nsd+ez/Bf4RYjfqF9bsnp+J9Weo5uIfq9iX+obqvUGVZUHPcyna9vos+n/1n/SZHppKd36yfWPr1f1gxPq19XqKHZ2RQcq7Jy93osqBfW3Sk+pv31fu/6P8A63ms+snV+vfVX6x4GVXRh9Z6Sy6jNAa59Dqy23c6lpfvY99VV9f07v8ATf4T0q9236v5r/rzT9YQ+v7HV084hZJ9T1PUfb9Hbs9PbZ9L1P8Arao9K+p+dj5P1qOTdW2n6wucMd1cucxrxkNLrWPDG7m/avotf+YkpzfqLmdU6b/i1t6lvptqxsbJuwKdjgWmp2S+z7S8P/TNsuZu/R+j/XVnrX126rgfUbpn1hpqodmZrqG2seHemPUa99mxrXtf/g/31P6r/Vf6y4fQL/q11mzCHSnY1+PVZimx2RuyHPc+x77mso2Mbfbs/Q/6NZrfqJ9b83D6f9Xur5mG7oHTrhYbafU+021s3+lS4PaKm+x/pf8ABfT/AFn0klPoySSSSlJJJJKUkkkkp//U9VSSSSUpJJJJSkkkklKSSSSUpJJJJSkkkklKSSSSUpJJJJSkkkklKSSSSU//1fVUl8qpJKfqpJfKqSSn6qSXyqkkp+qkl8qpJKfqpJfKqSSn6qSXyqkkp+qkl8qpJKfqpJfKqSSn6qSXyqkkp+qkl8qpJKf/2f/tE/BQaG90b3Nob3AgMy4wADhCSU0EBAAAAAAADxwBWgADGyVHHAIAAAIAHwA4QklNBCUAAAAAABDRX8p60su8qVBOPLjulUniOEJJTQQ6AAAAAADlAAAAEAAAAAEAAAAAAAtwcmludE91dHB1dAAAAAUAAAAAUHN0U2Jvb2wBAAAAAEludGVlbnVtAAAAAEludGUAAAAAQ2xybQAAAA9wcmludFNpeHRlZW5CaXRib29sAAAAAAtwcmludGVyTmFtZVRFWFQAAAABAAAAAAAPcHJpbnRQcm9vZlNldHVwT2JqYwAAAAwAUAByAG8AbwBmACAAUwBlAHQAdQBwAAAAAAAKcHJvb2ZTZXR1cAAAAAEAAAAAQmx0bmVudW0AAAAMYnVpbHRpblByb29mAAAACXByb29mQ01ZSwA4QklNBDsAAAAAAi0AAAAQAAAAAQAAAAAAEnByaW50T3V0cHV0T3B0aW9ucwAAABcAAAAAQ3B0bmJvb2wAAAAAAENsYnJib29sAAAAAABSZ3NNYm9vbAAAAAAAQ3JuQ2Jvb2wAAAAAAENudENib29sAAAAAABMYmxzYm9vbAAAAAAATmd0dmJvb2wAAAAAAEVtbERib29sAAAAAABJbnRyYm9vbAAAAAAAQmNrZ09iamMAAAABAAAAAAAAUkdCQwAAAAMAAAAAUmQgIGRvdWJAb+AAAAAAAAAAAABHcm4gZG91YkBv4AAAAAAAAAAAAEJsICBkb3ViQG/gAAAAAAAAAAAAQnJkVFVudEYjUmx0AAAAAAAAAAAAAAAAQmxkIFVudEYjUmx0AAAAAAAAAAAAAAAAUnNsdFVudEYjUHhsQFgAAAAAAAAAAAAKdmVjdG9yRGF0YWJvb2wBAAAAAFBnUHNlbnVtAAAAAFBnUHMAAAAAUGdQQwAAAABMZWZ0VW50RiNSbHQAAAAAAAAAAAAAAABUb3AgVW50RiNSbHQAAAAAAAAAAAAAAABTY2wgVW50RiNQcmNAWQAAAAAAAAAAABBjcm9wV2hlblByaW50aW5nYm9vbAAAAAAOY3JvcFJlY3RCb3R0b21sb25nAAAAAAAAAAxjcm9wUmVjdExlZnRsb25nAAAAAAAAAA1jcm9wUmVjdFJpZ2h0bG9uZwAAAAAAAAALY3JvcFJlY3RUb3Bsb25nAAAAAAA4QklNA+0AAAAAABAAYAAAAAEAAgBgAAAAAQACOEJJTQQmAAAAAAAOAAAAAAAAAAAAAD+AAAA4QklNBA0AAAAAAAQAAAAeOEJJTQQZAAAAAAAEAAAAHjhCSU0D8wAAAAAACQAAAAAAAAAAAQA4QklNJxAAAAAAAAoAAQAAAAAAAAACOEJJTQP1AAAAAABIAC9mZgABAGxmZgAGAAAAAAABAC9mZgABAKGZmgAGAAAAAAABADIAAAABAFoAAAAGAAAAAAABADUAAAABAC0AAAAGAAAAAAABOEJJTQP4AAAAAABwAAD/////////////////////////////A+gAAAAA/////////////////////////////wPoAAAAAP////////////////////////////8D6AAAAAD/////////////////////////////A+gAADhCSU0EAAAAAAAAAgAEOEJJTQQCAAAAAAAMAAAAAAAAAAAAAAAAOEJJTQQwAAAAAAAGAQEBAQEBOEJJTQQtAAAAAAAGAAEAAAAHOEJJTQQIAAAAAAAaAAAAAQAAAkAAAAJAAAAAAgAAD6ABAAAZAAA4QklNBB4AAAAAAAQAAAAAOEJJTQQaAAAAAAM3AAAABgAAAAAAAAAAAAAA+gAAAZAAAAABADcAAAABAAAAAAAAAAAAAAAAAAAAAAAAAAEAAAAAAAAAAAAAAZAAAAD6AAAAAAAAAAAAAAAAAAAAAAEAAAAAAAAAAAAAAAAAAAAAAAAAEAAAAAEAAAAAAABudWxsAAAAAgAAAAZib3VuZHNPYmpjAAAAAQAAAAAAAFJjdDEAAAAEAAAAAFRvcCBsb25nAAAAAAAAAABMZWZ0bG9uZwAAAAAAAAAAQnRvbWxvbmcAAAD6AAAAAFJnaHRsb25nAAABkAAAAAZzbGljZXNWbExzAAAAAU9iamMAAAABAAAAAAAFc2xpY2UAAAASAAAAB3NsaWNlSURsb25nAAAAAAAAAAdncm91cElEbG9uZwAAAAAAAAAGb3JpZ2luZW51bQAAAAxFU2xpY2VPcmlnaW4AAAANYXV0b0dlbmVyYXRlZAAAAABUeXBlZW51bQAAAApFU2xpY2VUeXBlAAAAAEltZyAAAAAGYm91bmRzT2JqYwAAAAEAAAAAAABSY3QxAAAABAAAAABUb3AgbG9uZwAAAAAAAAAATGVmdGxvbmcAAAAAAAAAAEJ0b21sb25nAAAA+gAAAABSZ2h0bG9uZwAAAZAAAAADdXJsVEVYVAAAAAEAAAAAAABudWxsVEVYVAAAAAEAAAAAAABNc2dlVEVYVAAAAAEAAAAAAAZhbHRUYWdURVhUAAAAAQAAAAAADmNlbGxUZXh0SXNIVE1MYm9vbAEAAAAIY2VsbFRleHRURVhUAAAAAQAAAAAACWhvcnpBbGlnbmVudW0AAAAPRVNsaWNlSG9yekFsaWduAAAAB2RlZmF1bHQAAAAJdmVydEFsaWduZW51bQAAAA9FU2xpY2VWZXJ0QWxpZ24AAAAHZGVmYXVsdAAAAAtiZ0NvbG9yVHlwZWVudW0AAAARRVNsaWNlQkdDb2xvclR5cGUAAAAATm9uZQAAAAl0b3BPdXRzZXRsb25nAAAAAAAAAApsZWZ0T3V0c2V0bG9uZwAAAAAAAAAMYm90dG9tT3V0c2V0bG9uZwAAAAAAAAALcmlnaHRPdXRzZXRsb25nAAAAAAA4QklNBCgAAAAAAAwAAAACP/AAAAAAAAA4QklNBBEAAAAAAAEBADhCSU0EFAAAAAAABAAAAAc4QklNBAwAAAAACq4AAAABAAAAoAAAAGQAAAHgAAC7gAAACpIAGAAB/9j/7QAMQWRvYmVfQ00AAv/uAA5BZG9iZQBkgAAAAAH/2wCEAAwICAgJCAwJCQwRCwoLERUPDAwPFRgTExUTExgRDAwMDAwMEQwMDAwMDAwMDAwMDAwMDAwMDAwMDAwMDAwMDAwBDQsLDQ4NEA4OEBQODg4UFA4ODg4UEQwMDAwMEREMDAwMDAwRDAwMDAwMDAwMDAwMDAwMDAwMDAwMDAwMDAwMDP/AABEIAGQAoAMBIgACEQEDEQH/3QAEAAr/xAE/AAABBQEBAQEBAQAAAAAAAAADAAECBAUGBwgJCgsBAAEFAQEBAQEBAAAAAAAAAAEAAgMEBQYHCAkKCxAAAQQBAwIEAgUHBggFAwwzAQACEQMEIRIxBUFRYRMicYEyBhSRobFCIyQVUsFiMzRygtFDByWSU/Dh8WNzNRaisoMmRJNUZEXCo3Q2F9JV4mXys4TD03Xj80YnlKSFtJXE1OT0pbXF1eX1VmZ2hpamtsbW5vY3R1dnd4eXp7fH1+f3EQACAgECBAQDBAUGBwcGBTUBAAIRAyExEgRBUWFxIhMFMoGRFKGxQiPBUtHwMyRi4XKCkkNTFWNzNPElBhaisoMHJjXC0kSTVKMXZEVVNnRl4vKzhMPTdePzRpSkhbSVxNTk9KW1xdXl9VZmdoaWprbG1ub2JzdHV2d3h5ent8f/2gAMAwEAAhEDEQA/APVUkkklKSSSSUpJJJJSkkkklKSSSSUpJJJJSkkkklKSSSSUpJJJJSkkkklP/9D1VJJJJSkkkklKSSSSUpJJQtsrqrfba4MrraXPcdAGgbnOKSl7LK6q3WWuFdbBLnuIAAHdzisLJ+u/QqHba32ZRHJpZLf+3LDUx/8AYcuR6917I61kSZrwmH9Xx/yXXj8653/gH/blllbp/S+odTc9uBSb/Tj1Dua0NmdsmxzfpbfzFQyc7Iy4cMb8a4jL+7F2cPwrHGHHzM+HvGxCEP783tcf689Dtdts9bGH71tcj76TdtW7RfTkVNuosbbU/VljCHNP9VzVwfSfqlddnvxOrOfhltQtqbW5hdaJ2PdXYRazbR7PVbs9T9NT/bodP6pk9B6lacO0ZFDLXMtYNK72tds9Ro1ay3aP0drf/BKU6PNZYCJzRAjI1e0o/wB6K3J8PwZDIctMmcAJUfVjlxbcOR9PSQcTKozMarKx3b6bmh7HeR8f5X7yMroN6hySCCQRRGhCkkkkkKSSSSUpJJJJT//R9VSSSSUpJJJJSkkkklKXP/XjJfT0M1N0+1Wspcf5Puuf/ntp2LoFzn17pfZ0RtreMe9lj/gQ+j/qrlFzF+zOv3S2OSr7zhv98f436P8AznlOndDysmzDvyqn1dMyrm1uydNQ4wxsNd6zG5Nm3Hrv2bP0v/Fq/wDWPrVlPV3U9KIw24dQw3WVAAuA22eiGluxlWM72U7G72fp/wDBoHTvrFkBuD03Pe0dMotr9R4bFmys78dttjnbPs9NzaPV/R7/AEK/66f619IvxOsXW1tdbVmbsluwF7mxsbkeoxgLm1tte39L/N/pvTVDQYCcN7x4z+n/AOiu3rLmYjmBH5Z+zEa4per9Li/yvAv0rr1t2VRh9aDOpYVtjWAZLGPdU9x9Ou5j3N+juftt9T/B/wCZZW+svTK+l9Xsx6RGPa0XUt/da4ua6r+rXZW/0/8AgvTUugdBy+p5tRfS5mFW9r77bGlrXNad3oM37fV9aPTfs+hWofWN/TndXtr6bTVRjUAUkUtaxjrGlxus21hv0XO9D/rKbLiPL3k/eHAZfN4/4K6PAOa4cRr0E5YQ/mgeL0S/qZHpfqBlOfgZOI4kjHt3M8m2jftH/XW2vXUrk/8AF9jubiZmSfo22trb5+m33H/Ot2rrFf5W/Yhfb8P0XF+IV96y8Pcf43D6/wDnKSSSU7UUkkkkpSSSSSn/0vVUkkklKSSSSUpJJJJSkLKxqcvGtxb27qrmlj2+IcNpRVXsz8GrMpwbb62ZeQHOooc4B7wzWw1s+k/Y1I66JBIII0I1D5n1bpOV0jLOLkjc0yaLo9trB+cP+Eb/AIar8z/i/TReldf6h0qwvp2XzWykC/c4trr3Guml4e30qmb3exekZuDiZ9Bx8ypt1Ttdrhwf3mn6TH/y2Lm8n/F/iOdOJl2UNP5ljRaB/VM1Wf573rPnymWEuLCfpdSDtYviWDLj4OZFH9I1xQn4+n1RaGJ9ZsLqOa531kqrOOxg+zVit1tLXyfVfZVFrn3Pb6barPT/AEX6X6HrfpcPHwX9S6k7F6VUWsse51LH8VU7vY+93u2srZ/6R9711OP/AIvsdrpys2yxv7tTG1/9JxvXQ4mD03pGK5uOxmNQwF9thMaAS6y66w7nbW/n2PRHL5stDNQETd75JLZ89y2DiPLcUjICIjrHBj4f0uGTPpuBT07BpwqJ2UtjceXE+6yx38qyxznqyg4mZi52MzKw7mZGPaJrtrcHNcJ2+1zf5SMrwAAAGgDjykZEykblI2T4lSSSSKFJJJJKUkkkkp//0/VUkkklKSSSSUpQtea6nvAksaXAcTAlTTOaHNLXCQ4QR5FJTxFf126s7/Fs/wCtJqo/aDZAZtd6X9IGJu2b/U/m3f6X+cWV17L6zmfXD6qZvS68f9qZOA61jb93oNNlVjrt/pn1vTrrss2IjvqF9cmdIs+qdGdh/wDN+y/1BkPa85Tat7bvR9NrRT/ON9bZv97/APtTXX7Fvdf+qnUTldH6n9XLKKs7otbqK68vea7KXM9HY99Uv3Mbv/N/wv8AOV+mkpr4P1u63Xi/WHD6vRjs6z0DHdktNO80Wt9J99L9rnept9rPU/SV/wA7/gkLqf136th/4v8AC+sldVDs7INYexwcavc57XEMa9r/AHen/pFb6N9UeoPPWs36x3VWZ/Xqvs1ww9wrqo9M0bKHXD6ex357P8F/hFiN+oX1uyen4n1Z6jm4h+r2Jf6huq9QZVlQc9zKdr2+iz6f/Wf9Jkemkp3frJ9Y+vV/WDE+rX1eoodnZFByrsnL3eiyoF9bdKT6m/fV+7/o/wDreaz6ydX699VfrHgZVdGH1npLLqM0Brn0OrLbdzqWl+9j31VX1/Tu/wBN/hPSr3bfq/mv+vNP1hD6/sdXTziFkn1PU9R9v0duz09tn0vU/wCtqj0r6n52Pk/Wo5N1bafrC5wx3Vy5zGvGQ0utY8Mbub9q+i1/5iSnN+ouZ1Tpv+LW3qW+m2rGxsm7Ap2OBaanZL7PtLw/9M2y5m79H6P9dWetfXbquB9RumfWGmqh2Zmuobax4d6Y9Rr32bGte1/+D/fU/qv9V/rLh9Av+rXWbMIdKdjX49VmKbHZG7Ic9z7HvuayjYxt9uz9D/o1mt+on1vzcPp/1e6vmYbugdOuFhtp9T7TbWzf6VLg9oqb7H+l/wAF9P8AWfSSU+jJJJJKUkkkkpSSSSSn/9T1VJJJJSkkkklKSSSSUpJJJJSkkkklKSSSSUpJJJJSkkkklKSSSSUpJJJJT//V9VSXyqkkp+qkl8qpJKfqpJfKqSSn6qSXyqkkp+qkl8qpJKfqpJfKqSSn6qSXyqkkp+qkl8qpJKfqpJfKqSSn6qSXyqkkp//ZOEJJTQQhAAAAAABVAAAAAQEAAAAPAEEAZABvAGIAZQAgAFAAaABvAHQAbwBzAGgAbwBwAAAAEwBBAGQAbwBiAGUAIABQAGgAbwB0AG8AcwBoAG8AcAAgAEMAUwA2AAAAAQA4QklNBAYAAAAAAAcACAEBAAEBAP/hDaBodHRwOi8vbnMuYWRvYmUuY29tL3hhcC8xLjAvADw/eHBhY2tldCBiZWdpbj0i77u/IiBpZD0iVzVNME1wQ2VoaUh6cmVTek5UY3prYzlkIj8+IDx4OnhtcG1ldGEgeG1sbnM6eD0iYWRvYmU6bnM6bWV0YS8iIHg6eG1wdGs9IkFkb2JlIFhNUCBDb3JlIDUuMy1jMDExIDY2LjE0NTY2MSwgMjAxMi8wMi8wNi0xNDo1NjoyNyAgICAgICAgIj4gPHJkZjpSREYgeG1sbnM6cmRmPSJodHRwOi8vd3d3LnczLm9yZy8xOTk5LzAyLzIyLXJkZi1zeW50YXgtbnMjIj4gPHJkZjpEZXNjcmlwdGlvbiByZGY6YWJvdXQ9IiIgeG1sbnM6eG1wPSJodHRwOi8vbnMuYWRvYmUuY29tL3hhcC8xLjAvIiB4bWxuczp4bXBNTT0iaHR0cDovL25zLmFkb2JlLmNvbS94YXAvMS4wL21tLyIgeG1sbnM6c3RFdnQ9Imh0dHA6Ly9ucy5hZG9iZS5jb20veGFwLzEuMC9zVHlwZS9SZXNvdXJjZUV2ZW50IyIgeG1sbnM6ZGM9Imh0dHA6Ly9wdXJsLm9yZy9kYy9lbGVtZW50cy8xLjEvIiB4bWxuczpwaG90b3Nob3A9Imh0dHA6Ly9ucy5hZG9iZS5jb20vcGhvdG9zaG9wLzEuMC8iIHhtcDpDcmVhdG9yVG9vbD0iQWRvYmUgSW1hZ2VSZWFkeSIgeG1wOkNyZWF0ZURhdGU9IjIwMTktMDMtMjdUMTU6MTY6MTYrMDU6MzAiIHhtcDpNb2RpZnlEYXRlPSIyMDE5LTAzLTI3VDE1OjMwOjE0KzA1OjMwIiB4bXA6TWV0YWRhdGFEYXRlPSIyMDE5LTAzLTI3VDE1OjMwOjE0KzA1OjMwIiB4bXBNTTpEb2N1bWVudElEPSIyREFFQ0UxODk3RkQ4RDA0QkI2RTFGOTMyODkwOTU0MiIgeG1wTU06SW5zdGFuY2VJRD0ieG1wLmlpZDpFRjYwRTcwNzc2NTBFOTExQUI5M0I4NDIwMzJDOTcyOCIgeG1wTU06T3JpZ2luYWxEb2N1bWVudElEPSIyREFFQ0UxODk3RkQ4RDA0QkI2RTFGOTMyODkwOTU0MiIgZGM6Zm9ybWF0PSJpbWFnZS9qcGVnIiBwaG90b3Nob3A6Q29sb3JNb2RlPSIzIj4gPHhtcE1NOkhpc3Rvcnk+IDxyZGY6U2VxPiA8cmRmOmxpIHN0RXZ0OmFjdGlvbj0ic2F2ZWQiIHN0RXZ0Omluc3RhbmNlSUQ9InhtcC5paWQ6RUU2MEU3MDc3NjUwRTkxMUFCOTNCODQyMDMyQzk3MjgiIHN0RXZ0OndoZW49IjIwMTktMDMtMjdUMTU6MzA6MTQrMDU6MzAiIHN0RXZ0OnNvZnR3YXJlQWdlbnQ9IkFkb2JlIFBob3Rvc2hvcCBDUzYgKFdpbmRvd3MpIiBzdEV2dDpjaGFuZ2VkPSIvIi8+IDxyZGY6bGkgc3RFdnQ6YWN0aW9uPSJzYXZlZCIgc3RFdnQ6aW5zdGFuY2VJRD0ieG1wLmlpZDpFRjYwRTcwNzc2NTBFOTExQUI5M0I4NDIwMzJDOTcyOCIgc3RFdnQ6d2hlbj0iMjAxOS0wMy0yN1QxNTozMDoxNCswNTozMCIgc3RFdnQ6c29mdHdhcmVBZ2VudD0iQWRvYmUgUGhvdG9zaG9wIENTNiAoV2luZG93cykiIHN0RXZ0OmNoYW5nZWQ9Ii8iLz4gPC9yZGY6U2VxPiA8L3htcE1NOkhpc3Rvcnk+IDwvcmRmOkRlc2NyaXB0aW9uPiA8L3JkZjpSREY+IDwveDp4bXBtZXRhPiAgICAgICAgICAgICAgICAgICAgICAgICAgICAgICAgICAgICAgICAgICAgICAgICAgICAgICAgICAgICAgICAgICAgICAgICAgICAgICAgICAgICAgICAgICAgICAgICAgICAgICAgICAgICAgICAgICAgICAgICAgICAgICAgICAgICAgICAgICAgICAgICAgICAgICAgICAgICAgICAgICAgICAgICAgICAgICAgICAgICAgICAgICAgICAgICAgICAgICAgICAgICAgICAgICAgICAgICAgICAgICAgICAgICAgICAgICAgICAgICAgICAgICAgICAgICAgICAgICAgICAgICAgICAgICAgICAgICAgICAgICAgICAgICAgICAgICAgICAgICAgICAgICAgICAgICAgICAgICAgICAgICAgICAgICAgICAgICAgICAgICAgICAgICAgICAgICAgICAgICAgICAgICAgICAgICAgICAgICAgICAgICAgICAgICAgICAgICAgICAgICAgICAgICAgICAgICAgICAgICAgICAgICAgICAgICAgICAgICAgICAgICAgICAgICAgICAgICAgICAgICAgICAgICAgICAgICAgICAgICAgICAgICAgICAgICAgICAgICAgICAgICAgICAgICAgICAgICAgICAgICAgICAgICAgICAgICAgICAgICAgICAgICAgICAgICAgICAgICAgICAgICAgICAgICAgICAgICAgICAgICAgICAgICAgICAgICAgICAgICAgICAgICAgICAgICAgICAgICAgICAgICAgICAgICAgICAgICAgICAgICAgICAgICAgICAgICAgICAgICAgICAgICAgICAgICAgICAgICAgICAgICAgICAgICAgICAgICAgICAgICAgICAgICAgICAgICAgICAgICAgICAgICAgICAgICAgICAgICAgICAgICAgICAgICAgICAgICAgICAgICAgICAgICAgICAgICAgICAgICAgICAgICAgICAgICAgICAgICAgICAgICAgICAgICAgICAgICAgICAgICAgICAgICAgICAgICAgICAgICAgICAgICAgICAgICAgICAgICAgICAgICAgICAgICAgICAgICAgICAgICAgICAgICAgICAgICAgICAgICAgICAgICAgICAgICAgICAgICAgICAgICAgICAgICAgICAgICAgICAgICAgICAgICAgICAgICAgICAgICAgICAgICAgICAgICAgICAgICAgICAgICAgICAgICAgICAgICAgICAgICAgICAgICAgICAgICAgICAgICAgICAgICAgICAgICAgICAgICAgICAgICAgICAgICAgICAgICAgICAgICAgICAgICAgICAgICAgICAgICAgICAgICAgICAgICAgICAgICAgICAgICAgICAgICAgICAgICAgICAgICAgICAgICAgICAgICAgICAgICAgICAgICAgICAgICAgICAgICAgICAgICAgICAgICAgICAgICAgICAgICAgICAgICAgICAgICAgICAgICAgICAgICAgICAgICAgICAgICAgICAgICAgICAgICAgICAgICAgICAgICAgICAgICAgICAgICAgICAgICAgICAgICAgICAgICAgICAgICAgICAgICAgICAgICAgICAgICAgICAgICAgICAgICAgICAgICAgICAgICAgICAgICAgICAgICAgICAgICAgICAgICAgICAgICAgICAgICAgICAgICAgICAgICAgICAgICAgICAgICAgICAgICAgICAgICAgICAgICAgICAgICAgICAgICAgICAgICAgICAgICAgICAgICAgICAgICAgICAgICAgICAgICAgICAgICAgICAgICAgICAgICAgICAgICAgICAgICAgICAgICAgICAgICAgICAgICAgICAgICAgICAgICAgICAgICAgICAgICAgICAgICAgICAgICAgICAgICAgICAgICAgICAgICAgICAgICAgICAgICAgICAgICAgICAgICAgICAgICAgICAgICAgICAgICAgICAgICAgICAgICAgICAgICAgICAgICAgICAgICAgICAgICAgICAgICAgICAgICAgICAgICAgICAgICAgICAgICAgICAgICAgICAgICAgICAgICAgICAgICAgICAgICAgICAgICAgICAgICAgICAgICAgICAgICAgICAgICAgICAgICAgICAgICAgICAgICAgICAgICAgICAgICAgICAgICAgICAgICAgICAgICAgICAgICAgICAgICAgICAgICAgICAgICAgICAgICAgICAgICAgICAgICAgICAgICAgICAgICAgICAgICAgICAgICAgICAgICAgICAgICAgICAgICAgICAgICAgICAgICAgICAgICAgICAgICAgICAgICAgICAgICAgICAgICAgICAgICAgICAgICAgICAgICAgICAgICAgICAgICAgICAgICAgICAgICAgICAgICAgICAgICAgICAgICAgICAgICAgICAgICAgICAgICAgICAgICAgICAgICAgICAgICAgICAgICAgICAgICAgICAgICAgICAgICAgICAgICAgICAgICAgICAgICAgICAgICAgICAgICAgICAgICAgIDw/eHBhY2tldCBlbmQ9InciPz7/7gAhQWRvYmUAZEAAAAABAwAQAwIDBgAAAAAAAAAAAAAAAP/bAIQAAQEBAQEBAQEBAQEBAQEBAQEBAQEBAQEBAQEBAQEBAQEBAQEBAQEBAQEBAQICAgICAgICAgICAwMDAwMDAwMDAwEBAQEBAQEBAQEBAgIBAgIDAwMDAwMDAwMDAwMDAwMDAwMDAwMDAwMDAwMDAwMDAwMDAwMDAwMDAwMDAwMDAwMD/8IAEQgA+gGQAwERAAIRAQMRAf/EAPAAAQACAgIDAQEAAAAAAAAAAAAICgkLBgcBAwUEAgEBAAEEAwEBAAAAAAAAAAAAAAECBwgJAwUGBAoQAAAFBAEDAwIFAwQDAAAAAAEFBgcIAgMECQAQUBExEgpAISCAMhMzMCIUQRYXOBUYOREAAQUBAAEDAgQEAwUFCQAAAwECBAUGBxEAEgghExAxQRRQIhUJYTIWIEBRQiMwgBe3eHGBkVJyQzR2uBIAAgECBAIGBgYGCAQHAAAAAQIDEQQAIRIFMQYQQVFxIhNQYYGRMgcg8KGxwRRA0UJiciMwgOFSM0MVFvEkNAiCorJzoyUX/9oADAMBAQIRAxEAAAC/wAAAAAAAAAAAAAAAAAAAAAAAAAAAAAAAAAAAAAAAAAAAAAAAAAAAAAAAAAAAAAAAAAAAAAAAAAAAAAAAAAAAAAAAAAAAAAAAAAAAAAAAAAAAAAAAAAAAAAAAAAAAAAAAAAAAAAAAAAAAAAAAAAAAAAAAAAAAAAAAAD89HJAe0+REKLZ31+T8/wBkrPe2hyO3lxk5J9vVgAAAAAAAAAAAAAAAAAAAAY0bKZSVXcENuETPAXiAHbnofG2Us0tXedTKbADygAAAAAAAAAAAAAAAAAAAYacb83qj+vrcj+Lj5wBkVvPjR3X6nwmH/G/NLPxlnrstF5zanAAAAAAAAAAAAAAAAAAAIxeIurRC1V/oL4t8PbfwqlZcO0FizMTWhyj7ep4dw91JL09saTusnex7JpuGbFNKuXfIXDMAAAAAAAAAAAAAAAAAAVVsDtumCXFfYEM+OXeu+atzLFxs8JdD4Xz9hkHvLjfE/wABeGsdgttV9kUzXuZYq9ZtN/P8AAAAAAAAAAAAAAAAAAKBupn9E8efJXJ7U9H5DYA7ZPzo0mdam9qAtnciR2f6Lyl93a3+eSnpru3UY3rJ5PDYJbcfzj94+o8CAAAAAAAAAAAAAAAAABrldN/6aLKOaurvMBkVhdB63F+qcutzdl9Gr5gM4uVWA8WfA3bxwWTydF5faNoKnZdPH4AAAAAAAAAAAAAAAAADXoahP0kdpei8lMu6FkLYmd+n2g3ql/RB1d5r1g8ci97tS/PtXZw+2V4acas3hfV2ufnold720AAAAAAAAAAAAAAAAAAFNTXBu6xT2Fy89Su41sd0ndO9D7TAfiTsP+F8vYWGcxNbWSS8OMFEPVb+grjHW9r3F6PxOwW25fnF/XycIAAAAAAAAAAAAAAAAAGLexeWdMTW1vDHLO06fJlfTFe3nsA0yff+rr8CGM+w3pjyHuK8mGeybzKx1mVrIsk5n6wAAAAAAAAAAAAAAAAAAAKmeAW4bCRjHngB6qqvfyUWEcvtb0sPd2fqc6/9wc4boWFu+bO9DHKfv6kAAAAAAAAAAAAAAAAAAD5vD9VX7Bza7gWxR2F+inkA8HiJye3xxSt47CtMva/f+PAAAAAAAAAAAAAAAAAAAAEMbbXwws41ZzQptnfX5Pz/AGSr97aLLzkLhjk6vfip/UwAAAAAAAAAAAAAAAAAABjVT9+GQuYAAAAj0Y7oqzLTSAAAAAAAAAAAAAAAAI9RMhZjoUqLnHOPlt618ckJiPUTIWY6IT3ujg5EumudlVFYSFVDj59nny8HWUTISY6HT3wgAAAAAAAAAAAAACJydYzE7QiadXQWRSqRTV9yWygNYqjcho06kzt/aZ05cxLQsKxPacxVRNq8ak+jl3JPJw6c+jk3GFfGAAAAAAAAAAAAABFI1fUVbRJGrwRZVlLGjk99VMd6Zpp1U7kk04UxtZoq1rUTsxJp1nab18xUqRsrzTTcfLuWeTi02tHJuSq+MAAAAAAAAAAAAAD5BpwKa5cVUZ06a7Hc066WJ/qWyIKapBQ6mpq2elVGtoirZe1UazOmrYKS1e807HSJqERV07McZidr/VQAAAAAAAAAAAAAAOFRMPYqnvVQI401/oRIaqn1EAqa5uTTyaYjzTVIaqnoWKu+pphVTXKiaeRkAYqnZNP3JgAAAAAAAAAAAAAAAAAAAAAAAAAAAAAAAAAAAAAAAAAAAAAAAAAAAAAAAAAAAAAAAAAAAAAAAAAAAAAAAAAAAAAAAAAAAAAAAAAAAAAAAAAAAAAAAAAAAAAAAAAAAAAAAAAAAAAAAAAAAAAAAAAAAAAAAAAAAAAAAAAAAAAAAAAAAAAAAAAAAAAD/9oACAECAAEFAPyhXLlu1QoHybJO15krkfbrsSxTFVRJIlrzisvMi82xe1ue9ycbulZucs15f/AnVWo0lmNjJEtP7nr2l9Hn/wBkY969eyb34GoZg3c4XOjwZIcn4wr23ivJ7O4q0xUCkjMzzjkx568Qje5axVZTF1vcK3mxkbDKsMQZ4Scw3wWZGmUHSHtp5Hlx7iyTHZpSqyswU3SPTO4ptbkSmKQKc+Wgf45XLTKDJt4rTvxguHG4juJwQGkeNArK0a4HZnFN6z1d4+PkZl/HSJzYPC/AwyovedystwFR0SapNkYfJk/wlSQSBStpLOR0RJvUfI/suZXVcy4oERSJIvyUqPkcjDk0yWCpEaqerTuU4ycRj0rBVK/O6MlXVW1fZVSX1lSmb5ylI25goX8UDhXMNPlWAQK9LmCOUfS1au37jVJK4iUHKI/tGS76NaX1lbc9lkamqyJyOjCObjrZNSaJEhcSRkz7llmITtW455eaNgsRFX10uiZCJo5N88+NeJFP31Up7Vq3Ytdlf9A3Fqi+hKdmqdMipx8FynHLTgpOLORlY2JaKCfOffPdyPpMSpYB8hyLiCr/AHOzv+0F1MGHW3Xcs138jJyqo8O4miAieZ6khipEACkGsbM0ck+KyzBJi7s+TjY+ZjutHMwK7ty3Xar6+vAAKQbJjVMvriZTBKkCftS0aVDLvigigbWqsyOzsYg40fXayKiSKqwy60dH9v0nWAAAdoAfI/0vIeexAICPUP5QEB6eQ8889QqAeo0j+/zyHnnn64QAQH19eoiPkPI8AfPB9A9PAcAfFAB455558D9/I+fAfbl0R/Z5c/j+uH1EQAOlPn3D58h+sfQBAQ5T+mr1EPID69bgCNrlz+P64BAen9tQiHPXnnwABz7BwA8APB8+B9eCIANQ+A55+4CAD4+1X3+vEAHnsp6jTSPAppDp689lPAAA6BSAdApAOntDgAAcEAEPYHAAAD8tv//aAAgBAwABBQD8oVmzeyLqOig+60tluvNyr9vK13L2ihUwsfxM2jgkOU9n9rYWKy2eitsGGbBo8X8C0b1EuIWPxCE8R9gQEB7REyMP/KmZi4uNhY34JCycTDB22Emcn3hVHJdxYxT/AAuzsq15g8DikJEUpgl5TTVXU7Lu4DYtyodgj0GWQVz4f3BvTMTBmtTGJrVqpfu/XV76+TOZKy2a87NABu7ZOhOkz5NZ6PuQbcLwpiPXPZHNUGuYjuYv/mZMwvNmfnircteV0DRVySTd23MZzszKpy2k2kysnFwcQXCTuYljo3MlCcRkZIuZRuOi6QyZcxIuAijduVrD1w8hw2K6OonKEi5fZSy3RaLdiKvUtKmZNaKhAuo9qRThPN3NEaszrIliGOXLoRhbhvGzJekqLdFqQXZW/OLahQjwskhXwIUDEVDMfWbLVRnizQS6KXPRXTzbpCRTk47sPHARI3yFmOj/AJzaP3r7LCZc2layHLdyu1cmKwmS1i6gEp3O/wCSCWSDDH2YoH9Y5L4skpl5jmlrPtAqHiXpCQk6VIeOOscRvkHkZF/LyOyw8d+y1zodFCnSBXERwy5uxrGniZUaZysLAzjLIVKrJIWkUcZqKZarwQEB5Pt37X7XZ4eSTsLwm636/wDKt41FjCGacb10uVTF2K7j5zjVVDXU/wC+pCxyQPj02U512fCzcwtzI9TYJz/HtXbWRa6gIgNVVVQvvLBCs/YXa8VLkKXtTXyKdhpOI7YcnsigsmnHgwpzZkx1w7aq2CtsW23MmM8biW6qhqHs4cEPAf0vaPt7EICAc8dB/hEBDp7R8c8D1qoqp601UhjenPA+OeB+uARAQ9AEQHoFIeB8ByoPHP8AUfXyICIeaxHzzxwA80/bwHt8iPnlkPN/ln+X64PQAGoelft9tPt8D/GHrUAhVyr9VH6QHwIefHWyIU3uWftd+uqpEOn91AAP28iHPHuqqHngagGryIffgePNP6eUgIhSHkQ8cEPsIDUHu8jT5p+vARDn7lXUK6g4NdVXQBEB/cq4IiPQa6qug1VD099XBqGrgCID+5UPBEah/Lb/AP/aAAgBAQABBQD8oWXl4uBiu1tBhI0F9Q77I74eQWb9GQu3mz3BwccXJSaySK9I+1zg2as7EC1JGbskZUmf4Gffp42CUcItzCNdjNAQqDtG0nZCEZSkyMjE4MfwQL1wuROS/OHUMu4mtrzVRszMkOcdnmFJMhiewC3WqpcdX8u3bVi3F2Kp5I6QCC0RRBT+AptHEGTrF1EOSm2fIdo0mmyYuKFq3+1a5qGmRlyMZHs29N/chWPZz15qD1ykbtWd0bDe5uln8gPLoJ0J8gRZ2DL/AGjrk3AJaV+kRrCpkLN2m/a5rzfzIjnLbs0w3AvujKcuLjM6NAYVflTmJBKJ5BJPY7Mg+mJILoyr0uNHN1GLeFKyBZ3bIwmCwc1+AIgMZXAuupHbsqiv3cpQaC2pby43MxmgbV8oyw2dVwFZpoJ6KbZT1gHNuZ7Lxr2RSCfyRav6ay8i9kwR7K+iTyEG9kTZjvXDFcPntVemZtlLM83yLaB7mUVEbng6eL9dUAo9Z8X4lbzHVwlxL3pBdJZCHh12Xccy+Q1kzOZFi1lWNSs4sCTLK70G4jgEe1hr4m8iClDQZmg5Jlrz1FlUclFLCVzbRLY5brZVuat+R8aUzfZ78DAwyvA7LtnihlyVjX0QS+XDVLZJy+Sk0ppIxxW/cYsNzsmT+C2jXrLcEtdguntu2eZEBCoOaM4o5I5XZ9s2vLOZFW9cKyBZfMb2ac06fNhDKsu2uyrZrH0kj9bt0WrcFYULiZ7rIhFJZuEf2c5JihRFM9NOasQ2flYuVg5XUQAQooot0wl1evVK/MZRkm1j03fapJQCi9KcXa0Hr3AvKLT5PchuE+o+fxtfbHQ/IZQX456lIlMFkUUUW6Oz7S9pEftTUd9ZmyuPu1KNf9GV8oWghbHbUxu/ijt9x+xM7LaLUhVRxqpTxmfVWfNyAP8A01+IA/DIx11hMNMSJspKOKyW0WkG8/FZKONSDdzjiOc2zQpZu9oWt52lTz5TMvouo/WR8TGbkTYQSKbZym/eJBGUtYtk768NZSxoInq+tnqYmpRBj4kefn4e6GY5kYk0RPiYGJhhbqvm4/8ATTTjodk1uGx9mepCb+gF5tKWwbO2Za7t4B8og3o2xEbe/dRqGnekfLAkQ7fzAl5N3fnsIn/8XbYZAGNnw/trzsPpjfKd02RnW7G/Hq1OMNtykbDiJjRwWjPLVQKK38hTmwZQH9r5Dn1s8MW7nQd+J0bFhZuum7ds2IX/ABNrV25uu+bhjZFULPh2ZBNe1C/MPtJOvUD8J/MN72vDe4NBNu6Lc3EMi7ffct5u7/Ypful2tX4jJdgZ25rYjjY2Zr++IxevWtzXyYf/AIg/CU/71cnNl4aa3+cn7coM/kD/AFp+RFCpIZ3wkmZod2Czo+U9sUnLGL4fGqR2mqN98Guc72ca59WG56Y2hhebMdt03vkFPHpR14ZGsXXp8uTUq8iXkvGf5ZmyqNEUdHmuaSG3rY9suwTEz1y/EGL8/M3Gz6wM81gp8RItMs7crvbYJwpN6kNMe2xX6d5KaHN0y93HJX5Xupt5WOmM23y8dojbRf8Ajg6xX22HbCvrnBbZunZSyC1X602uVfR84eRNk5xiYkRYi9i8v2LOTZVGqDWKtVYjkUjW7TXrxlYkRajcc8aKK8Zo/n/HH1t69ngWaGQCEbFM5uFhGWGa6mNXx2rE0mE0iyH8tv8A/9oACAECAgY/AP6oTyyuFjUEkk0AA4kk5ADrJw8NxzLHcXKmhS2DTmo4jWgMQI4UMgOGWx5d3GVB1v5MdfYJJDilzytfonarxOfcWT78LFLu01lKeAuYmQe108yNe9nAxHfbXfQ3Nm/wyROsiHuZSQff6MfboQL7mYrlAjALFUVDXDiugdYQAyMKGiqQ+Hbft3f8lWq28dY7deykYPiI6mkLv+99Fb/lzeJ7S4rnobwtTqdDVJB+66sPVi22TndI7LdmIVLhfDbyHgBJUnyHPaSYia5x5Kajh6JbljlyZTzXPHV3yItY2GTEcPOcZxqfhWkjChQPLcXErSXEjFmZiWZmY1ZmY1JJJJJJqTmfo3V+b5bLl2B9DTFdbvIKMY40qoOlSC7MwC6l0hjUC45k2bd/z+0w085Gj0TRAkLrAVmEiAkaqaWStdJQMy4suSObrwttEhCWtw5zgY5LDIx/yGPhjY/4Jop/lEGL0PunMdwFaeNdEMZ/zJ3qI04g0rV3pmI1cjMYvd13O5abcLiRpJHbizMak9gHYBQAUAAAA6ABxxY8q7jff6VNcQGWNp4n1SrpDjyUOnWWjrIhZlRlU0aukH/7K6v72c8S0gjT/wAKxqGUd7sfXh4raG+tnIyaO4LEHqP81ZB+vG7fLDdplg5n269loj0UzxvpYSR1przJIAqfJaGT4XFOYdvvrqNt03C0kt4YKgyOZlMZfRWoSNWLszUWoC11MoKrXgOh9j3W4L8wbWqoWY1aa3OUUhJzZloY5DmckdmLSeh9s5Rt5f8AlNvhEsgB4zzio1Dr0Q6Cp4jzXHX0xc+c02YeyDkWkLiqyFSQ07qciisCqK3xMGLKFC+ZtnzG2q8jteZdmmjKuSqmWPXqWNS2TPHIdcamoIMvhZioxZrtXJxa7MS+a00ulFk0jWI0QMzoGqFZnQkCpUYjXeuTo2tDxaCYhl7kkVg/drTPrxHucaCXcIAtSD5N3DmSqyKCQ6A6tGoSxBtWg6g1L2/5Q/NPzPADIolk1/mFA8UWlVVFkIFY2C1ZgI2NGDxlSKEGnu6Ng3NpdNjLKLefOgMMxCMW9UbaJadsY9D827ozVWW/m0/wI5SMexFUezEVraW8k11IaKiKXdjStFVQWY+oAnGybRzJt1ztUV5cxxmS6iaFER3VWkJlAXQgNWPADjiy2ywhEdjbxJHGo4KiKFUDuUAYuo7e5P8AtmzkaO2QHwsFNDOaEhmlI1LUAomlCKqWPRYcw7LcFLyBsx+zIhprikX9pHAoRkeBVlYBhtHMO3/9JdwLIASCVJHiRiMtUbhkamWpTTLG4m1i0WO4xrdoAMg0hZZRXh/iq7BaAKrKBl08r7y7Ey3NhA7n98xrr/8APX0NdOxqxkYnvLHHMPMrQI2+G8NuGIq0cKxo40k5qJWdtWnJtCg5rjmCx3iNDai1kkDtT+U8aMyTKf2WjI1A8KVVqqSDNuc5cX8G036ISSWpbfmI4TXiSEjQVOZIrWpwrEUJFfoWuz8vfLK53Xaop5dE6ecVGpg7JRInGTMT8XFjljYJ+aeSZtlnhilWMSCQGdSyE08xUqIj/dH+Zn1dPJhY5/lmHsEsgH2D0NzFtki0e3vp46fwSsv4YnvdieN7ecKJoZQTHIFOROkhg6gtoZSCKkGqlgdt5Wvkg2nlm7uIo7t4qvIYWdQ9WcgCMDNkABceFiyFkaHlm2t9Ozpa/lwlSSY9Gg1Y5szAksxqWYliSScbty7uSt59tMyhiAPMTikgplpkQq4HEAioBy6UhgjZ5mICqoJJJ4AAAkn1AE+rHL+wXIpfpEZJswSJZWMjqSMj5erywRkQgIxY7LA6sm3Wah881lmPmEU6h5XlHv7unkuzkWkg26FiOwyKJCO8F6H0Ne36R0s9yiS4Q9WunlyivbrTWR1CQdvTBsm4XA/3Rt0SpICc5oloqTrWpag0pKasQ9HbT5qjEfMO7ho+ZImWG1aOmuUsSTFIDk0KjU+okGNjRWBkKSWt7NyfeSwTRJIPJTzmAdQ1JEj1NG61oyuAQcCGx5L3BSSBqmiaBOPW82hRTianuriLmPmqaK65gTxRoucNueOqrAeZKvU1AkbVZdbCN0u+YtxnRgBphjDCs8xB0RpSvEgliAdKBmoaUO471uc3mX91M0jnq1OSTQVOlRWiqDRRkKDo2Ll23B13dykZI/ZQmsj9yRhnPqU4ighQLEihVA4AAUAHqAy9DPd7fBr3zbC08QAqzx0HnxDrJZFDqACWeJEHxdNrvGyXz2+5QNqSReIPA1ByZSCQysCrKSrAqSDypufzRvoLPZNuhGhFWRoZLhSG8XxeUJnAaQvWMxxrCxzDBbnad0t7q3IqGikSRfehIw093cJFCOLOwVR3kkAY3bf9/wB2uIPl9BcvDaWkLBRcBQP50pIINQyk5F1kLxo6LGTLd8w8nTzom3o0sltI+tDHl5jxsQGV1Uam1swZFOmhFGqOHRffMHcYKR0aC0qOJOU8w7qeSrA5kzKeA9EXHOXL1rXlq5krMiDK1mc5mg4QSMfAR4Y3Pl+EGIHpWSGRkkAyKkqfsIwrXNzJIV4amY095xLybzRfx2RSd5IJn8MTLJQtG7ZhGVgzB3IRg1KqVGvd+X+Xd4h3DetwgeD+QwkjijkXTI7yLVAdBYIoLNrKkrpBOAo4AYSyhDxbJAVa6nAyRD+whIoZZKEIudM3YFVOLLadstlh2+3iWONF4KqigGeZPaSSSakkkk+iJ7S7gSW1lQq6OAysrCjKymoKkGhBFCMji637kC3a52k1Z7QVaaHrPk1qZo+xKmVcgPMzIeKVCsikggihBGRBBzBByIPD6FDwxQCgxBuF6j2HK5oTO6+OVa5i3Q/HXh5hpGuZq5Gg2uxbBZLBt8Q4DNnY/E8jcXdqeJj6gKKAB6KebetoC7kR/wBRCfKm9WpgCslOoSq4HUMPJyvzPBNF1Jco0TD1eZGJFY+vQgwRHy/HOteMdxB9zyI32Y0nlfyx2vcWwH2TE/ZhG33e7KzgrmE1zyU6/DSNP/kOIbueybct0ShElzRkUjOqQgCMUNCC4dlIqGwABQD0SR1/0YU8fr+v0GR9B/4R97dNOv6J45doI+/oGI2p4QrD3lf1Hop1+gKHhhe/8Dih4YHRRRnjxDBHWD/bg4GKdWAT2YJ68DLAHUfv+tfdjjljI5/Xu6JD16T93RJ/Cfu/T17/AMMEngMDokrwrl3UH41wtKUrn7jw9tPZXDdw/HBwCOFOhe7Cd/4HBGF7/wAD9CQAZ6T93RJ/Cfu/T9J+IfWv1+/oB40P28MA14YLKc8VY4JpmcU4YoOH3YCKc/w7+3s9ftxlxwnf+B6F7/wOK/X14yxTrxppx4fXt+vbig4Y0dvHu/t4f8P08VGKHMesk/f0nLM9mR94zwMs/efec+ih4Yyr7zjIdGQ6Mh0Dqp2ZYNBTBBGWOv3nFAKD+rd//9oACAEDAgY/AP6oUcFvEzzuwVVUFmYk0AAFSSTkAMycRXNnyNNZWLgES3zLaCh4ERykTkEZgrERTr4YR91512S3kPFY/wAzNT2mGEe7BNl8wNokk7HjuIx71WU/ZiS4g5dt90t14mxuEkanqilEEzdyRsfVibat/wBpubLc4/iinieGRe9JFVhw6x6Mi3q5Y7VyIr+K7kQl56GjJZxGnmkZqZWKwoajU7qY8RR8o8uRjdAtHvJwJryTtJmYDywetIVii69Fc/ottHOvLVpuNkQQPNQa46/tRSrSWFv3onRvXTF7zV8qpZ905ejBeSyfxXsC8SYSoAuo1H7IUTqKeGbxOCCM/RKc+c72zr8vbSakcRqp3CZD4kByItYmGmZ1p5j1hQ1WUx29lZW6Q2cKKkcaKEREUBVRFUBVVVACqAAAAAKfR23a32lt252vYfOjtBJ5MUMGoos11KFdwJGVxFFGutwjOzxqUL2vIvMXLA2Tmm71C0aOZprW5dVLeQTIqyQTuA3lVMkcrDy9SO6Bsbn81flvtgTmOFWlv7OJaC7QZvcwovC6QVaVFH/MqC6j8wCLj0PsPJNkzx2srmS6mUV8i0joZpOBAalI4tQ0maSNWoGrja+XthsUttmsoEhhiT4UjQUUZ1JOVWZiWZiWYliScKiKWcmgAFST2ADMnG8/Mba9lPMVhY3n5WZbO4iEcE2oxsbmYCTTHFN5cEwjR5EkmiBCqxYSHl7atj2qxr4UW1/MyAfvS3Tyaj3Ig9WEe+n2a+gqKpNYRJUdY1W5gcV7Q2WOUP8AuJ5Ut5L75bcwbJZjz4wZBZXVvF5M9rc6a+SUZaAvQFxInxKa8m7xttjPHy1s24wXt5eBSsUSW0izCISGitNOyrFHEpLkuWKiNHZWelKkn39EfNnL1mI+Tt+Z5FRBRLe8B1XEIAySOTUJ4V8IAaWKNQkA9D798x7y3H+o7xcmCBiMxaWrFWKniBLc+Yrjgfy8Z6sui6+Tny83BoOYZIR/qt5G1JLdJVqthA4zSZ4yHu5VoyKy26MG86nMPyK5m2ubcfl/zZazJLEqs6283lFGman+HDND/JmlOUci205IENcX8nM/zREe2C4kECWlqZZmg1HynmkmeGNJWSheNFkVWqA5GGPKXzVuEvgDRb6yXymPUDJbSs6V7fKenZifYGuPy+wbgS6o6pfbRfaRRpItamPzAKCQAQ3AAQTKBoGNr2n5sR7ZD8vrukJNnaR2q2ErkBLwLH/iRg+G5RiT5JMkdHjCuUJBI6wagjqIIyKkZqRkQQRkejnDYUgD7rBAby0yqwubUNIip2NMnmW9epZm7/Q/y52BE0vBs9sXyp/NkiWWY+2V3PtxdbhuF5Db7fAuqSWaRIoo1/vPJIVRB1DUwqchU45r5r5F3ay5jm2mwuLgQbfNFeSSSwxM8UXlQsz/AMyQKtCBqBIWrUGN033eLpp93vbmSeaRvikllcvIx9bMxPtxt0U9mv8AvzdreO43KcgeYvmKJIrBWzKw2ylfNUGktz5jtULGF6N45F5wtBLsV6vxUBkt5gCIru3JrongY6lIykXVFIGjdlPM/I2+qBuu13kkDkfC+g+CVP3JUKyJXPQ61zxy+dxnMm9bHM+2TMa6mjhVJLN2JzJ/LSJDqrn5FeNenn3lmJAtvY7vdxRgcPKWZxFTvj0n0Nt8UYpGsEYHcFAH2Y5G5CSaWLlEbYL7SpIjuLqSeaJnccHNukKpGDXyy8hFDIa8j8xcoXcse8JuNvHpQn+fHLKiSW7rwdJlOhlI4kMtHVWG48sbbbRx7DPzbtxeJQNCG7ktZbiOnADXNJ4RQKDpoAMXbEUJlb/1H6F9zPz18+LDlfmG4srUS2UqweYwjhWKO4JlniJE0aKfhPw8cxjnHbPlz82YOarC7ubaWcxeRptZESZUr5Esuc6MfjYZQ+EfF0/M9YxRTfKfa1vCx+0n0NyXv0Lho7zarScH/wB2CN/eK0PYcWmyc5wTR3No7Na3luVW5tmenmKusMkkMmlTJC40llV0ZHGo7x8x9i/Nc0fMDarK4uttgvVSC1W6hheSImKEu0kpIpGzSUR9LIgk0Ol58wN03BpeabjcDevMeu4MvmhgOAVXppUUCqAooABjlr5g7JKGsd0tllZQQTDcDw3Vu9ODwTh0I600OKq6k9DyTTJFborO7uQqRogLPI7HJURAXdjkqgk8Mc6c5be7HZJLgQ2erI/lLZFggalAQZEj80g5hpCDwxvHM13Fpk37d2eLKhNvZIYFbuad7gDq8B6fmhucD6oG3q5jU9RWGQwqR6iIwR6j6G2raJJg257HcSWcgr4vL1Ga3anUvlSCJT1mFuw9CSxtSRSCD2EGo+3FxzhsFif/AM6364eWAqPBaXTVknsXP7NG1S2taB7chV1NDLS65E5aCXHy/uY2udzjm1eVbBAI0urdgR5V27tHboPguFYLMpSMSRbjt9p80tsgvbW4eBlunNqHeNipeGSYCGaFiKxyJIdQzoMS3e8fNjZNKLXRbzi8mYdiRWomZieoHSK8SMXny++WNnc7fyVOdF1cS0W83BAcotKFhbWjEBmhDPLP4RM4QNCds5H2O3aIsfMup3U6LO1UjzriXhkqkCNKgyytHEvicY2Tlbl62MOw7baR21uhzYRRLpBc9cjmskrftSO7dfRzbzpeMvlbdYyzKDkHlCkQx98sxSNf3nGJ7q5kL3Mrs7seLMxJYn1kkk+hotu3m6EXKm/KlrcMxokUwYm0uGrQBUkZonZiFSKeSRvg6d05X5q2iG/5dvY9E8EoOlwDVWBFGjljajxSoVkicBkYHj8yOV/+3bY7zdect+uiskzPEt5DZSIyFYqGMztbQmSGERUlaS6ludAMaoHseY9gvbC8UkFLiGSFgR+7IqnCWm3WUtxdMaBI0Z3J7Aqgk+wY5U5G5H5V22++e19tkN7u263sK3P5L8yoeOxs438KlFHjY0BorssjSaYdr5D+aljt7y7vIlvb7hb28dtKtwSfIhuliASaCWQiNSFVoZGV/EuqhBGfRtXyb2W6rMWS73HSfhAGq0tmoeLV/MurAEBbVwSGPoiy+WXOe4U54sYdNtLI2d/bxrkNR+K6gQUkB8c0S+d42Wdl6RFeIk8IGSyqsqjuWQMB7sFrC0gt27YYo4j741U4tfmp8vdpl3QvZRW99aQjVcxNbKUjuIo66popIgiOsQaSKVCSpSQFeWOd+e+WbrZ+T9nvI7s/m0aCa6mt2EkMEELgSkGVUMspVY0jDUYuVUs7HxE1PtxLudy0c/NV0rJYWhOcsgGckgBDLbwkhpWqtfDGrB3UjdOYd+vnud5vZ3mmlbi8jksxoKACpoqqAqqAqgKAB6Htdx267kgv4JFkjkjYpJG6EMro6kMrKwBVlIIIBBriw5R+cN5HZcwqAke4kBLa56h+ZpRbaY9clBbuakmE0Vop4JVeB1DKykFWUioZSKggg1BGRGY+gCOONTElvXi72ba5Y9359AKi0icGO3emTXkq18sKaHyFrO+QIjVvNW/5s5v3R7reLg8TkkaCuiKJB4Y4kqdKLlmWNXZmPoqO25X5jaTZFNTZXIM9rxqdKMQ0NeswPET1k4ih595Du7Wfg0tjIk6H1+VMYXQeoSyn1nhgGbnGe0ciumayvKj1VihlWvcxxrXn4zN/djs75j9tsq+84kTlLlXdNzuwDQy+XaQk9XiLTS07f5Axc7da7omybDJUGGx1RyMpFNMlySZ2qKhhG0SMDRkIwWYksTUk9fojPhgHqP8ARlgPCCB7TX9R9Bg9R+vs9v0Ix+833LjP9fRXq+vV9EEkZ9hB+4mnt6Zkr4i6H2APX7ximNXV9erj6ABBzw3d+IwCDn06mNF9591R9eFc8VVsvcfr7cKeoiv2kfhgYOAQc8FR24A6h9fr+rBzwx6x93D9Q9uOGePECR7vwOOGIgeGsff0RfxD7/09u78RgKOJ6YqUrpz79R4+ynsw+qtaZU7ajj6qV9tMJkPiPfwH19+Bgg8Qehu/En8P4jANK4fPq/EYPTEzGihgfZXoir/eH3/p+oDwn607+/v4Z44YIrTUMx6qg5+0A/bwpginH7Prw9uArDKtfXnT8MUQH6+7AFagYrxP1+ymNRFT9/f9ftwZGHhr9vd2dvYO8YFeGJO78R0PQdX4jFO37+r7cZ4rTKuNVakcfuHs6vV6ssajmceZUinDv/s4n3ZVH6eaHjgEUBHYAD7x0gVyHUcx7jlggnIngMh7hl0VHHBrQn1gE5+siuKk1PRQn6+vtPr49GZ+vr7TnxPQeBr2gH7TgVJNBTAIOeDWh9gr76V9uKsan+rd/9oACAEBAQY/AP8AuhSJs6THhQogSSZcuWYceLFjhYpDHkSDOYIIRDarnOcqNaieVXx6k19t2io191FIQJKXmcSbvTIUSuaUT7ajEbMRzCI32uYaeN6O+nj6L4KLMce7DfAY5UHJtXY7OtMiNRUc0QNBfla1XfT+ZEXx9fH6ekbccK6rAj+V9xay3yNsZE+nhUBKnUrFX/D7iegQZu/v+aT5HhoY/S8pPqYqvVzW+015RE0mchonu8+6RMEzwi/X1E02H1Ge2Ocnp7oV9l7muv6eWiNa5f29lVyJUMqtR6eUa9VTz9f4ZJyFewXTu2Giq6PgKexEGDmFOD7kOfv7kbZH9FERr2kHBEwljIGrXewISNkJIP1ToNg7NvO4sDnmaefP8/qm+WuEMOejSHttDAVv8kmxLNmoiqn3vH0/2R6rj3RNNgrhpBvkLSWD21lq0S+WR72ikpIpL+Gi/X7M2OcXlEX2+URfVPzP5Nxqbmm9mvj11P0WA90LnOmmORoRCvmTDlfh7aWTx/1XlJVlerl+5ET7YnI5qo5rkRWuRUVFRU8oqKn0VFT+El4hxuwjSO86epbIuLsf2ZQeT56zD5iWBROQgSbW5jP+7XRiIqRY6tmGb7XxWSJ9vbz5trbWs2VY2dnZSjzrGxsJx3yZs+fNlELJmTZkkriFKRznke5XOVVVV/2dDpA6kHL+OZG1/wBPW++NUf1+60GobEBPl5vFUhJUGCclPEmR3T58s32I75DBDEYiFQVl2vAdJJ2PmeWSMXoEK4z8XObrHVkuUyH/AKpjjqpMin0uZrjmF+/QY4syGEinRhgiM4frOfGT5B6J83n1saNScs6DeS1fIwVkZWgrcborGQ5XExFgVWhgSSuVaczmie79g5roP8H2/Y7ccadZ1cVlRiaCSRRt026uUJHzlO5GFAd8Np2PlzftO+6OuiyCMRXMRF0m821zM0Ot11zOv9DdTnNdJsLSxO+RJO5o2sCAfvf7RiG1ggjRrBtaxrWp6IYxBhCJjiFMV7RiENieXkIR6tYxjUTyqqqIiesh8ftJrxcDvNnlF29DN6Dkb0lpps86GO3hhyGfM+mWZa32cbKsq0ks8aJJiV8hWue9iDdHTe6fs3T7lrPEudM2rcXVleqfVYtLiYFQ6KxF+qISSdyf/Mv18lFSwuu4qYrHoCfQdUvZ7gGVngZHQtazSV0hjH/VWOF4d9U/xTq/wD6hOr8Z8h+Fdl6IZuZtyBqj9Gw+sunaDM7rIJKcFb+NYQpqOe2Oj3DjuAX6jInt65k9Dc0c/ovXcFpeb8+52+UCTeX1js6qVQHuS1I3PlRs3mYM0s+ZNK1kcbQINHqYoRvEJHOeghsH73/VzvY1G+5y/q53jyv4SOX7y2JYdZ4jGrKiVPnSPvWOv5/IY6NltIcxVaeda1Tor62xIv3XucKNIOVxpi/wfEfH2qnO/oHJ88DUaeIIr2jPu9vGHKhjmgRVGV9LjGwyRiL/ADMS2kN8eHeV9eE9Vvy371QgucDBtSrw3ntxGaeq11lSzHAk9T1EAzXR7Kgr7WM8FDCKjwyTAJOKxzEh+7BfNfnWlp8F3b4vaOhs6W+mzY1dJ1ecdfAnws5D+/4W4v8APaJUsK6C1VfMilsYbWuWZ49Ucfm/xqdO0a0dSTT2e73A6LOx9K+GJb2DnaugrdDcWVLFsfuNjSpR4ZTBRrnCavlPQ29T+MVHLpSEYwsrmfRZTbmINXJ9w7KrX0MWvsXMZ5VBrPje5f8Am9QtyyvbfbnCjDAkWUCZZ8w+QPMUkvdIjVd4+rlR7htUYivfDeR0+pI9xXRSOf8AdX1pNR8XT9Gte75VDaMAeh7q23c7qtFBjvJYc8fMt18VVuYLVNTSAMY3+oMYCQihO4gmFYhGo5F8jMN4Tie1ysKCQAiIQEkBGqwg3IjxvarXIioqfhyfblmuiZi7uw8+3rVL9qKbG7aRHqZ0id4+r42fsXRLdGov8xq9n5p9F/g3yB3RiuMK66vs2Vr3PUitoqi5k0edD71/zJHoa2MNPHhPDfp9PVbRUdVbX99cyUh09DQVk+7vLeWqe79tWU9XHl2M8zWfzOQQ3exv8zvCfX1y/l/asxrvj9E6jt8rkSanrecuuf09VR395Crbu9S6v4UOvYlVVSDG9zSKonta56NZ5cmaxOTrY1LlcfQVGZztTEb7ItXRUVeCsq4IE/QUSDFYxFX6qjfK/X1fyYdrJXiHLL64yvG82MxEq5a1Mg1TedRnRv5BytBsZscqwivb7oVMgBD9ryyHF/DKdq5NaOrNvjpKPbGeUg6nX58phku8HqgDexJ+Z00caiI1380U6jlAVhwjenN+04khHZnpWSqNTWhOqLKr3WEdqzqaf4a1qWVHZMNDkoie1DgeieU8L63baCEOux/Z6qD2vPQwoxseHbaKbPq+gwYwxNYMAXbOqPYINET2JZoifTx+HlPoqfVFT80X1w7o0oz5E/Zcqwt7bFIvl7rqbnK992j3eV9zmWyGaq/qqef4NeyTuV55FzZnM9fPl5TTTkI5fP18ue5V9dp7gWJW2XVidHfzNs6SEB7TI4inzGcvotdWEe1xq0Oqs9AeVKcz2rKSOBr1c0DETs+A6vVVlhkpXP8AVWzptkMauzNrSUVhY1OurpTvD6+zzksKSRmaqfytcx/uE8jHZ/o+isbCdt6f4s9dBXXskhH2FkzA1G5ocpaqVf8ArlkOrKGL/wBRVV5Xs96qqu8+qsbVVzWV0JjXKvlXI2MJEcq/qqonlV/X/YpeccU+Ee2+SWCothtyU3RaWVp21MU1toJN3cZIYKbL3cdhM9aWRmKqGb5Un1Yiovnkuj+QPxcuvjJeZfP7Kky4b1NO2ZuKiysM5Ns1Z/qSjoUcDMz4Q/Cxxv8ArPX7jv8AIn4/G4h3K57cVNjtVfPlAxNToIsdv1+vhgAtRP8ABP4N1/EyhOBIyPT95myCe1Wq1aXUWle1URfzY9sdHNX8laqKn0X1a7LkM6om12ojQoW55/qwy5WP2cesWQ6plS2wJEawp9DT/uyti2MZ/wBxoivEVhhORiZP4+bb/Tnxq4V07YZLFdm0nN5llptxKw+kv62qvWDvtBHrYlRSMBIV0oQIn3DxlewxnA+4EtRwrN0IKzmdHhB83r8+Fy+weVZTLRPiFMqKQ8mTBe5TGf5IYr3Eequcqr0Tg+xjlDc800MmlhyiCeIV/kSudJxGtgKREcav0uYfHO16f5T/AHhL4eJ6J+AgxIcuxnS5EaDXVleB8qxtbOfIFDraqtiia4suxs5xxgjiaiuIYjWp9V9cf5JfCjj2UCjkaToH7ZyEEm82dhL1GnitK15BnZU2FosFhGL7Xjitcn5+spzqskuODiXKokC6a16PCHWdIsmaiXFT2qqNkRsvW1BHovhyJJTz+n4/GzOTBKCYHkGMs5gHfR8eZo6oOjlRyJ+hQSLZzHJ+jkX+DabVR4jg5ztFHT9DqTMGqRkt2xmZ3XQ0L4Rr5v8AXKd04rfzayxGq/RyfgaNIZ9wEgJAGH5VvvEZjhkb7mqjm+5jlTyioqfp6gcm3V0N3f8AiVFXUulBNMxk7f4aF9ury/Tq4bva+YsiM0MG79ikdGt2K8nsHLje+t7Z0N0uj7rnJ8bF8Yts5+1S52JrM5rWzxGrglY911gK2ujTLWQTwkmqIJSRHtLIeCVQ31p8aOkXNNo6Cs0kKbhoEfcFgQbWKOWCDo6ahPI0Wev4gyI2VDkQ0UBPLfe78/UWryXxd7Gr5Zkjts9Xljc+z0V7lRPfYXu5JQQowB+fL3N+45E+qNd+Xqp7x8j7XO7zsVGxLDEZOl+7K55yacSO7718k2yjxT6/ewwlcINiQAIVZ5e+IJxVZKbouz7OdGsmxxuqsNl4E2P/AFToW5miOlDkaJUcRHmmyQufKOjXsgwhHkkT7YXetl0veWDLbb9D09xstbYCYo4x7u8lOkyAwQr/APj1VaH7cSEL/wCzDjiZ/wAv4ct5BUsMsjf7WjoJJ47FeSupjy2F0Ny5qI5fs0dAGTMIqIqoMDl8L6hVldHHEr66JGgQYgW+0MWHDCyPGjib9faMIRta1P0RP4NKv8lWOseocSNY7nKRYwVNYXmefEGzd5SGxiPKWTZVUEM6OETHmkzqwEdieSr+Oa6TzPVWuI3+PnLY5rU0pGNm15yDUEuLIjnYSHa0trFc6POgSmFiTYznDKxU8Knx76V8+9pk+Z8k4hmwSKjOwq69l870fSKufBsQSrtpA2g81G2mjBEsLEk33whxKKPXffVpyFcK559uMjuKg42GFZZHR0+jgvGREc1ySaiZLCiKip+a+fRrS/t6ykrIzHEkWNvPiVsEDGornPNLmlDHExrU8qrnIiJ66f2ns/TuiYz4T4ro+j5rwbhfONHNxv8A4lNxUp9db9N6HcVzkkzRWUxypGCikVPcQI3gYBXy9L274yXW7jReVQJ2t13Jddq7ba0U3KAENNPoMNIuSSLLPailqhvlGGpSgsYgHi/6ZEGrkc1Uc1yIrXIvlFRfqiov6oqfhp/lxr6xRxGx7LA8gSWBU/cmIT9tu9jDUg2qg4rA/wBFjHG9zXuJZCeiKNqr/B7j5HchonE4xtbd0zZ0lVGX7XLdfbyfJSpEC32wsPprA/uiPYiR6+aRYaoIb4TH/i6VUllUsp7lc+XRzZdLLe5fzc+TVHhne7/FXL6Rl5a3d+NP8otBe3F8Fv8A9IridNGn/uT1Z/GXvOpruath7C91fNN9oSrEx1zB18sVhbZG6uPtLDzl9U3pJB4xZjxRZkI6MaRpQOaTo/GeJdHzPWesdZyltgxrhLKJps3hs9qoRKrQ6fT6KuIelCYFFLkNgwRmJLkzHD8jaFCEawQ09rBsaNjfz8MY1GtTz+vhE9Rs3XMn0nMs1IhT+ob0QW/ZoqYhHOZT1JpAyRZGuv2BeKCFWkQaI+QRjghei5rBYmmiZ7JZCmgZ/PUsJHpHr6utjsjRQI8riHOX2M9xClc8xiK4hHOe5zl/g9nQX9XX3dHdQJdXcU9tDj2NXa1k8D402vsYEsZYsyFMjEcMoiNcx7HKioqL6u+q/E6qnbDBGdIsrfkIHyLDZ5BHKpTJjUM40vZZ8flUHE9z7aO32takxPcQcmFNjHhzIZzRZcSUEkeVFlRyOFIjSY5WsKA4CsVr2ORHNcioqIqf7CoqIqKioqKnlFRfzRUX6Ki+kYNjRsT8msajWp5/Pw1qIiefVVrdJFsOVcPe+PLkbq7riDttbA+6n3YvO6aU0brV8ljValmZG1gP5nI6QQaxn0fLuUZuLmcnRjc5oRf9Wfa2RmDbOvb6xen7m3vbJwmqeQVVcqNaxqMEwbGfwo9j0rnwIWyKNGM6LizMzG3arWOGN02yigLC0CBa/wADZaRpwx/T2tT1KmcP7dmNHCX3EjUfS6mxzFmFqKviP/Xs4HRwLEyt8eCOhQWKv0VET6+nticlp9QJr0Y2TnejYBwyIvj+dgbvRUk1GfX/AJhNX/D0gn8NZUD+irJuOicwjgair4VVbH2UqS72/mqNGq+P09Rz9T6bzbnNW4jP3AKNLje6IYvKKXxCZGzlF7/HlG+LJ6efqqePzr7+zzcvsm3guEcWi6f+ztKqFNERCtkU+Ljxw5uKoiNa4T5Yp0kL2o5hkX00Y2tYNjWsYxjUaxjGojWta1qIjWtRPCIn0RP4RXfIHvVVs9aPU7eu5xz7n3PYdZL1my11hWWt4QIi3VjVU9PR09JSSZU6fJOjBNYwQ2FkHAEkf5J/HsOrpaiBrLXnu5w+7gQK/YYLe0dfT28+gtm1Njb08+NJptBBnQpkSSUMiJKZ7kEdpo4f+x6v8ou83cqg5Tx3Mv0upmV0FbO3lqabDp6Ogoa1Cx22Gi1Gis4lbXheUIiTJYkIUQ1cRvWa/hec6dzfe8adSztXz3rNbnIdzMymmk2MSi1+dn5XRaWotqp0usfGmjUopMCU4bXsUZgGL/AtzieD/IviXZNhzKU6H0HL8x6djtvfY2Q2S6E5NDV5y4sJlYJs5jgKQjGjQ7VH7veitT1ucHxT5B8W63tuZS3Qeh5Hm3TsZtdJipTCjjkFpqXO3NjYU32pZUA5xxsa0/kSqhEVqfDRfCeU+TWjRF/VEXld95Tz/wAF8J/8PXyk3/fev8y4piU+at9FbrOq7rM4GgNLFwnjUh0KPaaizrIkmb9lFcgRucVyIvhq+PU93xt+S3Ce8PqWOLax+SdVxO+m1YWFQKnsYGZurGbBjqVyNQhRsY5y+EVfwynxz23yL4lku+boUY2N4zo+nY6m6bpmTnKyuSmxdhcAv5xLR7VbEYwCvlua5Ao9Wr49ZDgW2+QPF8j3LfhHIxHH9L03G0nTNYE5kjxCZ/EWNzH0dqk+R5HG+zHeskjXNF71Y5E9Tdx1joOI5hiq1zGWOv6Hq6LF5iC8rXuEyZfaOfW1UZ5GicrUeVFd7V8fkvqNh+afPH4i7fYTitj1+ZzvyD5dYXdlJIZkccWsrhaZZNlKKZ6NaIDSEcq/RF/D5RfEnUd05zUfJjpeS5BpcJxCRdjkdD0FHB71gbUtsGghjlSIEBa7M2JxHl/txGZBN9tzlYqevlrsflj3TE8Mz2z4njc7k7PaFshBvriHu0sp1fXf02usHkPFhNQj2qjV9q+U8+F8ZPqXKdnm+h853dJC0mN22Pt4V9mtLRWI0LDs6i2ryniTIxW+U8td5Y9Fa5Ec1USv+MFt8iuJ1nyOta+Pa1nC5/TsbE6vPgy46zIhYmDPcD0hyTIKLICNsdSljIpWNUaK78Kr43XfyC4tUfIO8gDtKbiFn07GQOr2sEwRSY56/AyrkWol/uop2mE1kZzyg8kYjmNc5P8AffmhbUU+dV3dX8TvkXY09nVySw7OutYXH9jJr59dLA8Z4s6JLEwgSMc17CNRyKip65HHhz5sOPa8c79AtY8WUaOC0gD59NtBwLIQntZOhDtK2NKaIiOYkiMIiJ7xsVPlRb08+ZVW1V8cO42VXaV0ksOwrbGDzHTyoM+BLA5h4syHJE0giMVHse1HIqKnrhsaFPmw41vyv5BV1vHiyTABa14uU6C2FAshCe1k2EO1rIspoiI5iSIwiInvG1U+Gn/qb0f/AJV3/rdafJdEzvDvjxyjQJmr3quxqrfWDn9BtayttJuUwOHrJ9Q29vIFE+vlWxT2FaCNGkQ0UpXkYNvEu05jtz7rO6K/mn4r8nOMO0OCuqLc5gUefOyetozTJsnIaKVWGWTHi/v7Kuua1shrSl+xNjh4n8mdTGr4HVXNuua9tr6kTI9WPq3PZjam+tq6IJrRV0DZ1ZIN+GGzy2CK1bGRz/te93zSu33dwy9qvlPVNqblJ8lltViz0PIQsz/Tp7CJIhpRV1fFFCVjmrHEAbWeEYngaqvlVY1VX/iqtRVX6f8AH180rtl9cju6PvOHbSXI7GUO0pkz+H56Gg/pU5hGyIC0YYYWxFE5qx0Ez2ePanq532usW1+cyGOsdhp7Y6K5kGkz9Ka6urEyNTyrY0GIUrvH6N9Umfp2afX3PVukSML8WfjtFuFiYvluOlzJbqWCyKaWzO11hX5mO6x1umkexT/YkyjkFDAIMe3+Uei0PFO34HCVca46/W8ZvdhN1HNKgpIwJmlkVOvxmVXTZCmkyWpOmV7iSIYUdKNFZDEeQLqH9uj5Cbe96FacpwYutfHLW6uxl3Gjg83qbmnym55ZYX1ic0yzqcpP0dRNzwSuKeJBPOjNekOLDBH+TP8AdqFq+o5n5B88wPJam4ydVaUU3mW/KDeYHlFNbXdXbUkq/p7OtyN40DlrrAEY/wCyA9wEL98h+5cc77vut8/z/MuJD6XR2HIbHH1txNun7vMZdYlobZY/ZwiVrYV0R6MFHEVSo1fuI1Fa7k/xQ4SDQg5XxyksabMO1l0uh00193ornXX9teW6RoIJVndabQzJhUBHjRROOowBCFgxM7LoHX9oXQ1f912yNXXv7yQllAJQ/J0IKF0KX9xTxUo4sGOKIjHIkcYBtZ7WtaievkDfCvbgd7T/ANzZFqLtljLbbVS53uFTEzy11ghf3UL+gRK6OKF9tzf2wwDaP2oxqJ/vvzMhARXHmfFL5ERQta1XucWRyHYCGiMb/M9Ve9Pon1X1wCNYTo8M93zf5BVNQM70Y6ws05BqbX9jH9yoj5C11XIKjfzVol8evl4eQYUcAfi/30p5ByMCAAR8p1jyGMV6tYIQmIrnOVURqJ5X1wJ4xvewHNPkKU7mNVzQiXj2qChCqn+RimMxnlf+Z6J+vr4dTGiesUHyiu4xjoi/bHIl8n1BYwnO8eEeYcIqtT81Qa/8PRxVhYr50T5VdqDo2R2sQwbh9JzqTHZO9qI50l1AeC5qu8r9lw08+EREc/RuC24D8pOJkwSEaJxH6t1ZvhTWR1IqPYX/AEMS5VVZ5d9trkVParlT5OwpLjupIfzKuiVXvc9QsnS+K8eW3GBF/laqDDFc/wAfq9FX185pNi50ePF+SUazkEeIjVHCJTZOxQ32/apHtSIRHIqIvvT6t8oqeq+xgSBTIE+FFmwpYHI8EqJKAM8aQF6fR4jhI1zVT80X185f2T2TFd8gqOK1IrkOrpQMniIh4rUH7vMgMsThPZ/maRqtX6p6+dMj3linhfB35NFR6I5po5wcF2zmuRE8PaURG/8AtRU9c2kzIceVIp+Hd6sao5ho8ldPLj2VBJkRy/UMh9XaSY6uT6qI72/k5fXzmiTYwZkOT8PPkyCVEkjaWPJAXi21YUBhuRWvEViq1yL+aL65uwRiiZJ4d3oMlg3uYyQFuQZIaE7UVEKJsiOMiNXynvG1fzRPXzq//W+Qf/0PyP18uP8A0mB/84ef/h8i7O+kR6esp/7o+otrSbMc0ESvq4vyPWwk2EgnhGjihgtUzn/l7Pr+HyPSuck9S/3PryEJsVfvKSYD5BAgmijRnn3HFNE4StT6o9qp+f8Av13mdBBDaUOjqLKiu6ySirHsai3hmr7KCdGq1yhlw5Dxu8Ki+1y+oGjzCa/Hw+c9TL0L4h/JGHVrNym/yldZnn5d7rI8M2dmamFRvSv1eamNf7XqcRQyK6THPKvfi3dZziHFcl0TN/6V7LqOQUGwhbDpFBIGAVznBz9Vs9LGyGX04xvHZxYIv3EuMV8VZKRSGAXov9yfv2JucFD2/PD8m+Mua1dbIq7/AEOZ0VxU3m87A6nnhjz6qinCzsKqz8giItpFk2J2sSKsORJ6lwTAirn9ryNvR9p4O20khhQZ/TMCGzC3MGnySAiwH7vG3lvRAkSCiixZdkGQd6BE9fXcuC6fgrNfk9Fq4svqPx07A7Sct2OF6fn4wqc99SWy1FhPy9xaUIgxLEMyqnAmAiwyMQahRxOG8Jw3BD0Wezt9NXkHxm46a/6Jd6DeaMQ6+ds9loTV1QuitKuma6OCW6vrK2krnyiOQaHlnfx740aOXXWXVTkuOodys6grZFTI61v3xpl9V1UtiNbY1mNqIVfQR5nhv74NU2T7B/e+2y6/uZccw95t+IdczOWifIWVma6TayeQdIw2fr8bE1mpgwQkNWc92mPpKxG2qtdFi3EaSOYQDpcFJGY+MVdn+GdLseeZOHhOa9s6Xm9XbdFzeTqIAarOQbmNV6+py+zsMpVxxx4MyfDUxRhGs/8AfPR7yUPyG63A1er4ni+2h+QPyy7tqIr21m31QdI/oBufRbIscEC+2XUtSxkedEh+HVtRJkS3INBgGX5911RXSre1n/Cz5Rw66rgCJInWM6TxDcBiwYccLHmkSpRnowY2NV73qjWoqqnrLyYcGXLj1Px27pYWp40chg1kAlfQVQ508jGq2JEJaWUaM0j/AA1TyBs8+57UX5qVdVBmWdnZfEv5HQK2tr45Zk+wnzOO7KPDgwYgGvPKmS5BGjENjVe97kaiKq+sFKg18yZFpuC94sriTFjkOCprS5uFTisLEjGq2HDJb2sWK0j/AA1ZEkQ/Pue1F+b/AB7lNFY6joNvyqBqs3mKeKWfdaQ/L9xkuozc/SV0dhJVpeXNVjTxoUULXHlSyjENrnvai7fttRxym7ZRdF5lP5VtsHb6aXhrQcN2kodPX3NBqAUmjSstau1z7RkDIr5IJEYxWKgyfbMP5KafX/F0vAKziOuw9Pm9HT6u122M2YNtX6SdKzQtBaZjMsLtcKKgjns2R2OYsW6hEUUf3tQu+/uCc1xF5rPjJ8jy0mi6DpM/XyrSPx3sceog5/TV+1HECYtJmt0SrDb11rIVsQtjOlQlcN4o6SKX4/gq+Fare5jKwsVnPkpsclorrqkemrYIa6st7yqJqh4LV7ivhga1LOfWFHLe1Czo0s7ilLg/l/1Kh1k/468A6wHvfU+xa0U50TqfaM/ers8rhKa6sGr/AKz09x0Fsa00ajUw4lWE6SyCPMhMkf79Pw/VMDi+mYq1+2tpkOgZaj2WXslCquEs+g0cGyqZiicqq37gne1fy9R91z34DfEHIbCFKbOr9HS/Hvl0W2qpjCoYcqnlpmXEqDjK1HNfG+05rkRU8eE/GMvyM+M3Be6mhBbHgy+tclwnQJ8CO13vaCBYaiis50IKP+vsERjfP6ep0P43fHHh3BgWjFHa/wDhFyzE89NajUqH+3aSctS1kmxGhmo5Gme9EciKn4GjSQikR5AiAOA42FCcJWKMoTCIjmEERjla5rkVFRfC+j7rV/2+/hzfa2XJSbNvLD468rLLnzUcj1mWKJmGgsJbnp7nFMx73O+qqq+qrGc/yWZwuPoY6Q6PKY6hqsxmqaIjlckWqoqSJBq66OjnKvsCJjfK/l68L9UX809bfRfH3468T4lf9KsXW2/uuV8yx2EtNhOdILL+7oJ2aqK6TZDbLOQzREcomGI97Wo57lX1ttVwv498U43pukzlsugaHl/MMXhLraTvuqf7+ms8zTVk25VJDnFRDve1Cvc9E97nKvqT0Xqvwd+JnRN7Olkn2Oy2Px85XoNNaTilUxZtrdWWWkT7WYUrlc4sghXuX819VuK5rislzzG0w3Cp8lhs5T5PM1QnvUjx1tDQQ6+qgje9yuVBCaiqvn1LrrGJFsK+fGPCnQJscUqHNhyhOBJiS4p2EBJjSAvcwg3tc17VVFRUX0Tc239vX4Zz9UaY2xkW8n448oeSTPa9CpOlRv8ASyQpMtSNRykINz1VPKqvqqyuOz1Hk8vRRB19Jm81UwKKhp4AvP2oVVT1ceLX18QfuX2jCNjE8/RP+7d//9k=;" vertex="1" parent="1">
          <mxGeometry x="412" y="85" width="80" height="50" as="geometry" />
        </mxCell>
        <mxCell id="Q_m5-7QkY2CdEUIhsvCV-63" style="edgeStyle=orthogonalEdgeStyle;rounded=0;orthogonalLoop=1;jettySize=auto;html=1;" edge="1" parent="1" source="Q_m5-7QkY2CdEUIhsvCV-40" target="Q_m5-7QkY2CdEUIhsvCV-46">
          <mxGeometry relative="1" as="geometry" />
        </mxCell>
        <mxCell id="Q_m5-7QkY2CdEUIhsvCV-40" value="" style="shape=image;verticalLabelPosition=bottom;labelBackgroundColor=default;verticalAlign=top;aspect=fixed;imageAspect=0;image=data:image/jpeg,/9j/4AAQSkZJRgABAQEBLAEsAAD/4QBWRXhpZgAATU0AKgAAAAgABAEaAAUAAAABAAAAPgEbAAUAAAABAAAARgEoAAMAAAABAAIAAAITAAMAAAABAAEAAAAAAAAAAAEsAAAAAQAAASwAAAAB/+0ALFBob3Rvc2hvcCAzLjAAOEJJTQQEAAAAAAAPHAFaAAMbJUccAQAAAgAEAP/hDIFodHRwOi8vbnMuYWRvYmUuY29tL3hhcC8xLjAvADw/eHBhY2tldCBiZWdpbj0n77u/JyBpZD0nVzVNME1wQ2VoaUh6cmVTek5UY3prYzlkJz8+Cjx4OnhtcG1ldGEgeG1sbnM6eD0nYWRvYmU6bnM6bWV0YS8nIHg6eG1wdGs9J0ltYWdlOjpFeGlmVG9vbCAxMC4xMCc+CjxyZGY6UkRGIHhtbG5zOnJkZj0naHR0cDovL3d3dy53My5vcmcvMTk5OS8wMi8yMi1yZGYtc3ludGF4LW5zIyc+CgogPHJkZjpEZXNjcmlwdGlvbiByZGY6YWJvdXQ9JycKICB4bWxuczp0aWZmPSdodHRwOi8vbnMuYWRvYmUuY29tL3RpZmYvMS4wLyc+CiAgPHRpZmY6UmVzb2x1dGlvblVuaXQ+MjwvdGlmZjpSZXNvbHV0aW9uVW5pdD4KICA8dGlmZjpYUmVzb2x1dGlvbj4zMDAvMTwvdGlmZjpYUmVzb2x1dGlvbj4KICA8dGlmZjpZUmVzb2x1dGlvbj4zMDAvMTwvdGlmZjpZUmVzb2x1dGlvbj4KIDwvcmRmOkRlc2NyaXB0aW9uPgoKIDxyZGY6RGVzY3JpcHRpb24gcmRmOmFib3V0PScnCiAgeG1sbnM6eG1wTU09J2h0dHA6Ly9ucy5hZG9iZS5jb20veGFwLzEuMC9tbS8nPgogIDx4bXBNTTpEb2N1bWVudElEPmFkb2JlOmRvY2lkOnN0b2NrOjUzNzM4OGRjLWI2OWYtNGZmZS1iZjFhLTc2MDk0OGFhYjM5ODwveG1wTU06RG9jdW1lbnRJRD4KICA8eG1wTU06SW5zdGFuY2VJRD54bXAuaWlkOjYzMDRjZGVlLTJjMGEtNDFmZS04OWM0LWZmZTZlNTFjYjBjYjwveG1wTU06SW5zdGFuY2VJRD4KIDwvcmRmOkRlc2NyaXB0aW9uPgo8L3JkZjpSREY+CjwveDp4bXBtZXRhPgogICAgICAgICAgICAgICAgICAgICAgICAgICAgICAgICAgICAgICAgICAgICAgICAgICAgICAgICAgICAgICAgICAgICAgICAgICAgICAgICAgICAgICAgICAgICAgICAgICAgCiAgICAgICAgICAgICAgICAgICAgICAgICAgICAgICAgICAgICAgICAgICAgICAgICAgICAgICAgICAgICAgICAgICAgICAgICAgICAgICAgICAgICAgICAgICAgICAgICAgICAKICAgICAgICAgICAgICAgICAgICAgICAgICAgICAgICAgICAgICAgICAgICAgICAgICAgICAgICAgICAgICAgICAgICAgICAgICAgICAgICAgICAgICAgICAgICAgICAgICAgIAogICAgICAgICAgICAgICAgICAgICAgICAgICAgICAgICAgICAgICAgICAgICAgICAgICAgICAgICAgICAgICAgICAgICAgICAgICAgICAgICAgICAgICAgICAgICAgICAgICAgCiAgICAgICAgICAgICAgICAgICAgICAgICAgICAgICAgICAgICAgICAgICAgICAgICAgICAgICAgICAgICAgICAgICAgICAgICAgICAgICAgICAgICAgICAgICAgICAgICAgICAKICAgICAgICAgICAgICAgICAgICAgICAgICAgICAgICAgICAgICAgICAgICAgICAgICAgICAgICAgICAgICAgICAgICAgICAgICAgICAgICAgICAgICAgICAgICAgICAgICAgIAogICAgICAgICAgICAgICAgICAgICAgICAgICAgICAgICAgICAgICAgICAgICAgICAgICAgICAgICAgICAgICAgICAgICAgICAgICAgICAgICAgICAgICAgICAgICAgICAgICAgCiAgICAgICAgICAgICAgICAgICAgICAgICAgICAgICAgICAgICAgICAgICAgICAgICAgICAgICAgICAgICAgICAgICAgICAgICAgICAgICAgICAgICAgICAgICAgICAgICAgICAKICAgICAgICAgICAgICAgICAgICAgICAgICAgICAgICAgICAgICAgICAgICAgICAgICAgICAgICAgICAgICAgICAgICAgICAgICAgICAgICAgICAgICAgICAgICAgICAgICAgIAogICAgICAgICAgICAgICAgICAgICAgICAgICAgICAgICAgICAgICAgICAgICAgICAgICAgICAgICAgICAgICAgICAgICAgICAgICAgICAgICAgICAgICAgICAgICAgICAgICAgCiAgICAgICAgICAgICAgICAgICAgICAgICAgICAgICAgICAgICAgICAgICAgICAgICAgICAgICAgICAgICAgICAgICAgICAgICAgICAgICAgICAgICAgICAgICAgICAgICAgICAKICAgICAgICAgICAgICAgICAgICAgICAgICAgICAgICAgICAgICAgICAgICAgICAgICAgICAgICAgICAgICAgICAgICAgICAgICAgICAgICAgICAgICAgICAgICAgICAgICAgIAogICAgICAgICAgICAgICAgICAgICAgICAgICAgICAgICAgICAgICAgICAgICAgICAgICAgICAgICAgICAgICAgICAgICAgICAgICAgICAgICAgICAgICAgICAgICAgICAgICAgCiAgICAgICAgICAgICAgICAgICAgICAgICAgICAgICAgICAgICAgICAgICAgICAgICAgICAgICAgICAgICAgICAgICAgICAgICAgICAgICAgICAgICAgICAgICAgICAgICAgICAKICAgICAgICAgICAgICAgICAgICAgICAgICAgICAgICAgICAgICAgICAgICAgICAgICAgICAgICAgICAgICAgICAgICAgICAgICAgICAgICAgICAgICAgICAgICAgICAgICAgIAogICAgICAgICAgICAgICAgICAgICAgICAgICAgICAgICAgICAgICAgICAgICAgICAgICAgICAgICAgICAgICAgICAgICAgICAgICAgICAgICAgICAgICAgICAgICAgICAgICAgCiAgICAgICAgICAgICAgICAgICAgICAgICAgICAgICAgICAgICAgICAgICAgICAgICAgICAgICAgICAgICAgICAgICAgICAgICAgICAgICAgICAgICAgICAgICAgICAgICAgICAKICAgICAgICAgICAgICAgICAgICAgICAgICAgICAgICAgICAgICAgICAgICAgICAgICAgICAgICAgICAgICAgICAgICAgICAgICAgICAgICAgICAgICAgICAgICAgICAgICAgIAogICAgICAgICAgICAgICAgICAgICAgICAgICAgICAgICAgICAgICAgICAgICAgICAgICAgICAgICAgICAgICAgICAgICAgICAgICAgICAgICAgICAgICAgICAgICAgICAgICAgCiAgICAgICAgICAgICAgICAgICAgICAgICAgICAgICAgICAgICAgICAgICAgICAgICAgICAgICAgICAgICAgICAgICAgICAgICAgICAgICAgICAgICAgICAgICAgICAgICAgICAKICAgICAgICAgICAgICAgICAgICAgICAgICAgICAgICAgICAgICAgICAgICAgICAgICAgICAgICAgICAgICAgICAgICAgICAgICAgICAgICAgICAgICAgICAgICAgICAgICAgIAogICAgICAgICAgICAgICAgICAgICAgICAgICAgICAgICAgICAgICAgICAgICAgICAgICAgICAgICAgICAgICAgICAgICAgICAgICAgICAgICAgICAgICAgICAgICAgICAgICAgCiAgICAgICAgICAgICAgICAgICAgICAgICAgICAgICAgICAgICAgICAgICAgICAgICAgICAgICAgICAgICAgICAgICAgICAgICAgICAgICAgICAgICAgICAgICAgICAgICAgICAKICAgICAgICAgICAgICAgICAgICAgICAgICAgICAgICAgICAgICAgICAgICAgICAgICAgICAgICAgICAgICAgICAgICAgICAgICAgICAgICAgICAgICAgICAgICAgICAgICAgIAo8P3hwYWNrZXQgZW5kPSd3Jz8+/9sAQwAFAwQEBAMFBAQEBQUFBgcMCAcHBwcPCwsJDBEPEhIRDxERExYcFxMUGhURERghGBodHR8fHxMXIiQiHiQcHh8e/9sAQwEFBQUHBgcOCAgOHhQRFB4eHh4eHh4eHh4eHh4eHh4eHh4eHh4eHh4eHh4eHh4eHh4eHh4eHh4eHh4eHh4eHh4e/8AAEQgBaAFoAwERAAIRAQMRAf/EAB0AAQACAwEBAQEAAAAAAAAAAAAHCAQFBgMCAQn/xABWEAABAgUBAwcGBw0IAQMBCQABAgMABAUGEQcIEiEJEzE4QXWzIlFhdLGyFDI3OXJz0xUWFzQ1NlZXcXaSlLQjJDNCUmKBw4YlgpEmGEVVY2WhwdHx/8QAFgEBAQEAAAAAAAAAAAAAAAAAAAEC/8QAGREBAQEBAQEAAAAAAAAAAAAAAAExEUEh/9oADAMBAAIRAxEAPwC5cAgEAgEAgEAgEAgEAgEAgEAgEAgEAgEAgEAgEAgEAgEAgEAgEAgEAgEAgEAgEAgEAgEAgEAgEAgEAgEAgEAgEAgEAgEAgEAgEAgEAgEAgEAgEAgEAgEAgEAgEAgEAgEAgEAgEAgEAgEAgEAgEAgBIHSYD8yPOIBkecQDI84gGR5xAMjziAZHnEAyPOIBkecQDI84gGR5xAMjziAZHnEAyPOIBkecQDI84gGR5xAMjziAZHnEAyPOIBkecQH7AIBAIBAIBAIBAIBAIBAIBAIBAIBAIBAIBAICqG0NcuqVS2laPptYt4uUBE7TG3Ghnca5wh5alLISpR4NgD//AGCPX8FG1T+uWQ/mXPsYB+Cjap/XLIfzLn2EA/BRtU/rlkP5lz7CAfgo2qf1yyH8y59hAPwUbVP65ZD+Zc+wgH4KNqn9csh/MufYQD8FG1T+uWQ/mXPsIB+Cjap/XLIfzLn2EA/BRtU/rlkP5lz7CAfgo2qf1yyH8y59hAPwUbVP65ZD+Zc+wgH4KNqn9csh/MufYQD8FG1T+uWQ/mXPsIB+Cjap/XLIfzLn2EA/BRtU/rlkP5lz7CAfgo2qf1yyH8y59hAPwUbVP65ZD+Zc+wgH4KNqn9csh/MufYQD8FG1T+uWQ/mXPsIDj9XqVtI6Y2cu6a5q0malETDbBblH1FzeWSAfKaAxw48YCXdlnXyW1FkkWxc625O75ZviCNxNQQBkuIHYsDipH/uHDIBU+wCAQCAQCAQCAQCAQCAQCAQCAQCAQCAQCAQFU76+cJs/utPgzUEWsHRBSAQCAQCAQCAQCAQCAQCAQCAQCAQEAbfPV9me85X3jBK5q+NDVXppLZV72S59y75p1CkHWnWl818N3GEFKSofFdGPJX/7VcMEB12zNrkL5S5Z14t/cu+KdvNvsOo5r4ZucFKSk/FcGPLR2dI4dBU7QCAQCAQCAQCAQCAQCAQCAQCAQCAQCAQCAqnfXzhNn91p8Gagi1g6IKQCAQCAQCAQCAQCAQCAQCAQCAQCAgDb56vsz3nK+8YJUq6O/JHZ3cMj4CIKi7aZ0NVeS0XxY7hpd8U7ddadZXzXw3c4pBUPiujHkr/9quGCA9dmbXNN9oXZ94N/cu+KdvNvsOo5r4ZucFKSk/FcGPLb7OkcOgJ2gEAgEAgEAgEAgEAgEAgEAgEAgEAgEAgKp3184TZ/dafBmoItYOiCkAgOA1m1ctLSmlyk5cjsw69OO83LycolK33APjLCSoeQO056SB0mA6C1rtpNfsSRvNpapKlTkkJ4LnClstNFO9lZyQMDp44gILuLbF06p1YXJ02kV2sSzat1U4w2222v0oC1BRH7QIJ1MmlWpFqal2+aza0+X221BEww6ncfl1kZCXEdmR0EZB7CYKwNZdWbT0qpMrPXI7MOuzbvNy8nKJSt9z/UsJKh5Ke057QOkwG+tK7qTcdiSN5sLXJUuckxOhU4UtlprGSVnJAwBk8cQEG3JtiadU2sLkqZSa7WZZtW6qcYbbbbX6UBagpQ9JAgnUw6Uak2nqZQFVi1p9TyWlBEzLvI3H5ZR4hK0dmewjIPHBODBWn1o1qsrSplluvzD8zUphG+xTpNAW+pOcb5yQEJzwyojPHGcGA4jTnau07uuvMUWel6lb0xMrDbDs+EFhajwCStCjuEn/UAPTBOp3qlQkqVTZipVGaZlJOWbU6++8sJQ2hIyVKJ6ABBVc63tkadyVXVK0+i3BU5RCt0zjTbbaVjzoStQUR+0CCdTVphqFa2o9uiuWtUPhLAVzbzS07j0uvGdxxB4pP/AOx6QTBXNa0652PpWtqTrT8zO1Z5HON06RQFuhB6FLJIShJ7MnJ7AYDltMNqbTy9K8xQplmo2/PTKw3LGfCOZdWehAcQohKj2bwAPRnME6myuVam0OkTVXq86xJSEo2XX33lbqG0jpJMFUo2qtoe0NRbDm7OtunVZeJxp5M9MNpbaWGyScJzv8ezIH7BBLVutHfkks7uGR8BEFdVAQJtM6GrvFaL5sZw0u+KcUutuMr5r4bucUgq/wArox5K/wD2q4YID22ZtckX42u0LvbFLvinbzcxLuo5r4XucFKSk/FcGPLb7OkcOgJ1gEAgEAgEAgEAgEAgEAgEAgEAgEAgEBVO+vnCbP7rT4M1BFrB0QUgMWrtTL9Km2ZJ3mplbC0srzjdWUkJOfQcQH82NobTPUCxKhTKrqDX5atz1Z5wImETjsw5/ZBOQpTiQQPLGAPT0QZqbdY6rOU7YLsmXlHlNoqLdPlJjdON5rcW4U/sJbTmC1+bK+g2nt86KKr9zU9+cqdTfmGm5gTC0GUShZQkthJAzkbxKgc9HRAkRvsWTdUp2ukzQabOKbTP02elXCTgKU2kqbWR2EKTnPZkwI53aH0y1CsWeplX1CuCWrc7WFOIRMInHZhz+yCSQouJGB5YwB6eiCVNmrNVnKbsC2cxKPKbTUG5CUmN043miFrKf2EtjPog1XnspaEae31oy5X7npz87UqjMvstviZW2ZRKFbiS2EkDeyN4lQOejogkjgNiCdnaPtGposvMr+DTctOSswOgOBoFSSR5wUf8ZPngRiT9Ka1P20p+hXK++5JzVwTEq6ELIVzEulYS2D/lG60Bw857YHrc7belFnadzVsz9oU9VNZqomGZiVS6tbeWwghad8kgkLIIzjgD54FdRrtdlandiSwFzE24p2ruy0vOuFXF5DSHCArz5LaCfORArYbOGgGnt56As1+vyD8xWKsJhSJxMwtCpTccWhHNpB3eG7k7wOcnsgSOC2AKpOyWts1SW3lfBZ+lPCYbz5KlNKSUKx5xlQ/YowI1Fo0OW1Z2wZ+l3Y68/KTlXn1zCEOFJW2wHNxoKHEJw2lPDjgcMQPWftr6Y2npzdFActCSXTpaqSzxdlQ6paELaUgbySokjIXxGcZGRBK7XajuusVPZU0yVMzSyutol3Z9WeLym5feG958qIUfSBBbjh7l0ytOkbGlKv8AbklvXJUptpbk4t1X9mhTq082lOd0JwkccZJzxgcXe0d+SSzu4ZHwEQV1UAgIC2mdDXLvdRfdiuGl3xTt11txlfNfDdzikFX+V0Y8lf8A7VcMEBk7M2ubd+tLtG7WxS73pwU3MS7iOa+F7nBS0pPxXBjy2+zpHDoCdIBAIBAIBAIBAIBAIBAIBAIBAIBAICqd9fOE2f3WnwZqCLWDogpAICnvKSf4difTnvYzBKwNd+oppv8AW0/+negVL+w11daP65OeOqBFY9jXrRyv0Kj7q4EShykn4nYn1897rMCtZrb1DdPfrpDwnoFS3sK9XimevznjGCxWjY/61sn9Kpe45BIzNMevm7+81T91+B6kTlI/xCw/r573WYFcfrP1I9KvXU+HMQKsLsc9WS3Pq5v+odgsVe2EOsM13bOe1EEjK2aeuq73hWPY9Ajr+Ug/Ldk+rzvvswK0W0Z1VNGPV0/04gXG61E+bztb62W8d2BVqdHfkks7uGR8BEFdVAIBAQDtM6GuXc6i/LDcNLvinFLyFsr5r4bufFBV/ldGPJX2/FVwwQGVsza5N380u0rtbFLvenBTcxLuI5r4XucFLSk/FWMeW32dI4dATpAIBAIBAIBAIBAIBAIBAIBAIBAICqd9fOE2f3WnwZqCLWDogpAICnvKSf4difTnvYzBKwNd+oppv9bT/AegVL+w11daP65OeOqBFY9jXrRyv0Kj7q4EShykn4nYn1897rMCtZrb1DdPfrpDwnoFS3sK9XimevznjGCxWjY/610n9Kpe45BIzNMevm7+81T91+B6kTlI/wAQsP6+e91mBXH6z9SPSr10eHMQKsLsc9WS3Pq5v+odgsVe2EOsM13bOe1EEjK2aeuq73hWPY9AdfykP5bsn1ed99mBWi2jOqpox6un+nEC43WonzeVrfWy3juwKtTo78klndwyPgIgrqoBAIBAQBtM6Gu3Y8i/bCcNLvinFLqFsr5r4bufFBV/ldGPJX2/FVwwQGZsza5NX+wu1LrbFLvenBTczLuI5r4XucFLSk/FWMeW32dI4dATnAIBAIBAIBAIBAIBAIBAIBAIBAVTvr5wmz+60+DNQRawdEFIBAVD5RuVmpluxvg0s+/urnt7mmlLxwZ6cCCV18xpvOakbGFsW1KEM1Zilyk3JJe8hJebSfIVno3klSc9hIMFVgtrVDV/SOjVCwJZL9JC3VkMTkgS/LLVwUpknz9P+YZ4jpgymfYX0huGnXE9qPc0hMU9kSq2KYzMpKHnlOY33ik8QndBAzxVvE9AySxm8o3KzUzJ2N8Gln3916d3uabUvHks9OBArqhpxN6j7Ftt2zKkMVVqmS01JB7yU8+3nCFZ6N4FSc9mQYKrFbOp2r+j9KqNhyyH6QFurVzE7IFT0s4rgpTJPnxn/MnPEdMGcTHsM6Q3FJXM7qTcsjM09hEs4zTWplJQ8+tz47xSeITu5AJ+MVE9A4lkcttNaeXtpnrM/qlaTM0unzU8aizOyzPO/A5hX+Ih1ODhJJVgkbpCsdIgOFrVZ1a2jLvpkkuTM+9KgtMJlpUsykolRG+44riE5wMknPAADsgmraav6HuVrZtpen1BeS7U7eaZekFOEIEy62khaSehO+FrxngCRnhBpUmgaq6vaZ2zPaby/wAIpbZW4hLE3Tz8JlSvO+GiejJJPQricjpgynTYU0hr9Bqc3qFcsg/TedlDK0yVmEFLq0rKSt5STxSMJATnick9GMliO9fbDvvRzWmY1GtNma+5r885Pyc+wzzqJdbuS4w6nBwMqUOPBST05BwK5Ocf1X2kr7kUPSpmnGUcwlxmVLMlINE5UtR4gec5JUrAA7BBNWu2htFH7k0Eo9p2v/bVG122VU9CyEmZDbXNrRk8ApQ4js3gBwzmDSl1wXvftP02XpLXmXJalSk0HkS05JqbmJdSVFW4FHBCd4k4IPTwOIMv6RaO/JJZ3cMj4CINOqgEAgEAgK/7TOhrt1Pov6wVmmXxTil5KmF818N3Pi+V/ldGPJX2/FVwwQRnbM2uTWoLC7VupsUu9qcFImZZxHNfC9zgpaEn4qxjy2+zpHDoKnKAQCAQCAQCAQCAQCAQCAQCAQFU76+cJs/utPgzUEWsHRBSAQGHU6pTKYhK6jUJSTSs4Sp99LYUfRvEZgMmXeafZS8w6h1tYylaFBQUPOCOmA/HUM8HHUo8jiFKA8n/AJ7ID9ZcadRvtLStOcZSrIgMap1SmUxCXKjUJSTQo4Sp99LYJ9BURmAyJd5mYZQ8w6h1pYylaFBSVDzgjpgP1xtpRC3EIJRxBUAcf/1AYchWaRPTC5aRqkjMvI+O2zMIWpP7QCSIDPIBgMCeqNHpCECdnpGQSs+TzzyGgo+jJGYDMZcbeaS60tLiFDKVJOQR5we2A/HUM5DriUZRxClAeT/z2QGLTqxSKg6tmn1OSm3G/jpYmEOFP7QCcQGaQCMEZBgMCeqdGpHNtzs/ISG/8RLzyGt79gJGYDObWhxCVoUlaVDIIOQR54CANvlCPwATK90bwqUqM44/GVAqV9Hfkks7uGR8BEB1UAgEAgEAgK/bTOhr10zCNQLAcVTL4p5S8lTC+b+G7nxfK/yujHkq7fiq4YIDYbM2uTOoMsu1rpQKZe1PCkTMs4jm/hW5wUtCT8VYx5bfZ0jh0BOMAgEAgEAgEAgEAgEAgEAgEBVO+vnCbP7rT4M1BFrB0QUgOa1SulFlaeV26lsh80yScmENHocWBhCT6CogQFArB091G2jbkrlwTNblFOypT8InKitZQFryUstISDupAB4AAAY6SYJrotmm8Lu0n12Z03rT7hp03UvuXOyJd32mn1HdQ812DyinJGN5KuIyBgRstqraAuqvTle08ptL+4lHlp12RnHwtS3p0NrKcb2AEIVu5KRkkcM4yCLUj7J10IszZHr91Otc/wDcybn5hLZP+IoJRupPoKsD/mCoEsOwNRto+563XpqtyinZTdMzN1Fay2hS8lDLSEg7qQAeAAAA7SYM63+zhd93aRa7s6c1qYc+501UhTJ+R50rZbeWcNvNebiUnIA3kq4jIGCx2e3XqVcT95S2ltBmJiWlOYaXPIYWUrm3nj5DRI/yAbvDoJVx6BAqLNTtC9QNHKFS71mKnJIPPobU7S31oeknlAlOVYGegjeTwyPMYItDp3rfUJzZSqOo9UZbmazRGnZR/I3UTEykpS2sgdAVzjZUB/uxBpV/TrTDUXaFqtbuZ+uyrjsu4EPztUcWQt1Q3g0hKQd1IGOAACQRgGCa6vZQvi69ONbEaYVt9006bn3KbMyK3N9ErNDIS412DKhg44KCgekCBG722tQrnr+prOk9vvvsyTXwdp+XZc3DPTT+6UJWeGUAKQAk8Mkk5wMCo21Q0Y1A0OlqNd66vKIU5MBpE3SnloclX90qCSSEkghKuI4HBBHEZItJSdcp9zZJf1OfZZXXZVlUmtO7htc4HA0leB/lJUlZHDtEGlXtNdINRdehWrwVWpR1bT5aXOVV1alTD+6FFCd1J3QApPmAyAB5jOu12NNQLns/VtOltcffVTZt9+TMo6vfElNthRyg9gJQpJA4HIP7Sxi7X2ttbu+dq2nbdBbptHplVW09MLKnHZpbK1JSoHAShJPHAyejjAtZtk6vbQzOkqbgoVJoTtp0GWEoqbcl295CGEpTxSXQpRAKehPHMBstOtatpfUJqeds+i0GpokVITMqEohsIKgSkeW6M8AeiB1q57aL1/kb3NlTcjQGq+JxEl8EVJJ/xlEBKd7nd3jvDjnHHpgdYVf2n9caDV52k1aWocrOSL65eYQaYSEOJOFJ3gvB4jpBgddVY2re1De1uu3BbFBoFQpjLq2VvCXbbwtABUMKeB4AjsgOIXtaaxN45xNCRno3qWoZ/wDlcE6km2L+2tblt+Sr1EtegTdOnmg9LPBplO+g9Bwp8EdHaIL9bL74tsn9DaD/AAS/28D6iHWK0teV1ReqdzWlJUCcpSEvv1SlussrylQCXFBLqipYyBkDOOByBA+rn6AXVU730dtu6KyGRUJ6VJmC0ndSpaVqQVAdmd3OBwyeEFd1AIBAIBAIBAIBAIBAIBAICqd9fOE2f3WnwZqCLWDogpARftX9Xe9O7/8AsRAQ9ycn5q3l3gx4RgkxEV69ef8A8wk/eagerG7e4A0EdIA41aU9qoLUW6VdQG9vr5z3mYEb7k4vzdvX16W8NcEmIl1H68iv3tkfazAus/as64LX19K/64HqwO3r8gL3esr7yoFQpp1839f/AHufElYHiReTn+Tq5++R4CIExC6uvf8A+bf9kD1m62delnv+keyXgl1OPKFfIhId/wAv4b0FqIaT83pWO/x/UtQPEtcnj8i9V7/e8FmBECae9eUfvdPe89AmrHbegA0AdIA41SU7P9yoLUW6TdQO+Pr532swSN5ycP5v3r67K+GuBETakdeNX72SPtZgXVktvAAbP82QBxqcp4hgtYXJ9fIVNd+zPuNQSOP5SFIFKsfAA/vU52f7GoFxN+y51fbK7qb9pgqS4CLdrLq7Xn6gPERAeOyB1b7O9Wd8dyCRLEFIBAIBAIBAIBAIBAIBAICqd9fOE2f3WnwZqCLWDogpARftX9Xe8+7/APsRAQ9ycn5q3l3gx4RgkxEV7def/wAwk/eagerHbfHyBud7SntVBaizSrqA3t9fOe8zAjfcnF+bt6+vS3hrgkxEuo/XjV+9sj7WYF1n7VnXBa+vpX/XA9WB29fkBe71lfeVAqFNOvm/r/73PiSsDxIvJz/J1c/fI8BuBMQurr3/APm3/ZA9ZutnXpZ7/pHsl4JdTjyhXyISHf8AL+E9BaiGk/N6Vjv8f1LUDxLXJ4/IvVe/3vBZgRAmnvXlH73T3vPQJqx23r8gDvekp7yoLUW6TdQO+Pr532swSN5ycP5v3r67K+GuBETakdeNX72SHtZgXVk9vHq/zfecp4hgtYXJ8/IVNd+zPuNQSOP5SL8lWN61Oe41AuJu2XOr7ZXdTftMFSXARbtZ9XW8/UB4iIDx2QOrfZ3qzvjuQSJYgpAIBAIBAIBAIBAIBAIBAVTvr5wmz+60+DNQRawdEFIDgtoehz9x6J3bR6Wyp6dmKa5zLSRlTik4Xuj0ndwPSYCnux/rVa+l8vcNMupmeQxUXG5hiYlmedwpCSkoUnORnIwfPkHEElaKyJyZ1T2vpCv0eQeZZnLgRUi2vipmXZKVFSyOAO6gejKgOME2rObe/wAgbne0p7VQargNAaHP3JsPXfRaY0p6dmXp8MNJGS4tIbUEj0ndwPSYER7sfaz2xpcm4qddTM8hipLafZflmedKVoSpJQpPSM5GD5wQcQSVo7UnpjVba9kK9RpB5pmduBqoc2sZUzLslKipeOAO62M9mVAZgm10e27I1G3doqTul2VK5Wbl5SalVHglxTBAWjPnBSnPoUDBa3G1LtCWhqPphJ21bUpUvhcxNtTU0Zpnm0y4Rk7mcnfUSQMjhgHj2QLW90usmvTewXdEizJOKmqu49UpNnd8t1pCmiMDpJUGVEefI88BxuyBrhaemFDr1GulmfS3OTKZyWflWed3iGwgoIyCD5IIPRxOcQJXP6PvTmpW1/J3HTJBxlqYrrlZcbUc8xLoJV5ZHDPxU/SUAIEbXazan7M2rG7umZJbsq49IVSVHQHkshsLQD5wpsj0ZB7YJW42tdfLQ1MsOlW5a8vUSsTyJ6adm2OaDO6hSQ2OJ3lZWckcAB0nMFtdJQ7HrznJ+T8omSe+GTLqqy1L7h31MJfSvOPS2grHoIgeOZ2R9ebQ0ysir27dLFRClzyp6VdlGOdDu82hJbIyN0+QCCeBz0jECOa2bET997WcvcknJLaZNSm6zND4wl2lc4QCfpLSn0kwSaslt7fIA6P/ANUlPeVBqo/2faHP3JsQXhRaY0Xp2Zenww0kZLiwltQSPSd3A/bBIjzY+1ntnS374qddTE8iXqSmnmX5dnnShbYUkoUnp4gjB84IOIEaO15+Y1W2vJGvUWQfaZnrganw2sZU1LslKiteOA8lvJ44yQMwTatFt49X+a7ylPfMGqwuT5+Qqa79mfcagkcfykX5Ksb1qc9xqBcTdsudX2yu6m/aYKkuAi3az6ut5+oDxEQHjsgdW+zvVnfHcgkSxBSAQCAQCAQCAQCAQCAQCAqnfXzhNn91p8Gagi1g6IKQCAhbUTZl0uvSuvVt+Sn6ROzCy5MKpkwGkPLPSpSFJUkKPaQBnpPGBx1+k2k1k6YybzNrUwtzEwAJicmHC7MPAdAKz0J/2pAHbiA2GqNhUHUe1zblxiaMiX23yJd7m17yM444PDjAfmllgUDTe1zbttpmhImYXMf3h7nF768Z44HDgIDgtRtmbS+9q69W5mSn6TPTCyuYXTJgNJeWelSkKSpO8e0gDPScmCcdbpLpLZGmEq83a1MU3MzACZidmHC7MOgdCSs9Cf8AakAZ44grbai2La+oFAVRLrpTU/Kb2+2SSlxleMBaFjilXpH7DkQEUW9sl6S0mroqDzFYqyG17yZWenApjPZvJSlJUPQSQe3ME4nlhlphhDDDaGmm0hCEISEpSkDAAA6ABBUKX7svaV3bXHqwuTqNHmZhZcfFLmA026o9KihSVJBPbugeeBx3GlOlll6ZU52UtWl8w5MY+Ezbyy5MP46N5Z7B2JGAPNAZmpen1p6i0IUe66UidYQrfZcCih1hf+pCxxSfP2HtBgIxtXZQ0moVZbqTstVazzSwtEvUZoLYBHRlCUp3/wBisjzgwTidkIQhsNoSlKEjASBgAeaCoOvTZX0ouWtu1YSlTozr6yt1qmTIbZUo9JCFJUE5/wBuB6IJxIelumtn6a0ddNtSlJlQ8QqYfcWXH5hQ6CtZ4nHHA4AZOAIK99UbDoOo1rKtu4xNGRU+2+RLvc2veQSRxwfPAfGlmn9v6bWwbdttM0JEzC5jEw9zi99eM8cDh5IgOE1H2Z9L73rr1bmZKfpM9MLK5hdMmA0l5Z6VKQpKk7x7SAM9JyYJx1ekuklkaYSrzdrUxSJmYATMTsy4XZh1I4hJWehP+1IA7cQVtNT7EoWotquW3cQmTILebeIl3ebXvIORxwYDy0q0+t7TW2V29bSZpMkuZXMkTL3OK31BIPHA4eSIDA1f0ntPVNims3SmeUimrcXL/BZjmjlYSFZ4HPxRAdJZVuU20bUp1tUgPCQpzAYYDq99e6OjJ7emA3EBFu1n1dbz9QHiIgPHZA6t9nerO+O5BIliCkAgEAgEAgEAgEAgEAgEBVO+vnCbP7rT4M1BFrB0QUgEBx+qepNp6a0aXql1T6pZqZe5lhtpsuOuqxk7qBxIA6T0DI84gNzbFx0q4rTkbop75FMnZZM0068nm8NkZyoH4vDzwEPXDtY6RUirrp7U5VqqG1bqpqQkt9jPbhSlJ3h6Ugg9mYHUq6e3xa9/UBFctWrM1CTKtxe6ClbS+1C0HCkq9BHpHCAw9UtR7U02ojFWuqfVLMzDwYYQ22XHXVYyd1A4kAcSegcPOIDb2rclKuS05G6Ka8r7mT0sJlpx5PNnmyM5UD0cPPAQ/ce1hpHR6w5Tmpyq1YNq3FTNPk+cYyOnClKTvD0pBB7MwOpU07vm1r/oCa3alWaqEpvbjm6ClbS8ZKFoOFJV6CPSMiA1eq+q1k6ZSTL91VXmXpgEy8oyguzDwHSUoHYP9RwPTAcjp3tL6W3rXWaJKVCepc9MKCJdFTlwyl5Z6EpWFKTvHsBIz0DMDqYpl9mWlnZmZebZYaQVuOOKCUoSBkkk8AAO0wEEVva00iptXXINTVYqSEK3TNScjvMekgqUkqHpAIPZmCdS5Yd423fNvtV61qqzUZFwlJWjIUhY6ULScFKhnoIBgrQas6vWNpgyz99NUUibmE7zElLNl2YcT0b26OhP+5RAgOd0z2jtMb9rjVDp1QnKdUX1bsuxUpfmefV/pQoFSSrzJyCewGAlmoTkpT5F+enplmVlZdsuPPOrCENoAyVKJ4AAdsBBNT2t9IpOrKkWpitzrSV7vwuWp5LJ9I3lBRHpCYJ1Mll3Vb95W+xX7ZqjFSpz+Qh5ongR0pUDxSodqSARBWq1R1GtTTaiM1a6p9UszMPBhhDbZcddVjJ3UDiQAMk9A4ecQG2tS5aVc1pyN0Ux5X3MnpcTLTjyebPNnjlQPR0dsBEFybV+kdGrDlOanarVg2rcVM0+T5xjI6cKUpO8PSkEeYmB1KWnd9WtqBQU1u1Ks1UJXe3HMApcZXjO4tBwpKvQR6RkQGPqhqLaum9DarF1T6pZh94MMobbLjjqyMndQOJAAyT2f/EBtrNuKmXba9PuSjrcXIVBkPy6nEFCik9GQejogNvARbtZ9XW8/UB4iIDx2QOrfZ3qzvjuQSJYgpAIBAIBAIBAIBAIBAIBAVTvr5wmz+60+DNQRawdEFIDFq6ZtVKm0yCgmbLCwwTjgvdO708OnEB/NbaGtHVeg1Wm1fVWfM9O1IOIlnTPJfwG90qSEp4IT5Y4AAQZqddW65P0bYKs5iQeUyKrLSEjMFJwSypta1Jz5jzYB84JEFrS7M+ztZmoejyrluCZqX3Sn332pZyXf3EygbUUAhOMLJIJO9wxgADpgSOP2JatWqRrTPW7TZk7tSp02y4nOEKdZSVNLweGQQR+xRgRy20PaOrNCqVNrOq1QM/N1HnG5VwzyX90I3SpISnCW0+UOAAEEqc9UK5P0XYFtJqQeUz91JeSkH1JOCWlBalpz5lbm6fQSINNHsxbPFmah6RO3LcMxUvuhPTD7MsuXf5tMqG1bgUE4wsk5J3uGMDA6YJI5jYZqlRom0Eu3WZkmUqErNS80gfFWWcqQvHnBScehRECNfclOc1b2yp63a/PTDcrMVx+RKmz5TctLheEIzwTkNnjjpUTBPWZti6O2zpbOW5OWoucalaqH23Zd94u82trcIWlR48QvoPQRkQKkDXq+a9P7FdkzT024Zqvql5WoPb3lPIbQ4VZP+4tJJ8/HzwWsHZ+2cbMvrQtu6KzNVIVipiYVLPMv7qJXcWpCPIxhfFOTvdOcDHTAkc5yflcqEjrDPW+h5RkalTXVPtZO7zjKklC8ecBSx+xUCNBS6MdaNruoUi5p6ZRLTlVnA6WleWliWC9xpBPxRutpTnsyT0wNr12v9Kbf0quigrtJ6dYlanLuOcy68XFMOtKSN5Cz5WDvA8c4I6fMS/ElbU171up7K2nrjsytLlyIl3KkoH/ABtxjfIPoK8KI9AgtxhaT7N9m3Ts7N3bUJuoiv1CSfm2H23sNy5SVhCeb6FDyBvZ4nJwRwgcaTk/K7V2r1uS3JN9XMTtFVNobJ8lMw2pKULGeGcOEHz4GeiBEe7Q9o6tUKo02tarVAz83UecalXDPJf3QjdKkhKcJbT5QOAAIJU5amVyoUXYEtRqQeUz905eSkH1JOCWlBalpz5lBG6fQSINNHsw7PNmaiaSPXJcUxUjUJ2ZfYllS7/NplQ2d0KCcYWSck73DGBjtgkjkdimp1iia8TNuSE0dyoSU5LPJ6ELWylSm14PaFJOPMFEQI5naHtHVuhz9Nreq1QM/M1AralXDPJe3dwJUpKUpAS2nygcAAGCVePZc6vtld1N+0waSXARbtZ9XW8/UB4iIDx2QOrfZ3qzvjuQSJYgpAIBAIBAIBAIBAIBAIBAVTvr5wmz+60+DNQRawdEFIBAU95ST/DsT6c97GYJWBrv1FNN/raf/TvQKl/Ya6utH9cnPHVAisexr1o5X6FR91cCJQ5ST8TsT6+e91mBWs1t6hunv10h4T0Cpb2FerxTPX5zxjBYrRsf9a2T+lUvccgkZmmPXzd/eap+6/A9SJykf4hYf1897rMCuP1n6kelXrqfDmIFWF2OerJbn1c3/UOwWKvbCHWGa7tnPaiCRlbNPXVd7wrHsegR1/KQfluyfV5332YFaLaM6qmjHq6f6cQLiw+zr1TaD3LMe12Cq0cnp8tU73A94rMEmpB5SP8AELE9YnfdZgVqtaeoXp/9dIeG9BalnYT6vVO7wm/FMCK1bIfWwlPp1P3HIJ6lTlIvyVY3rU57jUC4m7Zc6vtld1N+0wVJcBFu1n1dbz9QHiIgPHZA6t9nerO+O5BIliCkAgEAgEAgEAgEAgEAgEBVO+vnCbP7rT4M1BFrB0QUgEBT3lJP8OxPpz3sZglYGu/UU03+tp/9O9AqX9hrq60f1yc8dUCKx7GvWjlfoVH3VwIlDlJPxOxPr573WYFazW3qG6e/XSHhPQKlvYV6vFM9fnPGMFitGx/1rZP6VS9xyCRmaY9fN395qn7r8D1InKR/iFh/Xz3uswK4/WfqR6Veup8OYgVYXY56slufVzf9Q7BYq9sIdYZru2c9qIJGVs09dV3vCsex6BHX8pD+W7J9XnffZgVotozqqaMerp/pxAuLD7OvVNoPcsx7XYKrRyeny1TvcD3iswSakHlI/wAQsT1id91mBWq1p6hen/10h4b0FqWdhTq9U7vCb8YwIrVsh9bCU+nU/ccgnqVOUi/JVjetTnuNQLibtlzq+2V3U37TBUlwEW7WfV1vP1AeIiA8dkDq32d6s747kEiWIKQCAQCAQCAQCAQCAQCAQFU76+cJs/utPgzUEWsHRBSAQFPeUlIDdiZIHlz3SfQxBK6mraf1DUfYktWjUcBdUlKZJz8k0SAHnG0kFvJ6CpKlAenEFVz08131F0ntWoWHKSckwUOuFsVGXWmYkHFfHwnI7eOFA4PnHCDKUNgzTOvLu53UusSr8rTmpZ1mQW8kpVNuu4C3Eg9KAnI3uglXDoMFjb8pKQJOxMkD+2nuk/7WYFdLN2BP6j7ENsUSkbqqpL02VnpJtRADrjYP9nk9BUlSgCeGSMwVXPTvXbUXSO2alYsrIyTJS84UJqUutMxIOq+PhORnjxwoEZ9HCCdSbsH6aV9+83NTKvLPy1OYl3WpFx5JSqbed4LWkHpQE73ldBKuHQYEcxtG2veGj2vrupNEYX8Am6iqpSM8Wt9lDrmedYd82SpYwSMpVwOQcCuTv2/NRNoq8KNSWqRLPTMsFNycjTW1c22Vkb7q1KJIHkpyokAAf/JNWk1m0TqNQ2X6NY1CUJ2r202zMMJScfCnEIUHUpz0FW+spz2gDtg1VYbG191E03sWc09lJeRYS2p1DK51haZqQKyStISSBneJICgcE9o4QZS3sC6Y1yUrk1qPWJN6TkVSapSmB5JSuYK1JK3QDx3AE4B7So46ILHA602/eehGvz190aX/ALhMVB6dps4tsrl1pe3i5LuEdB8tScZBIwR6A5q8br1E2kdQaXJs0qWdm2myxKysi2rmJZCiCt1xaiSBwBKicYAAHnJq0e0bovUKxs8UC27ZQqeqVpNsqYaSPKm0Ia5twJH+o/GA7cY6TBarFbO0DqDZ2mUzppLtU9pltDss1MTLChNyiFk76ACQMgqVjeTkZ7cDA6m3YD0xrdHfqWoNbknpFmckxJU1p5BSt1sqStbu6eIT5KQnPTxPRgkR88pKQJCxCSB/eJ3p+izAro37AntR9iG2aHSd1VUl6bLTsk2ogB1xve8jJ6CpJUATwyRmCq56da66i6RW3UrFlZGSZKXnFIRUpZaZiQdV8fCcjPHjhQIz6OEGfqS9g/TWvzN6uam1eWmJanMS7rci48kpVOPO8FrTnpQElXldBKuHQYLHQ8pGQKVY+SB/epzp+g1Aqbtlzq+2V3U37TBUlwEW7WfV1vP1AeIiA8dkDq32d6s747kEiWIKQCAQCAQCAQCAQCAQCAQFU76+cJs/utPgzUEWsHRBSAQGNOyslMhJnJeXeCPil1CVYz5swHsy2200lppCW20jCUpGAB6BAYNRoNEqMyiaqFHp82+j4jr8qhxaf2EgkQGwQEpSAkYA4AYgMedlZKZCTOS8u8E/F51CVYz5swHsy2000lplCW20jCUpSAAPQBAYNRoNEqMyiZqFHp82+j4jj8shxSf2FQJEBsEBKUhKRgDgBjEB5zbMvMS62Zppt1lYwtDiQpKh6QeEBi0ikUeloUmlU2RkUOcVCWYQ2Fft3QMwGfAa2doNDn5xM7O0enzMyjG689KoWtOPMojMBsgABgDAgPGblpacl1y80w0+ysYW26gKSoekHgYDwpVJpdJaU1S6bJyLajlSJZhLYJ85CQMwGb0wGtm6BQ5qfTUJqjU5+bTgpfclUKcH7FEZgNkOiAx52VkpkJ+GS7DwR8XnUJUBnzZgPVhtpppLTLaG20jCUpTgAegQGDUqFRKjMImajR6fOPN/EcflkOKT+wqBIgNghKUpCUjAHADGMQHjNycpNhImpZl8J+LzjYVj9mRAejDTTLSWmW0ttpGEpSnAA9AEB9wEW7WfV1vP1AeIiA8dkDq32d6s747kEiWIKQCAQCAQCAQCAQCAQCAQFU76+cJs/utPgzUEWsHRBSA5/Ue55azLErV0zTZdapkm5Mc2DguFI8lOezKsDPpgP5/USh6v7SFyVaqoqAmhJkKcMzNqYlJbeyUMtJGccAegdmVHJ4mddhsval3pp5rAxphdkxNu0+anjTHZOadLhkpknCFNqJOElWAQDukKyILG22otpWrVB+uad2tIu0huXm3ZGfn1PgvvBtZSpLYT8RJKeJySRw4QLXf7KF4qtzZVrl31h6ZnhS5uemCHHSpa9xKClAUc4ycD/mCq9Uajav7SNz1apoqAmBJ4W58Jm1MycrvZ3GWkjODgHoGeGVHjxM667Zk1JvXTfWJjTK7Jibcp0zP/AHMfk5l4u/ApgnCFtKJOElWAQDukKz0wWJV2qdo6fsSsVCw7apZbrQl2yqpvuDcYDiMgttjipYB4EkAHsMC1oOTvqtQnTfLtTqU3NBoSat6ZfW5u/wCMSfKJgRFd23RqRtJarTFBtyYeRTEqcXJSPwksy0vLIOOedx8ZRynJIJyoADEDWLbdy6k7NuqbVHrcw8ZNJbcnaeJkvSs3LKP+I3noVgKwoAEFOCMZEExPm0/tKTVlT81ZtqU3/wBVdlGnU1R9wc2yh1G8lTbfSpeDw3sAHsMFtc/ydlTqVRnb2NRqM5OFKZMpMw+tzBJeyRvE4zAjUbUu0pVZmarunFrSLlJEtNOyM/UVPgvOhCilSWgn4gOOKiScHGBAtSpsDzk5PaITL07NPzTorcykLecUtWAhrhkknEFiAdonaXrN+yy7ZtuUfoFHQ9mYc+EZmZkoVwBKMBCMjOASTgZOOEEtWp2RJiYm9nS0ZiafdfeWw8VOOrKlK/vDvSTxMFV92pNpSqzszXdOrWkXKS3LTbsjP1BT4L7wbWUqS2E/ESSOKsk4OOEEtd7sm3gq3dleu3dWX5meFLnJ6YIcdKlrCEIKUBRzjJwP+YEV6o9H1f2krpqtSbqAmBJ4W58Jm1Mycpv53GW0jODgHszwyo8YJrrdmbUm9tNdYmNMrsmJtynTM+KZMScy8XfgUwo4QtpRJwkqKcgHdIVnpgsb7al2lKtMzVe04taRcpIlpp2Qn6gt8F50IUUqS0E/EBxxUSTg4wIFqTthOpzLugs/P1CZmZtbNYmiVOulat1LbZwCowIr1tAbSlc1KZZo1AlnreobTodWETOZmZWPi76kYCUjp3RnjxJOAALVxtmR96Z0Es1+YecedXTGytbiipSjk8ST0wVI8BFu1n1dbz9QHiIgPHZA6t9nerO+O5BIliCkAgEAgEAgEAgEAgEAgEBVO+vnCbP7rT4M1BFrB0QUgIv2r+rvefd//YiAh7k5PzVvLvBjwjBJiIr168//AJhJ+81A9WB276TS5fRB+dl6bJtTTlXlit5DCUrUSpWcqAycwWo50q6gN7fXznvMwI33Jxfm7evr0t4a4JMRLqN15FfvbI+1mBdXD2kaTS3dFr2qDtNk1ziaJMkPqYSXAQ2ceVjPCCq98np+TdRvV5X3X4JHMcnf8stV7gc8ZmBHxyh3y0U/93mvGfgXVndXqTS3dm+4Kg7TZNybTaqyl9TCS4MS/DCiM8IKhLk3Pxy+PoSPtegkSFt10mly+hk7PMU2Taml1OVK3kMJDiiVnOVAZOYFfnJ9fIVM9+zPuNQI5PlCqTS6fY9suSFNk5Va6s4FqZYSgq/sVHiQBmBUtbHXVss/6h/+odgrj9u+k0uX0OmZ2Xpsm1NOVaVK3kMJStRKlZyoDJzAqONJuoHfH1877WYJG85OH8gXr67K+GuBETakdeNX72SHtZgXVh9uqlUtjQyenmKbJtTTlUlSt9DCQ4olw5yoDJzBa+eT7AVoTNpUAQa5NAg9vkNQSOE5RGlUym0uyjT6dJyZXNTYWWGEt72EN4zugZgVPWy51fbK7qb9pgqS4CLdrPq63n6gPERAeOyB1b7O9Wd8dyCRLEFIBAIBAIBAIBAIBAIBAICqd9fOE2f3WnwZqCLWDogpARftX9Xe8+7/APsRAQ9ycn5q3l3gx4RgkxEV7def/wAwk/eagerHbfHyBud7SntVBaizSrqA3t9fOe8zAjfcnF+bt6+vS3hrgkxEuo3XkV+9sj7WYF1c/aM+Qe+O45rwzBVb+T0/Juo3q8r7r8EjmOTv+WWq9wOeMzAj45Q75aKf+7zXjPwLq1OrHVguH91XP6eCoG5Nz8cvj6Ej7XoJEn7eXV/mu85T3zAYPJ9fIVM9+zPuNQI0HKNfmHa3e6/AVAuJN2OurZZ/1D/9Q7BXN7e/yAvd6ynvKgVFmk3UDvj6+d9rMEjecnD+b96+uyvhrgRE2pHXjV+9kh7WYF1ZPbx6v833nKeIYLWFyfPyFTXfsz7jUEjj+Ui/JVjetTnuNQLibtlzq+2V3U37TBUlwEW7WfV1vP1AeIiA8dkDq32d6s747kEiWIKQCAQCAQCAQCAQCAQCAQFU76+cJs/utPgzUEWsHRBSAj3aSpU7WtCrwp1OZU9NOUxxTbaRlS9zCyAO0kJOICqOxVq9ZenkpclLvCfcpqJ9xqZlpnmFuoVuoKSghAJB4gjhg8YJK5O3aiNSdsaQrlAlXzLT1zNzrSXE+WlhopUpagOjyWycdmcQPVnNvf5A3O9pT2qgtR3oZSZ2t7Ct5UynMqemnXZ8ttpGSspDa90DtJCTiA5DYp1csvTtm5abeE+5TW6itmYlpnmFuoJQlSSghAJB4gjhg8f+SSuUpNSTqZtiSNbt+WfMtP3KzNspcThYYZKSpah2eQ2VY7M4gm1d7aM+Qe+O45rwzBpXPk62i/LagsJICnGpNAJ85D4gkRhsrXnSdI9aJ43sH5Bgyj9LmXOaUsyzqXUHK0pBVjLZBwDjI7IJHjtXXvSNVtYpeZs0TE9LIkmaZLOc0pJmnS4s5QkgKwS4EjIBOIHq6+tMq5JbN90ybuOcYtp5pWOjKWMH2QaV/wCTc/HL4+hI+16CRJ+3l1f5rvOU98wKweT6+QqZ79mfcagRoOUa/MO1u91+AqBcSbsddWyz/qH/AOodgrm9vf5AXu9ZT3lQKjrQikztb2GL0plOaU9NOu1AttpGSspS2rdHnJCTiCRx+xTq5ZmnaLkpt3z7lOaqKmZiXmeYW4glCVJKCEAkHiCOGDx/5ErlaZU06mbYcjWrelnzLT9ysTTKXE4WGGSgqWodnkNlWOzOIJtWi28er/Nd5SnvmDVYXJ8/IVNd+zPuNQSOP5SL8lWN61Oe41AuJu2XOr7ZXdTftMFSXARbtZ9XW8/UB4iIDx2QOrfZ3qzvjuQSJYgpAIBAIBAIBAIBAIBAIBAVTvr5wmz+60+DNQRawdEFIBAV81H2TtPrqrz1Zps3UbcemFlb7MkEKl1KPEqShQ8gk9iTj0QTjt9FdErK0qbeeobExN1SYRzb9RnFBbykZzuJwAlCc8cAccDJOBBW51i07pOp9nKtiszk7KSpmW5jnJRSQ5vIJIHlJIxx80B86Nac0jS+zzbNFnJ6blTNOTPOTaklzeXjI8lIGPJHZARlqTsoafXZXn61Tpuo27MTKy4+zJbimFqPEqCFDyCT2JIHognHaaK6IWVpUl6YojMxOVV9HNvVGdUFvFGc7icAJQnIzgDjwyTgQV2t8W7KXbZ9WtmfefZlapKOSrrjJAWlKxglOQRn9ogOK0M0Wt3SNVXNBqVUnfupzXPfDVNnd5vfxu7iU/6znOeyBxp9ZtnKxNSququvqnKNWXAA9NyBTh/AwC4hQIUQOG8MHzk4EDjz0b2bbD04rTdebXO1usNZ5iZnyndlz0bzbaQAFf7jkjsxA4lK9rflbrtGrW1POvMytTlHJR1xkgLSlaSklOQRnj2iA4fQzRS3dI3as5QanVZ01QNB74ats7vN72N3cSn/AFnOfRA43+sGn1K1Nsxy1qzNzspKuPtPlyUUkOZQcgeUCMf8QHloxptSNLLRctqiTs9OSq5tybLk4pBXvLCQR5KQMeSOyAw9b9JqHqzSKdTK7UKlJNSEyZhtUkpAUpRQU4O8lXDBgN9pjZ9PsCxaZaFLmJqZk6chaGnZkpLigpalnO6AOlR6BAYOsWnlK1Os1Vr1mcnZSVVMNzBclFJDm8gkgeUCMcfNAfGjWnFI0utBVs0WcnpuVM05Nc5NqQV7y93I8lIGPJHZARnqVsoafXbXn61Tpuo27MTKy5MNSW4phajxKg2oeQSf9JA9EE47PRTQ+ydKg9M0RmYnaq+jm3qjOqC3ijp3E4AShOeOAOPDJOBBW91g0+pWptmuWtWZudlJRx9p8uSikhzKDkDygRj/AIgPLRfTakaWWi5bVEnZ6clVzbk2XJxSCveWEgjyUgY8kdkBrNctHaBq5L0livVGpySaW464yZJSAVFwJB3t9Kv9I6MQHV6fWvJWXZdKtanPzD8pTJdMu04+QXFJGeKsADPHsEBvoCLdrPq63n6gPERAeOyB1b7O9Wd8dyCRLEFIBAIBAIBAIBAIBAIBAICqd9fOE2f3WnwZqCLWDogpAIDj9VNSbT00o0vVLqn1S7Uy9zLDbTZcddVjJ3UDiQB0noGR5xAbm2LkpVxWnI3RT3yKZOyqZpp15PN4bIzlQPxeHngIduHay0jpNXXT2purVVLat1U1ISe+xntwpSk7w9KQQezME6lbT2+LXv6gJrlq1VqoSZVuL3QUraX2oWg4KVegj0jhBWHqnqPammtEYq11T6pdmYfDDDbTZcddVjJ3UDiQBxJ6Bw84gNvatyUq5LTkbopzyhTJ2WEy048nmyGyM5UD0cPPAQ/ce1jpHR6w5Tmpuq1YNq3VTNPk99jPbhSlJ3h6Ugg9hMDqVNO76tbUCgJrdqVZqoSm9uOYBS40vHFC0HilXoI9IyIDpCcQEdWprPYd0ahzdi0OpPTlVled31IYPMK5ogL3XOhWCcZHTAd9UJyVp8i/PTsw1Ly0u2p151xQSltCRkqJPQABAcRpNq5Zmp71SbtOam3zTebL5elVNDCyrdI3unO4YDpL3umiWZbE7cdwzqZSnyaN5xZGSTnASkdKlE4AA6TAa/S6/wC3dSLbXcFsPTDsiiZXLFT7JaVvpCSRg9nlDjAfWpl/Wzp3bZr10TxlpTnUstpQgrcdWroShI4qOMk+YAmAzLCuqkXtaUhdFCcdcp08lSmFOtltRCVqQcpPEcUmA1eqepNp6a0aXql1T6pdqZe5lhtpsuOuqxk7qBxIA6T0DI84gN3aNfp102xTripK3FyFQl0zEupxBQooUMjIPRAcnqxrFYumMxIy11VF5qZnUKcaYl2C84EJ4b6gn4qc8AT0kHHQYDu25phUkmcLgQwWw7vrO6AnGcnPRwgINuPaw0jo9YcpzU5VasG1bipmnye+xkdOFKUneHpSCD2EwTqU9Or6tbUCgJrdqVVqoSu9uOAApcZXjO4tB4pV6D09IyIKxtUdRbV02obNXuqfVLMPvBhlDbZcddURk7qBxIAGSez/AJEBt7MuKm3ba9PuSjrcXIVBkPsKcQUKKT0ZB6OiA28BFu1n1dbz9QHiIgPHZA6t9nerO+O5BIliCkAgEAgEAgEAgEAgEAgEBVO+vnCbP7rT4M1BFrB0QUgMWrpm1UqbTIKCZssLDBOOC907p48OnEB/NbaGtDVagVSm1jVSoGfnakHESzpng/gN7pUkJTgIT5Y4AAQZqddW63P0bYKs1iReU0KrLyEjMFJwSypC1qTnzHmwD5wSILWm2Ztnay9QtHV3LcExUvulUH32pZxh/cTKBtRQCE9CySCTvZGMAAdMCRx2xLVa1SNap63abMndqVOnGHE5whTrKSppeDwyCCB6FGBHLbQ9oasUGpU2s6q1H4fN1LnG5V0zyX90N7pUkJSAEJ8ocAAIJU56o1yfo2wLaTMg8pn7qS8lIPqScEtKC1qTnzHcwfQSINVpNmLZ4svUPSF25LimKkahPTD7EsuXf5tMqG1bgUE9CySCTvZGMDA6YJI5fYZqtRoe0Eu3mZgqlKhKzUvNIHBKyzlSF484KTj0KIgRYvastLV+72aZTNOKmZWluMPIqjSZ5MsXiSncBVjeIxvAgEDjxgqtmwk2pnaEQysAKbpk4ggdGQUA+yCRKm2dZ+sFdmqzU5Gpf/QNPkETTkp8OS2CW0bzhU2BlfEZAUT6IFark3Pxy+PoSPtegRyu1/Z+r5n6vdV2VL4VaTFVUilsfDklLLbiyGsMpAAO7gEnJ9MCpr5Pr5Cpnv2Z9xqBFZ9pWz9X6VMylx6oVL4e3MzK5aSPw5Lob4FW6ltICUDA7Bx7YJVvNk8TStlm2UyKgmaMlNBknHBfPvbvT6cQaUy2hbQ1WoFVptY1UqBn52pBaJZ0zwfwG90qSEpACE+UOAAEGauTpyxdE1sh0KXsuYTL3C5bjKZB1SkpCHMDByoEDhnpg0ozrla182rei2NQ5pU3XJ6WE2p5U58JUtBKkjKuz4pGOwQZq5m2ZXKhRdmlDUg8pn7pvSkg+pJwS0pBUtOfMoI3T6CRBpFGzBs82XqJpG9clxP1I1CdmX2JZcu/zaZUNndCgnoWonJO9kYwMDpgkjkdimp1iia8zNuSE0ebqElOSzyehC1spUpteD2hSTjzBRECOZ2h7Q1aoU/Ta3qrUfh8zUCtmVcM8l/d3AlSkpSkBKE+UDgACCVePZc6vtld1N+0waSXARbtZ9XW8/UB4iIDx2QOrfZ3qzvjuQSJYgpAIBAIBAIBAIBAIBAIBAVTvr5wmz+60+DNQRawdEFIBAU95ST/AA7E+nPexmCVga79RTTf62n/ANO9AqX9hrq60f1yc8dUCKx7GvWjlfoVH3VwIlDlJPxOxPr573WYFazW3qG6e/XSHhPQKlvYV6vFM9fnPGMFitGyB1rJT6VS9xyCR/Q2Cv5+bEHWRc9Rn/fTBIuPtD/IVe/cU34ZgquPJufjl8fQkfa9BIk/by6v813nKe+YFYPJ9fIVM9+zPuNQI0HKNfmHa3e6/AVAuJN2OurZZ/1D/wDUOwVDPKR/4di/WTvsZglT7s0fIFZHczHuwVUrlDvlpp37vs+M9Bm6mLbp6uNH71kvBcg1W/2E+r1Tu8JvxTAitWyH1sJT6dT9xyCepU5SL8lWN61Oe41AuJu2XOr7ZXdTftMFSXARbtZ9XW8/UB4iIDx2QOrfZ3qzvjuQSJYgpAIBAIBAIBAIBAIBAIBAVTvr5wmz+60+DNQRawdEFIBAU95ST/DsT6c97GYJWBrv1FNN/raf/TvQKl/Ya6utH9cnPHVAisexr1o5X6FR91cCJQ5ST8TsT6+e91mBWs1t6hunv10h4T0Cpb2FerxTPX5zxjBYrRsgda2U+lUvccgkf0Ngr+fmxB1kXPUZ/wB9MEi4+0P8hV79xTfhmCq48m5+OXx9CR9r0EiT9vLq/wA13nKe+YDB5Pr5Cpnv2Z9xqBGg5Rr8w7W73X4CoFxJux11bLP+of8A6h2CoZ5SP/DsX6yd9jMEqfdmj5ArI7mY92Cqlcod8tNO/d9nxnoM3UxbdPVxo/esl4LkGq3+wn1eqd3hN+KYEVq2Q+thKfTqfuOQT1KnKRfkqxvWpz3GoFxN2y51fbK7qb9pgqS4CLdrPq63n6gPERAeOyB1b7O9Wd8dyCRLEFIBAIBAIBAIBAIBAIBAICqd9fOE2f3WnwZqCLWDogpAICnvKSkBuxMkDy57pPoYgldTVdP6hqPsSWrRqOErqkrTJOekmiQA842kgt5PQVJUoDszjMFVz0+121G0ntWo2HKSckwUuuFsVGXWmYkHFfH3U5HbxwoHB844QZ6lDYN0yry7td1LrEq/K05qWdZkFPpKVTbruAtxIPSgJ3hvdBKuHQYLG35SUgSdiZIH9tPdJ/2swK6Wb0/n9R9iK2KHSd1VUl6bKzsk2pWA642D/Z57CpKlAE8MkZgquenmumo2kds1KxZWSkmCl5xSE1KWWmYkHVfH3U5GePHCgRn0cIMpN2DtNK+/ebmplYlZiWpzEu61IuPpKVTjzvBa0g9KAne8roJVwzgwWLsQV/PvYfIO0k6AQf7jP9v+5MEi5G0R8hV8dxTfhmCq48m2QZy+MEHyJHoPpegkSdt58Nn+az/+JSnvmCsLk+eOhUzg/wD37M+41BI0HKNECw7WJIH/AKuvp+oVAqTdjrq2Wf8AUP8A9Q7BUM8pIQGrFJIH9pO9J9DMEqfdmj5ArI7mY92Cqk8ocUjWqmgqA/8Ap9npP/5z0Gas5tD6fz2o+gyqHSd1VUYRLzsk2o4DrjafiZPRvJKgD0ZIzBpTjTvXTUbSK26lYsrIyTBS84pCKlLLTMSDqvj4TkZ48cKBGfRwgz9SZsH6aV+YvVzU2sSsxLU5iXdbkXHklKpx53gtaQelATveV0Eq4dBgsb/lIyBSrHyQP71OdP0GoFTfsudX2yu6m/aYKkuAi3az6ut5+oDxEQHjsgdW+zvVnfHcgkSxBSAQCAQCAQCAQCAQCAQCAqnfXzhNn91p8Gagi1g6IKQCAx52XknwkzjDDoT8UuoSQM+bMB6stttNpaaQlCEjCUpGAB6BAYNQoVEqEyian6RT5t9HxHX5ZDi0/sJBIgNgkAJASMAcAMQHhOy8k+lJnGGHAn4pdQCBnzZgPVlttppLTSEoQkYSlIwAPQIDBqNCotRmUTNQpFPm3m/iOPyyHFJ/YVAkQGwSEpSEpGAOAGIApQSCVEADpJ7IDGlZKQZcD0tKSzayOC220gkH0gQGQ6hDram3EJWhQwpKhkEekQHlKSkpK73waWZZ3vjc22E5/wDgQH3MsMTDXNzDLbqM53VpChn9hgPyWl2JZvm5dltlGc7qEBIz+wQH5NS0tMpSmZl2ngk5AcQFYP8AzAfbDTTDSWmW0Ntp6EoSEgf8CA85qUlZrd+EyzL278XnGwrH7MwHqy2202ltpCUISMJSlOAB6BAY85J099XOzctLOKA3d51tJ4ebJEBkjGMDGPNAa+o0Ki1GYRM1CkU+beb+I4/LIcUn9hIJEBsEBKUhKRgDgBjEB5TUrKzQSJmXZe3fi842FY/ZmA+2W22mkttNpbQkYSlKcAD9kB9wEW7WfV1vP1AeIiA8dkDq32d6s747kEiWIKQCAQCAQCAQCAQCAQCAQFU76+cJs/utPgzUEWsHRBSA5/Ue55azLErV0zTZdapkm5Mc2DguFI8lOezKsD/mA/n9QqDq/tH3JVqsiopmvgZCnDNTamZSW3slDLSADjgD0Dsyo5PEzrr9l/Uq9NPNYWNMLrmJt2nzU/8Acx2TmnS4ZKZJwhTaiThJVgEA7pCsjjBY2+1FtK1aoP1zTu1pFykNS827Iz8+p8F94NrKVJbCfiJJTxOSSOHCBa7/AGULxVbeypXLvrD0xPClzc9MEOOlS17iUFKATnGTgf8AMFV6otF1e2kbnq1TRUEzAk8Lc+EzamZSV387jLSQDjgD0Dsyo8eJnXW7MmpN66baxMaZXZMTTlOmZ/7mPycy8XPgUwThC2lEnCSrdBAO6QrPTBYlbap2jqhYlZqFh2zS+arIl2yqpvugoYDiMgttjipYB4EkAHsMC1z/ACd9Vn503y7UqjNzQaEmremH1Obv+MSfKJ80CIsuy5tSNpLVaYoNuzLqKalTi5KRMyWZaXlkHHOu4+Mo5TkkE5UABiBrFty5NSdm3VNqj1qYeMmktuztPEyXZWbllH/Ebz0K4KwoAEFOCMZEExPm0/tKTVlT8zZtqU0fdV2UadTVH3BzbKHUbyVNt9Kl4PDeIAPYYLXP8nZU6lUZ29jUKjOThSiTIMw+pzBJeyfKJ6YEajal2k6tMzVd04taRcpKZaadkZ+oKfBedCFFKktBPxEnHFRJODjhAtSpsDzk3PaITL07NPzLorcykLecUtWAhrhknOILEAbRO0vWb+llWzbco/QKOh7MwsTGZmaKFcASjAQjIzgEkkDJxwglq1WyJMPzWzpaMxNPuvvLYfKnHFlSlf3h3pJ4mCq+bUm0pVp6ZrmnVrSLlJblpt2Rn6gp8F94NrKVJbCfiJOOKskkcOEEtd9sm3gq3Nleu3dWHpieFLnJ6YIcdKlr3EIKUAnOMnA/5gsV6o1G1e2krpqtSbqCZgSeFufCZtTMnKb+dxltIBxwB6BnhlR4wZ11mzPqRe2mmscvpldkxNuU6ZnxTJiSmXi78DmFHCFtKJOElRTkA7pCs9OILG+2pdpOrTM1XdOLXkXKSmWmnZCoVBT4LzoQopUloJ+Ik44qJJwccIFqT9hOpzLmgs/Pz8zMTa2qxNEqdcK1bqW2zgFRgsV52gNpSualMs0agyz1v0Np0OrSiZzMzKx8UrUnASkdO6O3iScDBLVx9mR56Y0Ds1+YecedXS2ypbiipSjk8ST0wVI8BFu1n1dbz9QHiIgPHZA6t9nerO+O5BIliCkAgEAgEAgEAgEAgEAgEBVO+vnCbP7rT4M1BFrB0QUgIv2r+rvefd//AGIgIe5OT81by7wY8IwSYiK9evP/AOYSfvNQPVgtvClUyX0PfnGKdKNTLlXlSt5DCUrUSpWcqAycwWo40q6gN7fXznvMwI33Jxfm7evr0t4a4JMRLqN15FfvbI+1mBdXE2kaXTHdFb3n3KdJrmxRJkh9TCS4MNnHlYzwgqvXJ6fk3Ub1eV91+CRzHJ3/ACy1XuBzxmYEfHKHfLRT/wB3mvGfgXVndXaVTHdm64J92nSa5tNqrKX1MJLgxL8MKIzwgqEuTc/HL4+hI+16CRIe3XSqYxoXOzrFOk2ppdTlSt5DCQtRKznKgMnMCvnk+vkKme/Zn3GoEcpyhdLpkhY9sOSNOlJVa6s4FKZYSgq/sVHiQOMCpZ2OurZZ/wBQ/wD1DsFcft30qmS+h0zOsU6UamXKtKlbyGEpWolSs5UBk5glRxpN1A74+vnfazAjecnD+b96+uyvhrgRE2pHXjV+9kj7WYF1YfbqpdMY0Lnp1mnSjc05VJUreQwkLUS4c5UBk5gtfPJ9gK0JmkqAINcmgQfoNQSOE5RGl02nUuyTT6fKShXNTe+WGUt72EN4zgDMCp62XOr7ZXdTftMFSXARbtZ9XW8/UB4iIDx2QOrfZ3qzvjuQSJYgpAIBAIBAIBAIBAIBAIBAVTvr5wmz+60+DNQRawdEFICL9q/q73n3f/2IgIe5OT81by7wY8IwSYiK9uvP/wCYSfvNQPVjtvj5A3O9pT2qgtRZpV1Ab2+vnPeZgRvuTi/N29fXpbw1wSYiXUbryK/e2R9rMC6uftGfIPfHcc14Zgqt/J6fk3Ub1eV91+CRzHJ3/LLVe4HPGZgR8cod8tFP/d5rxn4F1anVjqwXD+6rn9PBUDcm5+OXx9CR9r0EiT9vLq/zXecp75gMHk+vkKme/Zn3GoEaDlGvzDtbvdfgKgXEm7HXVss/6h/+odgrm9vf5AXu9ZT3lQKizSbqB3x9fO+1mCRvOTh/N+9fXZXw1wIibUjrxq/eyQ9rMC6snt49X+b7zlPEMFrC5Pn5Cprv2Z9xqCRx/KRfkqxvWpz3GoFxN2y51fbK7qb9pgqS4CLdrPq63n6gPERAeOyB1b7O9Wd8dyCRLEFIBAIBAIBAIBAIBAIBAICqd9fOE2f3WnwZqCLWDogpAR7tI0qdrehV4U2nMqemnKY4pttIype5hZAHaSEnAgKobFer1l6dylyUu8J92mon3GpmWmeYW6hW6gpKCEAkHiCOGDxgkrlLcqP4StsaQrlAlZj4NPXK3OtJcT5aZdopUpagOjyGycdmcQNqzm3v8gbne0p7VQWo70MpM7XNhW8qZTmVPTTrs+W20jJWUhte6B2khJxAcfsVau2Zp21clNvCecpzdRWzMS0zzC3UEoSpJQQgEg8QRwwePRBJXLUmpDUzbEka3b8q+ZafuRmbaS4nCwwyUlS1Ds8hsqx2ZxBNq7u0Z8g98dxzXhmDSufJ1NF+W1BYSQFONSaAT5yHxBIjDZWvOk6Ra0TxvYPyDBlH6XMuc0pZlnUuoOVpSCrGWyDgHGR2QSPDauvekaraxMTNmpmJ6WRJs0yWc5pSTNOlxZyhJAVglwJGQCcQPV2NaZVyS2b7pk3cFxi2nmlY6MpYwfZBpX/k3Pxy+PoSPtegkSft5dX+a7zlPfMBg8n18hUz37M+41AjQco1+Ydrd7r8BUC4k3Y66tln/UP/ANQ7BXN7e/yAvd6ynvKgVHWg9Jna5sMXpTKcyp6aedqBabSMlZSltW6B2k7uBBI47Yp1cszTtFyU67552nNVFTMxLTXMLdQShKklBCASCd4EcMHj0dolctTKmnUzbDka1b0s+ZafuRiaZS4nCwwyUFS1Ds8hsqx2Zgnq0W3j1f5rvKU98warC5Pn5Cprv2Z9xqCRx/KRfkqxvWpz3GoFxN2y51fbK7qb9pgqS4CLdrPq63n6gPERAeOyB1b7O9Wd8dyCRLEFIBAIBAIBAIBAIBAIBAICqd9fOE2f3WnwZqCLWDogpAICvuo+yfp9ddefrVOm6jbr8ysuPsyW4phSjxKkoUPIJPYkgeiCcdtoronZWlTbz1CYmJupzCObfqM4oLeUjOdxOAEoTnjgDjgZJwIK3WsWndJ1Ps5VsVqcnpSVMy3Mc5KKSHN5BOB5SSMcfNAfOjenNI0vs82zRJyem5UzTkzzk4pBc3l4yPJSkY8kdkBGWpOyhp9dlefrVPmqjbsxMrLkw1I7imFqPEqCFDyCT/pIHognHaaK6IWTpUl6YobExOVR9HNvVGdUFvFHTuJwAlCc8cAceGScCCu0vi3ZS7bQq1sz7z7MrVJRyVecYIDiUrGCU5BGf2gwHFaG6LW5pGqrmg1Kqzv3U5rnvhq21bvN7+N3cSn/AFnOc9kEk41Gs2znYmpVXVXJgzlGrLgAem5ApHP4GAXEKBCiBw3hg9GScCC8eejmzdYenFZbrza52t1hrPMTM+U7suejebQkABX+45I7MQTiUb1t+Uuu0atbU868zK1OUclHXGSAtKVpKSU5BGePaDBXEaG6K25pG7VnKBUqtOGqBoPfDVtq3eb3sbu4hP8ArOc57IJI32r+n1J1Ns1y16zNzspKOPtvlyUUkOZQcgeUkjH/ABBXloxpvR9LLRctqhzk/Nyq5tybLk4pBXvLCQR5KUjHkjsgMPW/Sahas0in0yvT9Sk2pCZMw2qSWhKlKKCnB30q4YMBvtMbPp9gWLTLQpUxNTMnTkLQ07MlJcUFLUs7xSAOlR6BAYOsOnlJ1Os5Vr1qcnpSUVMNzBclFJDm8gkgeUkjHHzQHzo3pxR9LrQVbNEnJ6blTNOTXOTikFzeXjI8lKRjyR2QEZalbKOn1215+t0+aqNuzMysuTDUjuKYWo8SoNqHkEn/AEkD0QTjs9FdELK0qS9MURmYnKq+jm3qjOqC3ijp3E4AShOeOAOPDJOBBeN9q/p9SdTbNctaszc7KSjj7T5clFJDmUHIHlJIx/xAeOjGm1H0stFy2qHOT83Krm3JsuTikKXvLCQR5KUjHkjsgNZrlo7b+rkvSWK9UapJJpbjrjJkloSVFwJB3t9Kv9I6MQHWaf2xJWXZlKtanPzD8pTJdMu05MEFxSRnirdAGePYBAb2Ai3az6ut5+oDxEQHjsgdW+zvVnfHcgkSxBSAQCAQCAQCAQCAQCAQCAqnfXzhNn91p8Gagi1g6IKQCAQCAQCAQCAQCAQCAQCAQCAQCAQCAQCAQCAQCAQEW7WfV1vP1AeIiA8dkDq32d6s747kEiWIKQCAQCAQCAQCAQCAQCAQFWtoSwdXP/tC0rUnTihStTVJ05DTa3XmglDgDqVBSFrST5LmQR//ABBHh98e2V+hlB/hl/t4B98e2V+hlB/hl/t4B98e2V+hlB/hl/t4B98e2V+hlB/hl/t4B98e2V+hlB/hl/t4B98e2V+hlB/hl/t4B98e2V+hlB/hl/t4B98e2V+hlB/hl/t4B98e2V+hlB/hl/t4B98e2V+hlB/hl/t4B98e2V+hlB/hl/t4B98e2V+hlB/hl/t4B98e2V+hlB/hl/t4B98e2V+hlB/hl/t4B98e2V+hlB/hl/t4B98e2V+hlB/hl/t4B98e2V+hlB/hl/t4B98e2V+hlB/hl/t4B98e2V+hlB/hl/t4B98e2V+hlB/hl/t4B98e2V+hlB/hl/t4B98e2V+hlB/hl/t4B98e2V+hlB/hl/t4B98e2V+hlB/hl/t4B98e2V+hlB/hl/t4B98e2V+hlB/hl/t4B98e2V+hlB/hl/t4B98e2V+hlB/hl/t4DS3y3tbXladRtitWXSDT6g1zT/MGXQvd3geB584OQOyB9WH2dbZq9naLW1bdeYQxUpKWUJhpDgWEKU4te7kcCQFDOOGYK7+AQCAQCAQCAQCAQCAQCAQCAYHmgGB5oBgeaAYHmgGB5oBgeaAYHmgGB5oBgeaAYHmgGB5oBgeaAYHmgGB5oBgeaAYHmgGB5oBgeaAYHmgGB5oBgeaAYHmgGB5oBgeaAYHmgGB5oBgeaAYHmgGB5oBAIBAIBAIBAIBAIBAIBAIBAIBAIBAIBAIBAIBAIBAIBAIBAIBAIBAIBAIBAIBAIBAIBAIBAIBAIBAIBAIBAIBAIBAIBAIBAIBAIBAIBAIBAIBAIBAIBAIBAIBAIBAIBAIBAIBAIBAIBAIBAIBAIBAIBAIBAIBAIBAIBAIBAIBAIBAIBAIBAIBAIBAIBAIBAIBAIBAIBAIBAIBAIBAIBAID/9k=;" vertex="1" parent="1">
          <mxGeometry x="470" y="222.5" width="170" height="170" as="geometry" />
        </mxCell>
        <mxCell id="Q_m5-7QkY2CdEUIhsvCV-37" value="" style="shape=image;verticalLabelPosition=bottom;labelBackgroundColor=default;verticalAlign=top;aspect=fixed;imageAspect=0;image=data:image/png,iVBORw0KGgoAAAANSUhEUgAAAHkAAAB5CAQAAAC380bCAAAABGdBTUEAALGPC/xhBQAAACBjSFJNAAB6JgAAgIQAAPoAAACA6AAAdTAAAOpgAAA6mAAAF3CculE8AAAAAmJLR0QA/4ePzL8AAAAHdElNRQfoBwYRNzrqZwBCAAALzklEQVR42u2de3BVxR3HP0mQRwKEABGqYsAIBsJAZ/ARZQZBmTg6UrV1HMapDooKdgyDoqRFHTsiqI1grdMptYyJ0KoUpwahDCoEOy2PMG2tVN5PwRTahESb1yU3uad/3MvJnnN3z9lz77knN9rf/nPv3n197+757e7399s9WfSMFHA3jXzNN1LGUUKGLW4E9RjUM8IWn0EJ43o74FLCGFTaQFdhYGBQZQNciUGY0t4NeXMMXIUQN5VILDbCVCG+Iha7uTcDvphwDIbBolhcFp+acQZ76ROLX2TGhbm4d8DLZzdNlJMpxC0QwEV4AIAyIc7AoAyAe+mKi4tKJuU0sZv89IO8ONbcLUIf1VrAhXmVFwjZIIdYykphNBgY1ArjZEssbnH6Qa4yG/xvbonpaiPhENXb06kzYyrTD/JOocGdLOMH7EkCci13sYxOIWanXw3N8A1yA8NS+peeY7g/BWUmlCuLhVRQLMQMSzFgew3FVLCQrOAG8byYDq6mJBZzvadh286bLKaSdk+5ro/VVUJ1bGafFxzkl4WG1FBKATUemt7A+Fg5EzjnId9WLqfUUtPLwUF+1taYLk+99YhQ0nxPOe31PBvcs9ycVCnbhc81SbW2OTjILUmNkVzh85CkSmrpLZDvU3wOqB16av5KptNBk/l9NPd6qKONT3iTA1wdWwVcQzu1GGTxFD+JxRm8QTURRnKRh5Lf4rD5uZAZhGn0R1ldSRsGBqdZw1wKyWOXpro5zPNMo2+snIfNTaNBE7toErYcD8fS9GMaSzmiWf4OcilkLms4jYFBG1f6A/keW0UdGo1pYg0z49Z2D0p1e4QfxdU5hdeo16jH3pZ7/IFc6HF9fIZyshVliT1t72G79OMRTnmsu9CveVi/4qPMNQeyXKw9LethUfryEMe0az/l39JjjVaFbTxNP43SHjZBdyl72Nrbz8a0iVtY4x/khzSq28gY7fJuYw+N7OE27RxXsEmjDXP9g+z2NLdwfwDL3Dm0BvUkQ66jlt7PxIDW9kXsddTeeYlTBFk8xBhaaKWVr2jjGa5zeM7n0x7YhiabX/ND5a+7WE42Q8ghh4GcYDVdugUv1NaRr/nIq+jyOD/Vbt1C/WIrtAqM8GQP8WwLNLerFfpFFsctGGR71/vpOZmj0cKIhapypfuqucOl0hW8kzJABg000OaY5nFWupSygTu9QL5WoM9l0kVnSp/XvkALO9nC76lTpHqJcsdSpnolgrcnwUL7F1rp5AOuVvwxax1y1nj/p0vTAnLUEBBmNUMlbezPP5S5EjDZFngk8VIbQpxlsqSVE2hRKNdRXmnyEk80bRChixC3SnW3igIukZsTRPWVzwOMp4ixKbc8JCodzJCopI3c7mDWOcJBDlBJvezn2jTrV9lM2ywZsIUaVg/F/NOY9pANOviLZGJ9zjWfggYs7wWQDdol7GqexSwrC+UqTntLrwB9PI59f8IlxxY1X58vWO3TN4Rsc24OZx3Tn2Wk2lpRz336O8wekyzb+v+xOJc569L4Xs46F7jMQvDMJ49cZvOlqTNDthDWnFPV4bznfj4ttHcg/zFjZzOYPOZblicv2AH2iYP8dwtpH3U7e5f91NIfyKCWXUKKi3hCy0TzJz53+D2HsVzHAPpqEg6XkGWOxoUx96h2buOfAKziNJvMtH91K2yc4NTymeWX9011P8RCzOj0SrPG3jqTWZyOc5FShZGm5fLC1PoHS2ndHNluu1do97N8MQuo5RDXCIS9KF+YE0JZSp7QCBuZzL+IaKW+YKwrMym+L2zGhgtyHYeoZYHdY7CUzZJn8kvLMKsRGM1U9HJUZmmR9BHTIrLfjNtmWUbHzzxhNndr+quUKugps5A7hdgvUgj5cq3yzgljrzu2W48vVuQLc1VUfQ2XKLGovMxk3qWd2y2DeWsKJ6BJhOjv+ghsEdryoPn5PV5nE9nMVlq/+zCcQ9FhUOlhgjhkmdj97eUhHHVdOhq0cbeZYySHPLRd8AvX5YYbecZmRvVTY9/KCS2NXWfxNMjmGc0N0WtRZd2toBZR4Tgr/pef8ypfxVkPWjV6r4XNlvnevpoaylhuYDB9NHxXzvNAHLc6hMdZyGBHzvQpVsRH36dUY80sl3JPur3cxXnH0OVhfV2j+FuGspxmpdpSuuGslGZY4eD+nR3ohqKTU45uU/lKBEpZLkl+xMUsFiQ9UE+R68CX+RwsVT1RZVJCZVuaQA5xkEs19MYnUlqhLN7da6rlkIcYNqQB5Ahh1jNIa6JTeRt8Kp7WGUGVg1Hrdz0OuYPzUjpXLu84/HFV0Z31aBf/qlVp0MvtfOi6JrsgbziWVM/oTGa6OPCH0oAH6c803tf0N3W2Vw5nZiZbaXCpjrQAPZ0XNV0rnKSBrZmcZCJvYSgTDYI0Af0E0zTSDXJYgb3FRE66a+wP0mZejnBC6cd7EXmx8KGOxnael2t8gKw2oJx39eWylqNyf1znkq9M5Yb9oiT5QR8gNzPf7AUxfIdreZSDHk7SnFE03dnosFTNY8s8MK/w5BSu1qNNknCGPfyK8Tyv7YaRp3CCdGZGB6h+UO2krvKhl932y0s0uc0ufivNv9sxl2IntUi5AvteAJAz+JvmFvKctEfrXFXfInuFTqzI0wFAhhla3vwGYaZISMKIPiuiw319FAhkK1tpOOj4P8bl/IWmAjS5r6mujkj9AoH8nGbDQ6y06O3va9nFomFqVGM3uOjLbAc/XT9lm+Yquh+PcoC5TOAyprOWdUpS2i6d3YtrubVC3L61KoPeEiIkyfmSrUF9NZ/mC1bRLgwPdkuLtUK0SQXJZK2L64VdKapJYpOSWx6Dh/yctuVRP+xSWx6jcjhuuAUpux12dInKS8IhQSlkJLNecFKrdejIm1zjluAmDZtQ6gY2nEwB932TUy/nszbIKw0kst1395ws3lZ7BGWylkt6mPvYRIfvZY6gSjXjB+3dt05K44RSUpfCu68xDSBDlacFiW5olA/sI2lB672QgonKgk1UVhtooI4QA1yIUb9kH+9Jx1qIG7VXzW5yjr1s5R0Wu/DbDKOEbT00sAF+TDjpZ/pjHa97+7b7hFTPRdjn0xnHSgfjz+U8yCQucfX2G0CxopUFfOm1QeoTNJ8HNPDdJYd9fp6gcTontTbww53yEfp2IuekEj0N9zNhpstnAkUUAtX+XURmkRu4EzjGQfYLx0JesVN4NvF4Gq7aVT38hidZzQ7LXU4RlqQA8BILmXeOHazmSVa7trDaSyXFWoyhnGf2+7bUcQkfUVOcbJWvPeck/Kxm+n5XammC9xhBBnP0Idcl0cRinyEnU54Uh3yV8zrtlrsIlpiXyNnlU5ZQy0gWm/9okc+Qi4R5vIKzlLCc7yrS7uRF210ECctgBY94WLi7a5VpG/RXzsTK/aUZk6u4NqkjydvDLKK6V+QxIc0oU83k+Qg4z1SLlwmxZcncK6KnGmYo4o8Ln0+bRwSKUjCsw5bl40lF6un+QVb5aEwSPo819YKfkMebFgrxJi/V1S03+lfxKaVn9ChzE7rejH3FR8grzFLXmxvdUUrT6qlUP8kGBieZxxRm8bHFTFbuy8ajH49YDHMfMYspzHNkQX26JSiRW92+kt7qpi89fKub/e6+XHZoLvmOsYwZnpzl+nMTyzmuWf6fGez97r4MTdCT+Ixj5vfb2egBRjs7+YR9HOC4grLtSyFFTGQ6N3j6g2YJB/0Kmcxejrpn0uOYjtqKGuhplAzgZm4GoJMT1NFCK1/TSg655DCQSxmTINcltuOY0CU+QHaqyov0YSxjfdTnCbUjM1DIfkuAkAfFkWvBSMSlHQH18nZuYbTLCQx/ZCsF3GK5dznA0ZbsLeiJBZ9uQU9ssZBFGZdSxT4zZpiLI7sfMlw40VrMHOp4PRHT7P/faJCEiB4ZXSzjLhda2FlquYNllj48TNqJ+HaS0hg3+Q1/O4nOO2hWsDTOabGdpazone+gcX/T0BwpidOL3zQkk2/4+6Tk8q17a9i38t1w38I3AKqkgLkU9EzV/wMZVjMxWhsBWQAAACV0RVh0ZGF0ZTpjcmVhdGUAMjAyNC0wNy0wNlQxNzo1NTo1NyswMDowMLPXp58AAAAldEVYdGRhdGU6bW9kaWZ5ADIwMjQtMDctMDZUMTc6NTU6NTcrMDA6MDDCih8jAAAAAElFTkSuQmCC;" vertex="1" parent="1">
          <mxGeometry x="470" y="207.5" width="60" height="60" as="geometry" />
        </mxCell>
        <mxCell id="Q_m5-7QkY2CdEUIhsvCV-41" style="edgeStyle=orthogonalEdgeStyle;rounded=0;orthogonalLoop=1;jettySize=auto;html=1;exitX=1;exitY=0.5;exitDx=0;exitDy=0;entryX=0;entryY=0.338;entryDx=0;entryDy=0;entryPerimeter=0;" edge="1" parent="1" source="Q_m5-7QkY2CdEUIhsvCV-31" target="Q_m5-7QkY2CdEUIhsvCV-40">
          <mxGeometry relative="1" as="geometry" />
        </mxCell>
        <mxCell id="Q_m5-7QkY2CdEUIhsvCV-44" style="edgeStyle=orthogonalEdgeStyle;rounded=0;orthogonalLoop=1;jettySize=auto;html=1;exitX=1;exitY=0.5;exitDx=0;exitDy=0;entryX=0;entryY=0.861;entryDx=0;entryDy=0;entryPerimeter=0;" edge="1" parent="1" source="Q_m5-7QkY2CdEUIhsvCV-27" target="Q_m5-7QkY2CdEUIhsvCV-40">
          <mxGeometry relative="1" as="geometry" />
        </mxCell>
        <mxCell id="Q_m5-7QkY2CdEUIhsvCV-46" value="" style="rounded=0;whiteSpace=wrap;html=1;fillColor=none;dashed=1;strokeColor=#FFFF00;strokeWidth=2;" vertex="1" parent="1">
          <mxGeometry x="790" y="139.5" width="260" height="335" as="geometry" />
        </mxCell>
        <mxCell id="Q_m5-7QkY2CdEUIhsvCV-47" value="&lt;font color=&quot;#ff3333&quot; style=&quot;font-weight: bold;&quot;&gt;Ubuntu &lt;/font&gt;container runnig a rust binary" style="text;html=1;align=left;verticalAlign=middle;whiteSpace=wrap;rounded=0;" vertex="1" parent="1">
          <mxGeometry x="490" y="85" width="190" height="35" as="geometry" />
        </mxCell>
        <mxCell id="Q_m5-7QkY2CdEUIhsvCV-48" value="" style="shape=image;verticalLabelPosition=bottom;labelBackgroundColor=default;verticalAlign=top;aspect=fixed;imageAspect=0;image=data:image/png,iVBORw0KGgoAAAANSUhEUgAAAwIAAAJQCAMAAAAKUyPCAAAABGdBTUEAALGPC/xhBQAAACBjSFJNAAB6JgAAgIQAAPoAAACA6AAAdTAAAOpgAAA6mAAAF3CculE8AAAAZlBMVEX////f39+/v7+fn59/f39wcHBAQEBQUFCPj4/Pz8+vr68AAAAwMDBgYGDv7+8QEBAgICBAPABQSwCAeQCPiAC/tQDf0wD/8QAwLQBwaQCvpgCflwBgWgDv4gAQDwDPxAAgHgD///8qv4oxAAAAAXRSTlMAQObYZgAAAAFiS0dEAIgFHUgAAAAHdElNRQfnCQ8ADRVKlWkbAAAfFklEQVR42u2d12KkuBYAyTSI5HFoZ/v/v/I+7N4Ns25QOEICVb3vugdU6ASFLAMAAAAAAAAAAAAAAAAAAABp8qIoq6qqm99oq6q6FEXHE4KTUvRV3TRKg6EZq7KYeGRwEqbiUjezMqcZqyLn+cGxR3/VLsqJual6PIBDxvzlOCgh5vZS8EThWMN/VtI0FakyHIK+XpQn5rYkKILIP/+t8szAZADRjv/LoHZhqbEA4iv+7DX+sQBixH/880NEdCEvgDjoPJR/9Gh7nj4ED4DKQQVkqZgKIGgGXM8qNC1dMwhF0aooGEreBYRIgRsVDUvFwlLYW4BFRcWMBJCyAEgAyQuABJC8AEgA+1SBBhU184V3BB7JGxU9Cy1j8MVUq0PQsIQOvHCZ1VGoSQlAnG5QB2KmYQxpxkBEQ+CHflHHo+K9gdQU0KpDMjARgMwUMKujwkQA6U4BTAQgQzGrY8NEAE7U6vA0bK0Ea/JBnYCZFRNgSTmrc1DzLiHRIOivrJhgCBINgv4KhjhmAlKrBFEZAicu6nSMrB4FfUZ1QkgIQJdpUKdkplUMWnQnNYBdBKBpwKzOC5vrYZPyzAYoNfKGYcMAdXJwAFap1OkZKI5CYsVQHAAMwAHAABwADMABwAAcAAzAAcAAHAAMwAH4F7VSOAAJU6okaXjzkLQBrBeCPylUsnC6CmQn3x+wBXtoIJtSNkApTprDgCFpA9hPDKNKnIXSaNpUKnkGRkHK9BhAaZRiEFAWIhVOHVLiVGkZ/KTESXNh7LNaKO1EgJH/Nxy9nmIisDDw/wFXcJAIkA5AWpSM+n/TMibSIqcjQHcgbRqG/H8WzHEJDfVQKqNAGJQ03L9BGEQoBIRBhEJAGERVCAiDkg2FaJClANtkVmD7TAKwNoi1QonDbuFV2El8/lyYUU5zgFwYyIjTpWCMkxGnDbnwNmymPzP0hekRJ14QpS9MYZSCKFAYZRIAlgolSs3g1mNhrJwTumJMA4kzMrSZBpgEgGmATACYBigHAdMAPQGgN8AkALSIU2LH1UF3v+4fHh+frv/n8fHx/v7umZVCEJR9lojevbz+PfR/5/Ht/UgecKjQudhhz/zzy+N1k4+398+DKMC+gXPhe7PY88PTVZevl+9DOMD2sTPhty32/aI//v/g9f0ACnD50pnwuTbi7u1qwcdD9FPBwrihIqrB++PVlrfYJegZOafB261K709XFyKXgLuXzoOnW+bvHq+uxC0BddGz4OeG4e/XqwAf9xEXSTlW6yx4WSN6/3GV4emOhBg84yEZfv66yvEa7UTAkULnwENn+P4qykesEwEdYpoCP/L5eJXmIU4FZkYPTYGfCkEfV3m+4gyGaA3QFPgvL1cvfDwTCYEfWtlB8Xb1xTuREHiJg2JPA/7mnkgIYq8HfX5dffJGJARx14M8GxCjA0RC9MX2NCBGB9hGf3SKQxkQoQM1Y+jg1McyID4HFsbQwZFbJ/143YcXVkyDIHKbht+uexFZf4AV08dGrDX8spsBsfWJ2TtGSVQppe6uO/IU1XohyqKURJVS3x97KnB9ZNMACCG1ZfLxui/3JAMgg9BhuvfXvXkmGYCIUoHn3Q2IKh0gGTgyMudJf+2vQFTbyEgGUu8K3F9D8EwyAO6ILJT+DmLA9YsF0+COyAKhxzAKRNQkXhhJh0XiVoG7QAZcP+LJiLlp4LAcNReOrTnAnoGUG2PvwQyIaBrgso2Us+GncArEMw2QDx+V6tCTQETTAPdwJ5wNf4VUIJ5pgLF0UNx7w3dBDYhnGqA/nGxB6DWsAtH0BjhQ65i4Hx7xHdiAaFrElIRSLQjdh1ZgZaXQ8+MWD/f3v4RWGrFeOtWC0FNwBR5c05SP13eBhKJhNB0S580Cz8ENuH5IZOoC11oymtKsiT6EV+D6S6RY5SwBo+mQzMePg1YOlzOs1zq2GFgllGRNNII46Hp9kmpZuN3khAJHJD9+PWitJmTctXM6oYuqaJJtgccoFHgRa1y7OIACSbYFojDg5rFaFms3HBygMZBiW+AuDgWugj/vw7owRGMgRQXuI1HgWdDQLxRICde986+RKPAuOUlZ10YZTwl2xp4iUeBBNE77RgEU0OQzEgNu5cN3stk1CqBArNnwrXzY9vfd2T0Orls6II7rI96jUeBTVIE32sPJcJKC0K3v9p2sUSiAArEWhG4tFrVW4B0FUOBAyyNuFzKtFXhFARRIW4EPq8dRMqCSUyAaA240BuwrVlYrhVgndzy60yjwKKzALxRIgwIFJBdJoAAKoACgAAoACqAAoAAKAAqgAKAARVGgL3BUBe5QIBEcFfg46wKJK6eooEDaa4Ts9o2xRggFTqPACytFUUCLt7NumflGARRIeteY5f55FDggp9k7LLt9/h0FkuEsJ0h8iP6+J8vHwQkS6SkQTWNA9hwhyzNUOEcoRQVOeZrcq0KBdOBM0R+Cqk8USAjXk6VfIlHgW1AB2zCIk6WTVOA56mzYSoF3hQIp4XzRUhyrhF7lFHizfxYj4ylFBV5jTgUsFHC5d5VVckfE+cbJl5hTAXMF3hUKpIarAt8xGPAl1Lr7enZ6FjSHD8ni6sBXvF0BUwXuPxUK0Bs7ZCT0LKHA27fro2A0HZLxBJHQk/sapqd7ZwFQINHGQAyR0L2bAl9vLwLjn7bAUXG+fj6CBdMiA9gd2gKJNgbUZ+ju2GscBlATTbUqGn735K9IFOgZTIlWRUMnxE+RGKA6BlOiVdHQ50i8x6IAYynZklDY7ZMfsRgwMJaSLQmFnQbuY1GAgtBR6dShp4Gnz1gUoCCUcEko5DQQTSbACqGk8+FwRaFoykFKTQylo1JLvP+HqA6RIxuGvfPhUC3i13gmAbLh45KLjIBfQQqi3/EocGEkHZdFHTUjfonHAHrDR2YUGQLf+4dCjxEZMDOODsxFHTMUiikMUi3jKPHmWIgVo78iMoBU4NjMMqPgc9/9Yw8xGUAqQDKglFLPe6YDX1EZQCpwbEqpgbBjOvDxGZUCpAJ0BnbeR/zxHJUBXLd6dAaxofCWYiqsuGLp8NTqYA68R2YAC4SOTqGO5UBsBqiaMURZdE8HojOAkihl0V0diM8ASqLHp1fHcSA+A1gofQIm2SHhcQPNx6/4DOAQrTPQyo6J91T6AcRBp6EUHhV3ftZKfH1GaABx0DkioVl4WHz7WDP3oKKEOIia0D4JQZRpAHEQNaGVYOhJdo/Yd5wG0BejO3Z7A4FgdfTjRcUKfbGTUPsYHWITwet3tAYsjJ2T0PkZIPcSpaGnOxUvbJk8DYOfEeIeDUUcAynFQYq0BjTqo04SfNx/Rm0A+8VoDWhJYBsOPb3ELQBNAVoDuuHQi01i/PiuYodk+EzkfgfLneFU8PTwreKHZPhUNL7Hyy9tC54entURmEmGT0W/w5i5u988f/fj9eUY458Vcudj2Wfc3N2/3lpE9/jwfpjhrxQnR1AXdakS3b3c3z/+xev9/a+7T3UwGsYMddG04Yq901ExqpkEmAZAG45RPCE145q2WNrkDGwmgcQZGdlMAkwDwCRAUQiYBCgKwTqskmYaoCcATAM0huGMlIzvbdgveWoWRvgmLBE9NQUjfAtOkDs5DWN8HTaLnR36YxuwY5jCaNpwx2oChVEyYgqiidMzzsmFE6dlpJMLJ54R0yNmcVDiXBjr9IVpDsAPYRB9YUIhWgJAKEQYBIRCVIOAUIhqEJwdGmS/wUHSycGRKv9iIQxKDtYK/Qsu2U6QjnFPPZTKKFAPJR0AEoGE04GB0a+UUjOJQLrpAN0BpThBlO5A6rBNJmnYSczxiaTEiTOQCpMSkwpD2g6k3SXmxAhIuyxEMQiypFdKVLx9yLKEj1xngTSk7QAGwF8keS03x4fCP0iwPUBDANJ2AAMgbQcwANJ2AAMgbQcwANJ2AAMgbQcwANJ2AANghQROlWgxANY4/VoJVkXAlgPnXjvNRmHY5NT7B9gfADoOnHYv5cwB6qDFWfcTs08Y0i6OUgyFtAtDIwaACcXZkmKOT4ekE4KZw1LAnBPtpmwIgsCG/izBEP0wsCQfCIKAYIggCNKuDB39yFEqQeBaGWoP3Q6jIQxJZ8WcGQpJTwRMASA3ERwwI5iZAkByIjhcaajJeWsgStewMwAS50BbKmt6AZByNEQMBN7IDxANLayHAJ8UkUsws0EevKcEERdI54okABKWAAEgaQkQAJKWAAFgfwkiSoyXCwJAiOpQJMcNDVSBIBR5Hb5jPNIHgLDxUND9xUtFJxiC0wWbCloWw0EsU0GATTUDKTDExLRvQLTUBEAQX258GfYa/+yIhGjngtZ//MP4h7jpa2+N43ksif/hECFROYprMLd8/uFoGoilBgvDHw6aGhRV6zgdzE3VU/yBY1Nc6sZGhGasCkY/nEeEoqoarcWlQzNWZUHeC6cNjoq+qqq6+Y2xqqqyKIj5AQAAAAAAAAAAAAAAAAAAAAAAAAAAAAAAAAAAAAAAAAAAAAAAAAAAAAAAAAAAAAAAAAAAAAAAAAAAAAAAAAAAAAAAAAAAAAAAAAAAAAAAAAAAAAAAAAAAAAAAAAAAAAAAAAAAAAAAAAAAAAAAAAAAAAAAAAAAAAAAAAAAAGKgbqypqr7gATpRVDfw/6ft33tbVUUn90M6+19SV73AD2mUG0t76RjKtlS3Hqv/P+343tUwlrnMZ8DxhzRVEVYBpZSa23JiOCemgFJKLWMfXgGl1Oz0OyQUUEopLEhQAefRJ6SAUmqpptAKKDWPRETpKaCUWqo8vAJKzfUUWgGlVEN6nKACSqkxD6+AUrPdTCCqABIkqoBSbR5eAaWWPrwCSJCoAvYzQSGr4hReAaVGEuMUFVBzFYECai4iUEDNJYM7QQWUWorwCihVRaCAUg0TQYoKKGVRlSlChyF+FFBzz/hOUQE1dOEVUMMUgQJK1QzwFBVQqgyvgJkD3hQwVBEFzqKAGsMrYDT4/CmgZrrFSSpg+PErQv8GjwqQECSqgFq64AqoNgoFzONCFDiFAkYBgCcF9GujfhXAgTQVMHHAlwKqj0MBHEhTAQMHvCkwT3EogANpKqDvgDcFVBOJAjiQpgLaDvhTQDMU8q+Aoi6UpAK6DnhUQC8UaqJ5FChwMgU0a/MeFdCrCu2ggHZeggLnUkAvGPepgMojUUANDPYkFdBaKOZVgdFBgQ2Bu6K41I3oL0GBKBRYf/FTUfTVOEjWQm4qsLH5oCgu7SwxDTQuc1hW1AtloZQU+L8J5TjrxcCdNwWyLMuyvnHPBtwUyLKs03oYc854P5ECWZZlZSMTAzspkGXd+s9YdlAgy6ZqJh0Io0BXbeJNgSzLR4mijKMCWXaZ3UryAgpk2VQJrlpCAW0Futk+AlUSLz7XmAkK3wqsP4ZxHwW0ngXdAWkFNAyoM68KZFm/mQwu3hVYfRDzXgpsTUc2/0cUcDZgzHwrkE2j4/wvoMDqo+h3UyDrtkpll+MP2a74my6wAtPgYkAm96Uqt1TMvSuQ9Q69CTkFsqk9b5O4uNTNf6f8uRmrIg+jgKMBggpk3eIy/4sokI32hZhGMmwZHXqFjVx9UDgj7+v10bbYXzZhr4CrAZIKbP6Ywr8C0+2paFcFssp+RoxUgV6vBzRc8n0V2C4/DNluCmw5sPhXYGXoFbsqkJWrj6I9mAJ5rdcD/WPIWVwyYq3AdkV+a5mmbNViw4HSvwK59coEYQU23k1xJAWKUZkxG981YauAuwHCCmw4sPhXIGttX7u0AutvpzmOArnVGlrDE8YtFagFlupL166nxXIakFLgYhN7eFEgG+z6Y3EpMI3KDrObTuwUKCU2q4i3b1bbFIt/BQrbf5G8ApNduzoqBS6zssbkphMrBbYN0NmnJ9/B7O2mASkFsngUWN8DkR9AgdxxH1GT+1RAxgAPCqzGZ01SCqyWRuv4Fehn5Yj2SZIWCnQyBvhQYDUGLrwrYDuCfCiw9ijm6BWolQCatzyYK7C9MEjztAIfCnQ2IfA5FegsgsJIFJiENlMPuRcFxAzwosDq/D/5VmC2XCHhRYG1L2kTtQLToITQGoqmCuQOGwT2UGCtMnpJKRdYrwrlESvQzUoMnYTAUAENQcsspAJrVaHBswJdXArc7lPcHIgxKCBpgNZwNFNA0gBPCqytXcr9KlDG0xr7g8W0SxKBArmsARoD0kgBUQN8KVAYR0LnWyCxXb3uIlVALg/QfotGCrSSBvhSYGUaGLwqMEWzTE5jGqgiVUDegM2c2ESB7SUbYxaBAoVpJHS2xdI6P2mIU4FReWBjp5yBAsIGeFNg5dt38ahANFtmtCamn78GoRUolRcGIQVqYQP8KXD7QbYeFags34BPBVY+W2WECnSzHwXWd4tqK1BKG+BPAdPvsYgCneUL8KtAYfa2AiswKF/0AgpsG9BmsSiw8u0rfCmw1pIrwilwOyhc4lOg8mbAajqgqYDIBoHdFCjMCiECCkw2i9L2UKA2SgaCKpArj4yuCnQeDPCowO1vX+NHgdVq9hhSgc4oGQiqgN4hyXX5j/OzuqKvGr0EonBTYDtNsTDApwKjUTLgrMD6MUZ9SAVufw3qyBTQuOik/fl8iE7ngoXBSQE/BvhUoDfqijoqsHGk85IFVWA0ecwhFdgcxmu74vvtKaR0UGB71cZidUqfRwUyowfhpMBUbry7KqwCpcmEGFCB0kGALMuyYkuCxV6B7VUblhd6+lSgMZn+7RXINe66mcIqkJvkwwEVWP+QLBpfo62TZUtbBbwZ4FWByuR/flOBoVlFq4zt8bo9x2SgiEmB9Uyg1QozJrvrfrYU8GeAVwUKkwpltJeuiihgsn41nAKtSNPV6hi9LQVabwZ4VWAyiYB9KqBz6atfBSqDnxZMgdwqkTXMKForBbaXxtlfcqBimf49KqB3nL9XBUwO+AqmQOX6FdFyYLJQYNsAh7tsVZDpf18F9C518apAfgQFFrGlZ6PxYF1VoPZpgF8FKoNX4E8BzVtOvSqQGcSEoRToBFtOg2kktKZA6dUAvwqUUSjQxaDAEL8CF8FAe62NNRkq4NkAvwoUBvNqETYM8q1Aoz8gQinQuDQWDXzqzRQoxd5wCAVMImBfCmhfbedXgVE/LQqlgOy6g8Uss76pwPbi0DGLWIEsAgXUXMSgQBW9AoVsnHH7490YPZ/ZtwEJKKD7ClNXoDJpZDpNA6YFWb8GeFbA4HxPn62xEQW2FWhFWgJ/Y7ZPqApmgGcFDN6m1wUSIwpsKjAI9107ozUSlgr4XNB8LgV0HEhdgZvJsO0/eTGp4NgpYLVFJlEFwm6cPIICk3AcZHi0pZUCs4QBySiw7UDiChTifSeTpYGWs8AFBUyoUMBKAeslmL3J2LJTwH6FdJIKbO2gT1yBUu6vbr1ROQV0138FVGDRT7H8KzDnKHBbgUpcge7WRj+5QMhq7UaKrTG9T4ZfBeqjKiDzz7f/RGxRoIDYJyPQMrkcBZwUWKaoFZgiU2B1D3EgBTIUcFIg8jVCN4d1G0iBJpgCMwp4UkD1h1SgCqTA2uMKs2tsQQFXBVwbZF4VqKJTYAmkQPzb54+rgOtP9KpAbfAxdj9Wt9c52LUMo0BpEMmiwL5NYq8KNAbDWuaWmc2jFZcwCpjMhyiwb5PYqwKzQWVG6tLVrQM3+iAKNAazEgrs2yT2qcDt08kybwpkWbd++mQbRAGTzg4K7Nsk9qlAaSKtmAJbZ4/lARToTD4GKLBvk9inArXJl1hQgfVzNy4BFLiYpCYosG+T2KcCg8m0JanAqgNDAAVak48BCuzbJPaoQG40a4kqsHoKZb6/AkYxLArs2yT2qMDtT/HkXYG18+gvuyvQG30MUOBWsOOnSexRgdaoNi+swDSb1oQ8KmB29yYK3Ap1Bi9NYn8KTGZhm7ACK3PQvLsCs9FTRoFbX66NOycvsSlQmv1UaQVWPhn5zgqUZuVsFPixijFtlfriu3HydjTe7aJAaZg4+VOgMatmo8AtA7auHBviUiA3XKYjrsDto5yqfRXIDUMyFLhpwFqKZ90k9qZAZVjBlVegNvsB3hSoDRNzFLhpwOaa+iImBRbDOERegc7s3+ZLgZUPV4kCWgr8s95ZizeJfSmwkrhMOymQmYWMvhSoTJ8ECqyluRt3cI/xKLCYluU9KGA2ljwpINegSFWB3wo9nXST2JMCK5NAuZsCYwwKVMZPQk6BQkCBIbQC/yl1VsJNYk8KLKazvw8FqggUML56MTYFlMu4voXBn/+h2N/INon9KHBRprP/WRVozcPWMAr0HhQwWBdSGQQ2wk1iLwqsVW/7pBQoLAp4jdiTuBgo4OH5iyhgGGZbNIm9KLCybWvJUlJgWiyeRCOW6dUSCtjfa935UkC2SexDgcKmf+dBgTa4AmtF7NJYAePep8l8MgmWGbc+1oOrAqJNYg8KrH36bp/q6UGBQWRdgsOT6K0qF433RO/HZ2q4sNYlGGics3HJJrEHBVqrzsWOrbG9usPdbPWlapTZcLCYjY126lhvx5oNRoFpQUqwSSyvQGmnp7wCfWAF1vuYk0X0ZDgYa6O1uqN0JNSb6G9ck5VrEosr0FnWbOUVGAOvFG0t31GlhAaj2f3vF/Pg1TIT+UllYwXkmsTSCqxO/mvDWVyB2ynTZRcFVk8zWrv0qbSZOswyEbOwyW4aKIwSQvPO3EWqSSyswPrk32Q7KlAaiiiswGhdsyiESh2N4XtQstNAY1QOtmhOSzWJZRXYWMZX7KmAWRggrcDo8I2y6CWYmTSKKGPZlvv5z1soINUkFlVgctjiL61AZdo5EVVg3YCN17OITAON6Z+/yK05WA+ISxkFVmvOBk1iSQU2DrRdn0+FFVj5RNTeFdj4FGx9zFu7HEJ/fPz8SPOV/8J0Y/pqb2gSUkCoSSyoQLFxtn+d7ajAYFwskFNg60Fs/ZMuAiHuav/U/JnNudw3oM2kFJgWiSaxnAKXjfe+kaPLKrASiMyZZwU2zwPZqrB0Au+1sdBo7Q0Ok9gsWIopINMkllJgarZefJ/tp8BoMQCFFCgG5fYtWE8GNJetjTYW5athhf48sB4Q//zPt9yuINEkFlLgsjX3b/4PJRUYbVQUUSAflXL8Fmwm06XjA7gd2Lci6WU/W8yBtjt2BofYW1KB7S/fdjApp8D6hDRn/hTQEeD2NTe6pY5NB6bRMhnfiCu0YrCpVTZFEVsFBJrEAgoUjcaL3/x0iSmw8RGqvSnQtxrPQW9y3phTx8mlMFdbRmBKDdsTQTXbfQGs9226N4mdKw+XRYl8+oQU2PQx96JAXm7edWlSXty6M3C5/XWbNrNxu7UZf8qXuw6GQliBjSZx61mB7tLovXeNT5+EAlO5GZGNxo9yKDa4VM2idNFrMuWb/5+mvCGAW1K2/Q9pb9rX63wFxkxaAecmsbJ88X1VN7P2i9f49N1U4FLocakHjV+SW35NhNBdcabxY+ax/+3D0pU6oVjvUGX88w+Xv7/Pqbi0eqMhF1dgq0mc2yogik4dr1CBh+AeCmhX1zWfxtz8A80J2dm9P/4l5n95NaN2OcNldGsSR/Pp20eBPKgCBpuZmkCfozzQA3BRwLFJvMOwa7NoFKiykAqYnO7h63Eszr1tF4rMhwJbD6sLrYDm5L+HAqtf4SYmA7aWgHkYhHrNJl9fILfD7CqXyTea8HcPBYosoAKGJzzls48foVHo62ZvQyHzpYBTk/hoCaALdRZQAeOLsC4+foTOQp/S1xOY/Cmw4W0fUIGly6JRYMgCKmBxFZyHH6TXlRgDPAHXU30dmsSRzAE7KLD1BWwiM8BDKNRmEmGFl1KU88HW9k3iWAzwr0CRhVNgsLoOtA9Vk52GvQ1wV2CybhL7HHSNyTYL3wqUWTgFmimzQrZAaTATyafEZeZZAfsmscdBZ3b8TBHYAI8K1JktolG5yVl00g6UmXcFrJvEIQfdjgqUWTAFZuszOWUdMHsfsg6U2Q4K2DaJw5eC9lBA5/V7UqDJsywGB0yvCcjl8gGdCEzinifLJrGvIMg4+i0CG+BJgSpzZAxjgGBOrLXrWOSqM7smcTRzvz8FNNPAJr4pIMuy7e0z/oKxccevocxtf1ZN4jimAJ8K6JZj5BVYykyC0jksX7pQf1lbPhkFrJrEHmrgdmdf+VJAOxKRVmCupkyGzjEkaa1/SO76ULT/tNCdrzZN4mi+fH4UaPS/f02kAmRZNrkEQ7PTXHRxmQgW/a+h1LXH6wtsW/8KOEz9PhQwevuSCiySAmSZ1jE14lPAnxOBdUYwmxzGK6WARZNYNARy+d7IK2D4IZZToO0zeezi8qYQ0K/Z4elLKWDRJJYbcGPn9qClIzLTD7GQAsMlz7wwVYuxAKXQHNSYhwOGT19MgY0K2uBNgbZ0nfllFWjNX76AAstYTplHSqNwqC3k/nI+mkxCo/lfllPAuEks8d2rJSb+QnL82wxENwWWpirzzDt5vehORsIyTmXr8+nLKbB1xmInq8DQVoXQo5ZRYGkr67vJKluKosv2Y/v8srn1Y+PUj4uvr2F+63gomye0et7Ufx6N9Xu/FIXodyavXOl3HYlB6cq6+TEoGpqq9zoZTX3VNj/+4fpSZAA7m7DxffMYkP3rD3e8CgAAAAAAAAAAAAAAAACInP8BeGvKHOzccdAAAAAldEVYdGRhdGU6Y3JlYXRlADIwMjMtMDktMTVUMDA6MTA6MDgrMDA6MDDkOdGdAAAAJXRFWHRkYXRlOm1vZGlmeQAyMDIzLTA5LTE1VDAwOjEwOjA4KzAwOjAwlWRpIQAAABl0RVh0U29mdHdhcmUAQWRvYmUgSW1hZ2VSZWFkeXHJZTwAAAAASUVORK5CYII=;" vertex="1" parent="1">
          <mxGeometry x="792" y="142" width="84.54" height="65" as="geometry" />
        </mxCell>
        <mxCell id="Q_m5-7QkY2CdEUIhsvCV-61" style="edgeStyle=orthogonalEdgeStyle;rounded=0;orthogonalLoop=1;jettySize=auto;html=1;exitX=0.5;exitY=0;exitDx=0;exitDy=0;entryX=0.5;entryY=1;entryDx=0;entryDy=0;" edge="1" parent="1" source="Q_m5-7QkY2CdEUIhsvCV-49" target="Q_m5-7QkY2CdEUIhsvCV-53">
          <mxGeometry relative="1" as="geometry" />
        </mxCell>
        <mxCell id="Q_m5-7QkY2CdEUIhsvCV-62" style="edgeStyle=orthogonalEdgeStyle;rounded=0;orthogonalLoop=1;jettySize=auto;html=1;exitX=0.5;exitY=1;exitDx=0;exitDy=0;entryX=0.5;entryY=0;entryDx=0;entryDy=0;" edge="1" parent="1" source="Q_m5-7QkY2CdEUIhsvCV-49" target="Q_m5-7QkY2CdEUIhsvCV-57">
          <mxGeometry relative="1" as="geometry" />
        </mxCell>
        <mxCell id="Q_m5-7QkY2CdEUIhsvCV-49" value="fact_sales" style="swimlane;fontStyle=0;childLayout=stackLayout;horizontal=1;startSize=30;horizontalStack=0;resizeParent=1;resizeParentMax=0;resizeLast=0;collapsible=1;marginBottom=0;whiteSpace=wrap;html=1;" vertex="1" collapsed="1" parent="1">
          <mxGeometry x="876.54" y="299.5" width="90" height="30" as="geometry">
            <mxRectangle x="470" y="260" width="140" height="120" as="alternateBounds" />
          </mxGeometry>
        </mxCell>
        <mxCell id="Q_m5-7QkY2CdEUIhsvCV-50" value="Item 1" style="text;strokeColor=none;fillColor=none;align=left;verticalAlign=middle;spacingLeft=4;spacingRight=4;overflow=hidden;points=[[0,0.5],[1,0.5]];portConstraint=eastwest;rotatable=0;whiteSpace=wrap;html=1;" vertex="1" parent="Q_m5-7QkY2CdEUIhsvCV-49">
          <mxGeometry y="30" width="140" height="30" as="geometry" />
        </mxCell>
        <mxCell id="Q_m5-7QkY2CdEUIhsvCV-51" value="Item 2" style="text;strokeColor=none;fillColor=none;align=left;verticalAlign=middle;spacingLeft=4;spacingRight=4;overflow=hidden;points=[[0,0.5],[1,0.5]];portConstraint=eastwest;rotatable=0;whiteSpace=wrap;html=1;" vertex="1" parent="Q_m5-7QkY2CdEUIhsvCV-49">
          <mxGeometry y="60" width="140" height="30" as="geometry" />
        </mxCell>
        <mxCell id="Q_m5-7QkY2CdEUIhsvCV-52" value="Item 3" style="text;strokeColor=none;fillColor=none;align=left;verticalAlign=middle;spacingLeft=4;spacingRight=4;overflow=hidden;points=[[0,0.5],[1,0.5]];portConstraint=eastwest;rotatable=0;whiteSpace=wrap;html=1;" vertex="1" parent="Q_m5-7QkY2CdEUIhsvCV-49">
          <mxGeometry y="90" width="140" height="30" as="geometry" />
        </mxCell>
        <mxCell id="Q_m5-7QkY2CdEUIhsvCV-53" value="dim_customers" style="swimlane;fontStyle=0;childLayout=stackLayout;horizontal=1;startSize=30;horizontalStack=0;resizeParent=1;resizeParentMax=0;resizeLast=0;collapsible=1;marginBottom=0;whiteSpace=wrap;html=1;" vertex="1" collapsed="1" parent="1">
          <mxGeometry x="876.54" y="227" width="90" height="30" as="geometry">
            <mxRectangle x="470" y="260" width="140" height="120" as="alternateBounds" />
          </mxGeometry>
        </mxCell>
        <mxCell id="Q_m5-7QkY2CdEUIhsvCV-54" value="Item 1" style="text;strokeColor=none;fillColor=none;align=left;verticalAlign=middle;spacingLeft=4;spacingRight=4;overflow=hidden;points=[[0,0.5],[1,0.5]];portConstraint=eastwest;rotatable=0;whiteSpace=wrap;html=1;" vertex="1" parent="Q_m5-7QkY2CdEUIhsvCV-53">
          <mxGeometry y="30" width="140" height="30" as="geometry" />
        </mxCell>
        <mxCell id="Q_m5-7QkY2CdEUIhsvCV-55" value="Item 2" style="text;strokeColor=none;fillColor=none;align=left;verticalAlign=middle;spacingLeft=4;spacingRight=4;overflow=hidden;points=[[0,0.5],[1,0.5]];portConstraint=eastwest;rotatable=0;whiteSpace=wrap;html=1;" vertex="1" parent="Q_m5-7QkY2CdEUIhsvCV-53">
          <mxGeometry y="60" width="140" height="30" as="geometry" />
        </mxCell>
        <mxCell id="Q_m5-7QkY2CdEUIhsvCV-56" value="Item 3" style="text;strokeColor=none;fillColor=none;align=left;verticalAlign=middle;spacingLeft=4;spacingRight=4;overflow=hidden;points=[[0,0.5],[1,0.5]];portConstraint=eastwest;rotatable=0;whiteSpace=wrap;html=1;" vertex="1" parent="Q_m5-7QkY2CdEUIhsvCV-53">
          <mxGeometry y="90" width="140" height="30" as="geometry" />
        </mxCell>
        <mxCell id="Q_m5-7QkY2CdEUIhsvCV-57" value="dim_films" style="swimlane;fontStyle=0;childLayout=stackLayout;horizontal=1;startSize=30;horizontalStack=0;resizeParent=1;resizeParentMax=0;resizeLast=0;collapsible=1;marginBottom=0;whiteSpace=wrap;html=1;" vertex="1" collapsed="1" parent="1">
          <mxGeometry x="876.54" y="377" width="90" height="30" as="geometry">
            <mxRectangle x="470" y="260" width="140" height="120" as="alternateBounds" />
          </mxGeometry>
        </mxCell>
        <mxCell id="Q_m5-7QkY2CdEUIhsvCV-58" value="Item 1" style="text;strokeColor=none;fillColor=none;align=left;verticalAlign=middle;spacingLeft=4;spacingRight=4;overflow=hidden;points=[[0,0.5],[1,0.5]];portConstraint=eastwest;rotatable=0;whiteSpace=wrap;html=1;" vertex="1" parent="Q_m5-7QkY2CdEUIhsvCV-57">
          <mxGeometry y="30" width="140" height="30" as="geometry" />
        </mxCell>
        <mxCell id="Q_m5-7QkY2CdEUIhsvCV-59" value="Item 2" style="text;strokeColor=none;fillColor=none;align=left;verticalAlign=middle;spacingLeft=4;spacingRight=4;overflow=hidden;points=[[0,0.5],[1,0.5]];portConstraint=eastwest;rotatable=0;whiteSpace=wrap;html=1;" vertex="1" parent="Q_m5-7QkY2CdEUIhsvCV-57">
          <mxGeometry y="60" width="140" height="30" as="geometry" />
        </mxCell>
        <mxCell id="Q_m5-7QkY2CdEUIhsvCV-60" value="Item 3" style="text;strokeColor=none;fillColor=none;align=left;verticalAlign=middle;spacingLeft=4;spacingRight=4;overflow=hidden;points=[[0,0.5],[1,0.5]];portConstraint=eastwest;rotatable=0;whiteSpace=wrap;html=1;" vertex="1" parent="Q_m5-7QkY2CdEUIhsvCV-57">
          <mxGeometry y="90" width="140" height="30" as="geometry" />
        </mxCell>
      </root>
    </mxGraphModel>
  </diagram>
</mxfile>
